<svg xmlns="http://www.w3.org/2000/svg" xmlns:xlink="http://www.w3.org/1999/xlink" viewBox="0 0 223 135.35"><defs><style>.cls-1{fill:none;}.cls-2{fill:#739fdd;}.cls-3{fill:#e09765;}.cls-4{clip-path:url(#clip-path);}.cls-5{fill:#edae83;}.cls-6{fill:#6d6260;}.cls-7{fill:#aa9d9b;}.cls-8{fill:#423f3f;}.cls-9{fill:#005881;}.cls-10{fill:#e0e0df;}.cls-11,.cls-26{fill:#fff;}.cls-12{fill:#ea6729;}.cls-13{fill:#ffaf3b;}.cls-14{fill:#5a6f83;}.cls-15{fill:#6f8393;}.cls-16{fill:#303b44;}.cls-17{fill:#0184ab;}.cls-18{fill:#9aa6ad;}.cls-19{fill:#ede112;}.cls-20{fill:#db3e00;}.cls-21{fill:#7de4ea;}.cls-22{fill:#44bac6;}.cls-23{fill:#58cfd6;}.cls-24{fill:#ef581d;}.cls-25{fill:#5ad1e5;}.cls-26{opacity:0.15;}.cls-27{fill:#fff1e9;}.cls-28{fill:#f4e4df;}.cls-29{fill:#c1adac;}.cls-30{fill:#6b6565;}.cls-31{fill:#f4ded7;}.cls-32{fill:#edbfa9;}.cls-33{fill:#51362a;}.cls-34{fill:#936654;}.cls-35{fill:#505046;}</style><clipPath id="clip-path" transform="translate(-6)"><circle class="cls-1" cx="158.94" cy="65.85" r="49.27"/></clipPath></defs><title>0830Uhr</title><g id="Ebene_2" data-name="Ebene 2"><g id="_8:30" data-name="8:30"><path class="cls-2" d="M228,45.56,208,44.2a53.65,53.65,0,1,0,4.56,21.65,54.48,54.48,0,0,0-.51-7.39Z" transform="translate(-6)"/><circle class="cls-3" cx="152.94" cy="65.85" r="49.27"/><g class="cls-4"><path class="cls-5" d="M164,12.51S146.11,24.6,134.7,53.24s-30.94,49.92-30.94,49.92l4.47,4.55s26.94-30.34,32.65-34.94c17.88-14.4,33.6-22.47,47.68-56.19C203.06-18.18,164,12.51,164,12.51Zm11.56,12.92c-4.43,8.24-32.69,39.1-36.91,38.29s1.93-16.81,17.85-34.31,19.06-15.47,19.06-15.47C181.8,13.87,180.28,16.58,175.52,25.43Z" transform="translate(-6)"/><path class="cls-5" d="M128.32,120.46s20.73-31.38,30.62-38.33S200.4,35,206.3,24.31s4.14,2.87,1.91,6.54-24.29,37.5-36.36,48.79S152.54,93.83,137.32,123,128.32,120.46,128.32,120.46Z" transform="translate(-6)"/><path class="cls-5" d="M158.94,122.54l-6.88-3S166.27,94.31,178.87,86s32.37-51,32.37-51,4.34.69,0,10.09-14.11,33.6-22.68,40.78S166.27,109.46,158.94,122.54Z" transform="translate(-6)"/><path class="cls-5" d="M155.41,7.57s-47.18,63.3-58.34,71.19,4.22-18.38,4.22-18.38S130.39,38.5,142.35,13,155.41,7.57,155.41,7.57Z" transform="translate(-6)"/></g><g class="cls-4"><rect class="cls-6" x="143.14" y="34.12" width="81.44" height="54.79" rx="2.5" ry="2.5" transform="translate(-14.85 40.33) rotate(-12.22)"/><rect class="cls-7" x="144.41" y="33.98" width="79.95" height="52.88" rx="2.43" ry="2.43" transform="translate(-14.61 40.41) rotate(-12.22)"/><circle class="cls-8" cx="141.25" cy="68.47" r="0.99"/><circle class="cls-8" cx="215.53" cy="52.37" r="1.34"/><rect class="cls-9" x="148.18" y="35.89" width="72.27" height="48.34" transform="translate(-14.53 40.39) rotate(-12.22)"/><rect class="cls-10" x="148.6" y="39.12" width="72.27" height="45.8" transform="translate(-14.94 40.52) rotate(-12.22)"/><rect class="cls-11" x="150.66" y="39.14" width="67.7" height="43.64" transform="translate(-14.72 40.45) rotate(-12.22)"/><rect class="cls-12" x="147.24" y="39.51" width="67.7" height="11.35" transform="translate(-11.46 39.37) rotate(-12.22)"/><rect class="cls-11" x="164.37" y="50.05" width="15.24" height="1.24" transform="translate(-12.82 37.57) rotate(-12.22)"/><rect class="cls-11" x="192.01" y="43.77" width="9.58" height="2.48" rx="0.48" ry="0.48" transform="translate(-11.06 42.69) rotate(-12.22)"/><rect class="cls-11" x="203.04" y="41.38" width="9.58" height="2.48" rx="0.48" ry="0.48" transform="matrix(0.98, -0.21, 0.21, 0.98, -10.31, 44.97)"/><rect class="cls-10" x="148.76" y="50.7" width="67.7" height="3.02" transform="translate(-12.91 39.85) rotate(-12.22)"/><rect class="cls-11" x="151.03" y="48.73" width="11.58" height="11.71" transform="translate(-14 34.44) rotate(-12.22)"/><rect class="cls-13" x="151.43" y="49.13" width="10.79" height="10.92" transform="translate(-14 34.44) rotate(-12.22)"/><rect class="cls-10" x="152.07" y="60.42" width="22.62" height="7.25" transform="translate(-15.85 36.05) rotate(-12.22)"/><rect class="cls-14" x="176.52" y="56.19" width="12.73" height="7.25" transform="translate(-14.51 40.08) rotate(-12.22)"/><rect class="cls-15" x="190.01" y="53.27" width="12.73" height="7.25" transform="translate(-13.59 42.87) rotate(-12.22)"/><rect class="cls-16" x="203.5" y="50.34" width="12.73" height="7.25" transform="translate(-12.66 45.66) rotate(-12.22)"/><rect class="cls-10" x="178.92" y="61.7" width="40.33" height="15.39" transform="translate(-16.17 43.73) rotate(-12.22)"/><rect class="cls-10" x="154.9" y="68.87" width="22.44" height="15.35" transform="translate(-18.44 36.91) rotate(-12.22)"/><rect class="cls-11" x="179.33" y="66.08" width="4.86" height="4.92" transform="translate(-16.39 40.04) rotate(-12.22)"/><rect class="cls-17" x="179.5" y="66.25" width="4.53" height="4.59" transform="translate(-16.39 40.04) rotate(-12.22)"/><rect class="cls-11" x="184.41" y="64.94" width="9.93" height="0.7" transform="translate(-15.53 41.58) rotate(-12.22)"/><rect class="cls-18" x="184.65" y="65.88" width="14.96" height="0.54" transform="translate(-15.65 42.18) rotate(-12.22)"/><rect class="cls-11" x="180.48" y="67.77" width="38.69" height="8.49" transform="translate(-16.71 43.95) rotate(-12.22)"/><rect class="cls-19" x="151.41" y="49.13" width="10.79" height="10.79" transform="translate(-13.99 34.44) rotate(-12.22)"/><rect class="cls-13" x="151.98" y="54.47" width="10.79" height="5.39" transform="translate(-14.53 34.62) rotate(-12.22)"/><path class="cls-17" d="M155.76,54.65l-2.88-4.79,2.38-.52a7.17,7.17,0,0,1,.66,2.14,12.44,12.44,0,0,0,1.47,3.16c.12.37.09,2.4-.83,2S155.76,54.65,155.76,54.65Z" transform="translate(-6)"/><path class="cls-20" d="M155.54,54.8a3.19,3.19,0,0,1,.31,2c-.11,1-.36,1.45-.06,1.69s1.27-.33,1.54-1.51a9.67,9.67,0,0,0,.55-2.31c-.09-.4-.6-.38-.88-.92s-.32,0-.12.25-.26.67-.53.23-.45-.48-.45-.48a.9.9,0,0,0-.77.72.06.06,0,0,0,0,.08A1.42,1.42,0,0,1,155.54,54.8Z" transform="translate(-6)"/><path class="cls-21" d="M155.79,55.73a6.6,6.6,0,0,1,1-.34l0,.19a5.31,5.31,0,0,0-1,.37Z" transform="translate(-6)"/><path class="cls-21" d="M155.72,55.39a6.25,6.25,0,0,1,1-.34l0,.19a5,5,0,0,0-1,.37Z" transform="translate(-6)"/><path class="cls-22" d="M157.44,56.53c-.09,0-.45,0-.94.71s-.78.36-.78.36c-.08.45-.13.71.07.87s.43.11.68-.07l.18-.15a2.63,2.63,0,0,0,.68-1.29C157.37,56.81,157.41,56.67,157.44,56.53Z" transform="translate(-6)"/><path class="cls-23" d="M155.85,58.55l.27.16a2.11,2.11,0,0,0,1.33-1.48,8.18,8.18,0,0,1,.25-1.18l.09,0a2.62,2.62,0,0,0,.31-1.52l-.37-.24s0,0,0,0c.19.5-.31,1.86-.52,2.94a1.81,1.81,0,0,1-1.32,1.21Z" transform="translate(-6)"/><path class="cls-17" d="M157.52,55.06l-1.79-5.82,2.33-.5a16.25,16.25,0,0,1,.21,2.56,26.08,26.08,0,0,0,.84,4.18c0,.38-.53,2.34-1.33,1.77S157.52,55.06,157.52,55.06Z" transform="translate(-6)"/><path class="cls-24" d="M157.28,55.16a3.16,3.16,0,0,1-.21,2c-.36.92-.72,1.31-.49,1.62s1.31,0,1.88-1.06,1.1-1.69,1.11-2.1-.48-.53-.61-1.11-.31-.07-.18.21-.42.58-.57.08-.32-.58-.32-.58a.92.92,0,0,0-.93.5.09.09,0,0,0,0,.09A1.36,1.36,0,0,1,157.28,55.16Z" transform="translate(-6)"/><path class="cls-21" d="M157.28,56.12a6.23,6.23,0,0,1,1-.08v.19a5.32,5.32,0,0,0-1,.11Z" transform="translate(-6)"/><path class="cls-21" d="M157.3,55.78a5.14,5.14,0,0,1,1-.08v.19a5.32,5.32,0,0,0-1,.11Z" transform="translate(-6)"/><path class="cls-25" d="M158.67,57.32c-.08,0-.43-.16-1.09.44s-.85.15-.85.15c-.19.41-.3.65-.15.86a.55.55,0,0,0,.67.1l.21-.09a2.75,2.75,0,0,0,1-1.07Q158.57,57.5,158.67,57.32Z" transform="translate(-6)"/><path class="cls-21" d="M156.62,58.86l.21.23A2.14,2.14,0,0,0,158.5,58a8.87,8.87,0,0,1,.54-1.07l.08.06a2.61,2.61,0,0,0,.69-1.39l-.3-.33s0,0,0,0c.06.53-.77,1.72-1.25,2.71a1.76,1.76,0,0,1-1.58.83Z" transform="translate(-6)"/><polygon class="cls-26" points="217.37 69.68 144.37 42.68 137.88 44.09 148.28 92.05 218.91 76.75 217.37 69.68"/><circle class="cls-27" cx="111.05" cy="80.85" r="27.14"/><circle class="cls-28" cx="111.05" cy="81.48" r="26.51"/><path class="cls-7" d="M132.66,57.72s-2.31.61-2.18,6.16,2,8.28,4.47,9.13,1.42,30.71,3.75,31.34,2.47-.69,2-4.3c-.83-6.73-3.81-22.55-2.94-27.2,1.56-2.1,2.43-4.19,2.24-8.36C139.75,58,135.56,56.15,132.66,57.72Z" transform="translate(-6)"/><path class="cls-29" d="M133,57.69s-2.14.57-2,5.73,1.87,7.68,4.15,8.47,1.31,28.51,3.48,29.1,2.29-.64,1.88-4c-.77-6.25-3.54-20.94-2.73-25.26,1.45-1.94,2.26-3.89,2.09-7.76C139.58,58,135.69,56.24,133,57.69Z" transform="translate(-6)"/><path class="cls-30" d="M138.7,104.35a3.63,3.63,0,0,0,1,.12,1,1,0,0,0,.85-.46,4,4,0,0,0,.22-2c-.11-1.39-.36-2.76-.57-4.14l-1.36-8.29c-.42-2.76-.83-5.53-1.15-8.32-.16-1.39-.31-2.79-.37-4.2a20.32,20.32,0,0,1,.12-4.26v-.08l.05-.06a10.12,10.12,0,0,0,2-4.61,17.63,17.63,0,0,0,.06-5.13,7.45,7.45,0,0,0-2.17-4.52,4.3,4.3,0,0,0-4.8-.67,4.24,4.24,0,0,1,2.54-.56,4.61,4.61,0,0,1,2.44,1,7.55,7.55,0,0,1,2.44,4.65,17.83,17.83,0,0,1,.09,5.31,10.63,10.63,0,0,1-2.12,4.9l.06-.13a20,20,0,0,0-.06,4.1c.08,1.39.22,2.78.36,4.16.29,2.78.67,5.55,1.07,8.31l1.14,8.32c.18,1.39.35,2.78.41,4.19a4.1,4.1,0,0,1-.35,2.09,1.07,1.07,0,0,1-.94.45A3.66,3.66,0,0,1,138.7,104.35Z" transform="translate(-6)"/><path class="cls-31" d="M136.3,78.07h1.08A1.89,1.89,0,0,1,139.27,80V95a0,0,0,0,1,0,0H134.4a0,0,0,0,1,0,0V80a1.89,1.89,0,0,1,1.89-1.89Z" transform="translate(251.68 -21.22) rotate(105.98)"/><circle class="cls-27" cx="111.05" cy="80.85" r="18.66"/><circle class="cls-32" cx="111.05" cy="80.85" r="16.19"/><circle class="cls-33" cx="111.05" cy="80.85" r="14.75"/><path class="cls-34" d="M121.42,91.1a8.7,8.7,0,0,0,1-.58,8.31,8.31,0,0,0,1-.7,18.77,18.77,0,0,0,3.09-3.35l.17-.23.16-.24.33-.47c.22-.32.4-.66.61-1s.22-.41.32-.63h0l0,0c.06-.13.12-.27.19-.4l.13-.37c0-.13.09-.26.13-.38a.76.76,0,0,0,0-.11c1.45-4.75-1.55-9.32-1.55-9.32a1.81,1.81,0,0,0-3.31,1.49,1.88,1.88,0,0,0,.27.42,14.05,14.05,0,0,1,1.46,11.53,6.92,6.92,0,0,1-2.69,2.08,8.78,8.78,0,0,1-1,.37,2.77,2.77,0,0,1-.49.15l-.49.13-.24.07-.25,0-.49.1a4.13,4.13,0,0,1-.49.07l-.5,0a11.2,11.2,0,0,1-3.87-.44,11.74,11.74,0,0,1-3.58-1.65,14,14,0,0,1-3.06-2.91l-.2.09A8.26,8.26,0,0,0,110.28,89a9.74,9.74,0,0,0,4,2.58,9.61,9.61,0,0,0,4.82.26l.58-.13a4,4,0,0,0,.59-.16l.56-.2.28-.1Z" transform="translate(-6)"/><path class="cls-32" d="M127.5,65.4a18.85,18.85,0,0,1,5.81,6,18.57,18.57,0,0,1,2.6,8A18.9,18.9,0,0,1,130,94.78,19.31,19.31,0,0,1,122.62,99a18.48,18.48,0,0,1-8.42.56,19,19,0,0,1-7.8-3.16,18.64,18.64,0,0,1-5.54-6.25A18.79,18.79,0,0,0,114.28,99a18.41,18.41,0,0,0,15.2-4.75,18,18,0,0,0,4.62-6.73,18.72,18.72,0,0,0-6.6-22.13Z" transform="translate(-6)"/><path class="cls-32" d="M135.83,83.7c2.51.51,5,1.2,7.43,1.88a8.57,8.57,0,0,1,.94.31,2.17,2.17,0,0,1,.81.69,2.13,2.13,0,0,1,.21,2l-.3.91a1.9,1.9,0,0,1-.58.83,1.94,1.94,0,0,1-1.87.33,1.86,1.86,0,0,0,1.71-.5,3.19,3.19,0,0,0,.69-1.67,1.77,1.77,0,0,0-.22-1.65,1.63,1.63,0,0,0-.64-.53,7.68,7.68,0,0,0-.88-.27C140.68,85.31,138.23,84.59,135.83,83.7Z" transform="translate(-6)"/></g><path class="cls-35" d="M30.71,77.47a6.38,6.38,0,0,1-3.61-.88,2.85,2.85,0,0,1-1.31-2.54,2.92,2.92,0,0,1,.51-1.7,3.06,3.06,0,0,1,1.57-1.1,2.7,2.7,0,0,1-1.18-.9,2.36,2.36,0,0,1-.42-1.44,2.69,2.69,0,0,1,.35-1.39,3.1,3.1,0,0,1,1-1A4.38,4.38,0,0,1,29,65.87a7.15,7.15,0,0,1,3.52,0,4.49,4.49,0,0,1,1.42.62,2.89,2.89,0,0,1,.93,1,2.72,2.72,0,0,1,.34,1.38,2.36,2.36,0,0,1-.43,1.46,2.86,2.86,0,0,1-1.17.89,3.1,3.1,0,0,1,1.54,1.07A2.75,2.75,0,0,1,35.64,74a3,3,0,0,1-1.31,2.59,4.8,4.8,0,0,1-1.55.69A8.17,8.17,0,0,1,30.71,77.47Zm0-2.54a1.4,1.4,0,0,0,1-.34,1.21,1.21,0,0,0,.39-1,1.23,1.23,0,0,0-.38-.94,1.38,1.38,0,0,0-1-.36,1.46,1.46,0,0,0-1,.34,1.36,1.36,0,0,0,0,1.91A1.46,1.46,0,0,0,30.73,74.93Zm0-4.56a1.27,1.27,0,0,0,.87-.31,1.16,1.16,0,0,0,0-1.68,1.36,1.36,0,0,0-1.73,0,1.15,1.15,0,0,0,0,1.67A1.27,1.27,0,0,0,30.75,70.37Z" transform="translate(-6)"/><path class="cls-35" d="M38.39,72.91a1.78,1.78,0,0,1-.7-.13,1.75,1.75,0,0,1-.55-.36,1.42,1.42,0,0,1-.36-.54,1.68,1.68,0,0,1-.13-.68,1.7,1.7,0,0,1,.13-.67,1.46,1.46,0,0,1,.36-.55,1.62,1.62,0,0,1,.55-.37,1.78,1.78,0,0,1,.7-.14,1.89,1.89,0,0,1,.72.14,1.71,1.71,0,0,1,1,.92,1.7,1.7,0,0,1,.13.67,1.68,1.68,0,0,1-.13.68,1.6,1.6,0,0,1-.38.54,1.78,1.78,0,0,1-.58.36A1.88,1.88,0,0,1,38.39,72.91Zm0,4.55a1.72,1.72,0,1,1,0-3.44,1.88,1.88,0,0,1,.72.13,1.8,1.8,0,0,1,.58.37,1.75,1.75,0,0,1,.38.55,1.62,1.62,0,0,1,.13.66A1.64,1.64,0,0,1,39.69,77,1.79,1.79,0,0,1,38.39,77.46Z" transform="translate(-6)"/><path class="cls-35" d="M46.06,77.47a5.39,5.39,0,0,1-3.66-1,4.06,4.06,0,0,1-1.25-3h3.21a1.87,1.87,0,0,0,.39,1.06,1.32,1.32,0,0,0,1.08.39,1.44,1.44,0,0,0,1-.29,1.35,1.35,0,0,0,0-1.73,1.45,1.45,0,0,0-1-.3h-.92V70.37h.87a1.53,1.53,0,0,0,1-.3,1,1,0,0,0,.34-.85,1,1,0,0,0-.29-.72,1.22,1.22,0,0,0-.86-.27,1.2,1.2,0,0,0-.92.34,1.82,1.82,0,0,0-.43,1h-3.2a5,5,0,0,1,.38-1.6,3.54,3.54,0,0,1,.89-1.24,3.88,3.88,0,0,1,1.41-.8,6.14,6.14,0,0,1,2-.28,5.51,5.51,0,0,1,3.28.85,2.71,2.71,0,0,1,1.17,2.32A2.32,2.32,0,0,1,50,70.39a2.87,2.87,0,0,1-1.45.89,2.77,2.77,0,0,1,1.63.85,2.41,2.41,0,0,1,.61,1.7,3.56,3.56,0,0,1-.3,1.48,3.07,3.07,0,0,1-.9,1.16,4.19,4.19,0,0,1-1.48.74A7,7,0,0,1,46.06,77.47Z" transform="translate(-6)"/><path class="cls-35" d="M57.08,77.47a6.23,6.23,0,0,1-2.22-.37A4.53,4.53,0,0,1,53.17,76a4.8,4.8,0,0,1-1.06-1.78,7.22,7.22,0,0,1-.37-2.43v-.45a6.51,6.51,0,0,1,.42-2.43,4.87,4.87,0,0,1,1.14-1.78A4.77,4.77,0,0,1,55,66a6,6,0,0,1,2.14-.38,6.41,6.41,0,0,1,2.12.34A4.74,4.74,0,0,1,61,67a5.18,5.18,0,0,1,1.15,1.75,6.62,6.62,0,0,1,.42,2.47v.43a7.48,7.48,0,0,1-.38,2.46A5,5,0,0,1,61.08,76a4.73,4.73,0,0,1-1.73,1.13A6.32,6.32,0,0,1,57.08,77.47Zm.11-2.78A1.46,1.46,0,0,0,58.56,74,4.7,4.7,0,0,0,59,71.75v-.41a4.49,4.49,0,0,0-.42-2.22,1.5,1.5,0,0,0-1.39-.72,1.52,1.52,0,0,0-1.4.71,4.47,4.47,0,0,0-.42,2.21v.45A4.45,4.45,0,0,0,55.76,74,1.55,1.55,0,0,0,57.19,74.69Z" transform="translate(-6)"/><path class="cls-35" d="M72.25,77.47a5.56,5.56,0,0,1-3.88-1.23A4.75,4.75,0,0,1,67,72.55V65.83h3.61V72.4a5.54,5.54,0,0,0,.08,1,1.81,1.81,0,0,0,.24.69,1.08,1.08,0,0,0,.5.42,2,2,0,0,0,.8.14,1.35,1.35,0,0,0,1.28-.56,3.47,3.47,0,0,0,.32-1.68V65.83H77.5v6.68a6,6,0,0,1-.37,2.24,4,4,0,0,1-1.06,1.54,4.33,4.33,0,0,1-1.65.9A7.71,7.71,0,0,1,72.25,77.47Z" transform="translate(-6)"/><path class="cls-35" d="M79.21,65.27h3.15v5a3.06,3.06,0,0,1,1-1.12,3.12,3.12,0,0,1,1.74-.45,3,3,0,0,1,1.09.2,2.24,2.24,0,0,1,.85.57,3,3,0,0,1,.55,1,4.28,4.28,0,0,1,.2,1.36v5.51H84.67v-4.8a1.57,1.57,0,0,0-.25-1,1,1,0,0,0-.81-.32,1.18,1.18,0,0,0-.92.35,1.56,1.56,0,0,0-.33,1.1v4.63H79.21Z" transform="translate(-6)"/><path class="cls-35" d="M89.27,68.9h3.16v1.69a2.58,2.58,0,0,1,2.68-1.8v2.94a3.5,3.5,0,0,0-2,.34,1.48,1.48,0,0,0-.68,1.34v3.86H89.27Z" transform="translate(-6)"/><path class="cls-35" d="M14.14,81.68H16l3.88,11.44H18.46l-1.12-3.28H12.62l-1.1,3.28H10.2Zm-1.14,7h4l-2-5.89Z" transform="translate(-6)"/><path class="cls-35" d="M24.54,93.26a3.62,3.62,0,0,1-1.16-.18,2.18,2.18,0,0,1-.92-.56,2.77,2.77,0,0,1-.61-1A4.31,4.31,0,0,1,21.63,90V84.75H23V90a2.35,2.35,0,0,0,.47,1.63,1.89,1.89,0,0,0,1.46.51,2.72,2.72,0,0,0,.86-.14,2.05,2.05,0,0,0,.74-.44,2.13,2.13,0,0,0,.51-.72,2.41,2.41,0,0,0,.2-1V84.75h1.32v8.37H27.2V91.79a2.7,2.7,0,0,1-1,1A3.1,3.1,0,0,1,24.54,93.26Z" transform="translate(-6)"/><path class="cls-35" d="M31.69,85.87h-1.2V84.75h1.2V83.39a2.85,2.85,0,0,1,.63-2,2.36,2.36,0,0,1,1.87-.71,2.66,2.66,0,0,1,.53,0l.46.12V82a1.6,1.6,0,0,0-.42-.13,3,3,0,0,0-.52-.05,1.06,1.06,0,0,0-.94.4,1.72,1.72,0,0,0-.28,1v1.5h2v1.12H33v7.25H31.69Z" transform="translate(-6)"/><path class="cls-35" d="M36.39,84.75h1.44l2,6.74,2-6.74H43l1.9,6.74,2-6.74H48.2l-2.6,8.37H44.12l-1.74-6.28-2,6.28H39Z" transform="translate(-6)"/><path class="cls-35" d="M52.12,93.26A4.2,4.2,0,0,1,51,93.12a2.49,2.49,0,0,1-.89-.45,2.06,2.06,0,0,1-.59-.77,2.51,2.51,0,0,1-.22-1.1,2.09,2.09,0,0,1,.35-1.22,2.62,2.62,0,0,1,.94-.8A4.69,4.69,0,0,1,52,88.34a9,9,0,0,1,1.56-.13h1.2V87.6a2.08,2.08,0,0,0-.41-1.44,1.86,1.86,0,0,0-1.38-.43c-1.15,0-1.79.49-1.92,1.48H49.69A2.74,2.74,0,0,1,50.05,86a2.65,2.65,0,0,1,.75-.81,3.08,3.08,0,0,1,1-.45A5.06,5.06,0,0,1,53,84.61a5,5,0,0,1,1.16.13,2.39,2.39,0,0,1,1,.48,2.47,2.47,0,0,1,.67.92,3.63,3.63,0,0,1,.26,1.46v5.52H54.73V92.06a3.24,3.24,0,0,1-1.07.9A3.49,3.49,0,0,1,52.12,93.26Zm.13-1.05a3.53,3.53,0,0,0,1-.14,2.38,2.38,0,0,0,.78-.39,1.85,1.85,0,0,0,.71-1.49v-1H53.58a7,7,0,0,0-1.16.09,3.29,3.29,0,0,0-.93.28,1.6,1.6,0,0,0-.61.5,1.38,1.38,0,0,0-.21.78,1.43,1.43,0,0,0,.35,1A1.63,1.63,0,0,0,52.25,92.21Z" transform="translate(-6)"/><path class="cls-35" d="M62.33,93.26a4.25,4.25,0,0,1-1.62-.3,3.64,3.64,0,0,1-1.3-.84,3.81,3.81,0,0,1-.86-1.34A4.68,4.68,0,0,1,58.23,89v-.13a4.7,4.7,0,0,1,.32-1.75,4.1,4.1,0,0,1,.88-1.35,3.78,3.78,0,0,1,1.28-.87,4,4,0,0,1,1.59-.31,4.86,4.86,0,0,1,1.27.16,3.16,3.16,0,0,1,1.1.5,3,3,0,0,1,.83.9,3.46,3.46,0,0,1,.43,1.36H64.62a1.92,1.92,0,0,0-.81-1.39,2.71,2.71,0,0,0-1.51-.41,2.53,2.53,0,0,0-1.07.22,2.58,2.58,0,0,0-.84.63,3,3,0,0,0-.57,1,3.93,3.93,0,0,0-.21,1.32V89a3.21,3.21,0,0,0,.76,2.33,2.62,2.62,0,0,0,2,.79A2.7,2.7,0,0,0,63.2,92a2.26,2.26,0,0,0,.74-.38,2.06,2.06,0,0,0,.54-.63,2.27,2.27,0,0,0,.27-.89H66a3.39,3.39,0,0,1-.36,1.26,3.46,3.46,0,0,1-.78,1,3.74,3.74,0,0,1-1.12.65A3.9,3.9,0,0,1,62.33,93.26Z" transform="translate(-6)"/><path class="cls-35" d="M68.17,80.75H69.5v5.33a2.58,2.58,0,0,1,1-1,3.11,3.11,0,0,1,1.72-.43,3.74,3.74,0,0,1,1.18.18,2.38,2.38,0,0,1,.94.59,2.68,2.68,0,0,1,.6,1.05A4.71,4.71,0,0,1,75.13,88v5.14H73.8V87.86a2.31,2.31,0,0,0-.48-1.62,2,2,0,0,0-1.49-.51,2.58,2.58,0,0,0-.88.14,2.13,2.13,0,0,0-.75.43,2.28,2.28,0,0,0-.51.73,2.4,2.4,0,0,0-.19,1v5.1H68.17Z" transform="translate(-6)"/><path class="cls-35" d="M81.35,93.26a4.3,4.3,0,0,1-1.63-.3,3.77,3.77,0,0,1-2.12-2.19A4.91,4.91,0,0,1,77.31,89v-.13a5.06,5.06,0,0,1,.28-1.73,4.27,4.27,0,0,1,.81-1.36,3.51,3.51,0,0,1,1.24-.88,3.92,3.92,0,0,1,1.59-.31,4.19,4.19,0,0,1,1.4.23,3.3,3.3,0,0,1,2,2A5.21,5.21,0,0,1,85,88.79v.44H78.68a3.27,3.27,0,0,0,.72,2.16,2.52,2.52,0,0,0,2,.75c1.31,0,2-.47,2.22-1.42h1.33a2.77,2.77,0,0,1-1.18,1.9A4.2,4.2,0,0,1,81.35,93.26Zm2.28-5.14a2.66,2.66,0,0,0-.73-1.84,2.44,2.44,0,0,0-1.67-.55,2.28,2.28,0,0,0-1.68.64,3.09,3.09,0,0,0-.82,1.75Z" transform="translate(-6)"/><path class="cls-35" d="M87.21,84.75h1.33v1.33a2.58,2.58,0,0,1,1-1,3.11,3.11,0,0,1,1.72-.43,3.74,3.74,0,0,1,1.18.18,2.38,2.38,0,0,1,.94.59,2.68,2.68,0,0,1,.6,1.05A4.71,4.71,0,0,1,94.17,88v5.14H92.84V87.86a2.31,2.31,0,0,0-.48-1.62,2,2,0,0,0-1.49-.51,2.58,2.58,0,0,0-.88.14,2.23,2.23,0,0,0-.75.43,2.28,2.28,0,0,0-.51.73,2.4,2.4,0,0,0-.19,1v5.1H87.21Z" transform="translate(-6)"/><path class="cls-35" d="M6,100.6H7.32v1.28a2.65,2.65,0,0,1,.94-1,2.79,2.79,0,0,1,1.56-.41,3,3,0,0,1,1.47.36,2.21,2.21,0,0,1,1,1.2,2.58,2.58,0,0,1,.54-.69,3.67,3.67,0,0,1,.72-.49,3.52,3.52,0,0,1,1.6-.38,3.2,3.2,0,0,1,1.07.17,2.29,2.29,0,0,1,.9.58,2.89,2.89,0,0,1,.62,1,4.63,4.63,0,0,1,.23,1.54V109H16.62v-5.31a2.26,2.26,0,0,0-.46-1.59,1.69,1.69,0,0,0-1.32-.49,2.44,2.44,0,0,0-.8.13,2,2,0,0,0-.71.42,2.07,2.07,0,0,0-.5.71,2.33,2.33,0,0,0-.19,1V109H11.31v-5.31a2.26,2.26,0,0,0-.46-1.59,1.69,1.69,0,0,0-1.32-.49,2.45,2.45,0,0,0-.81.13,2,2,0,0,0-.7.42,1.94,1.94,0,0,0-.5.71,2.33,2.33,0,0,0-.2,1V109H6Z" transform="translate(-6)"/><path class="cls-35" d="M21.42,98.86a.84.84,0,0,1-.62-.26.88.88,0,0,1,0-1.25.83.83,0,0,1,.62-.25.84.84,0,0,1,.62.25.89.89,0,0,1-.62,1.51Zm-.64,1.74h1.33V109H20.78Z" transform="translate(-6)"/><path class="cls-35" d="M27.56,109.08a2.18,2.18,0,0,1-1.7-.61,2.27,2.27,0,0,1-.55-1.6v-5.15h-1.2V100.6h1.2V98.7h1.33v1.9h1.95v1.12H26.64v5c0,.81.34,1.22,1,1.22a3.06,3.06,0,0,0,.56,0,2.42,2.42,0,0,0,.46-.13v1.12a2.06,2.06,0,0,1-.46.13A4.12,4.12,0,0,1,27.56,109.08Z" transform="translate(-6)"/><path class="cls-35" d="M37.72,109.11a3.61,3.61,0,0,1-2.36-.71,2.7,2.7,0,0,1-.92-2h1.3a1.87,1.87,0,0,0,.52,1.18,2,2,0,0,0,1.45.43,2.31,2.31,0,0,0,1.39-.33,1.14,1.14,0,0,0,.43-1,1,1,0,0,0-.49-.94,4.64,4.64,0,0,0-1.46-.46,9.94,9.94,0,0,1-1.38-.34,3,3,0,0,1-.89-.49,1.6,1.6,0,0,1-.49-.69,2.69,2.69,0,0,1-.15-.94,2,2,0,0,1,.25-1,2.34,2.34,0,0,1,.67-.73,2.87,2.87,0,0,1,.91-.45,3.52,3.52,0,0,1,1-.15,4.68,4.68,0,0,1,1.07.12,2.47,2.47,0,0,1,.92.41,2.35,2.35,0,0,1,.68.75,3,3,0,0,1,.35,1.15H39.24a1.6,1.6,0,0,0-.55-1,1.94,1.94,0,0,0-1.21-.31,1.85,1.85,0,0,0-1.15.32,1,1,0,0,0-.43.87,1.22,1.22,0,0,0,.09.49.91.91,0,0,0,.31.35,2.42,2.42,0,0,0,.6.27,6.58,6.58,0,0,0,1,.21c.43.09.82.18,1.19.28a3.06,3.06,0,0,1,.93.42,1.74,1.74,0,0,1,.61.68,2.5,2.5,0,0,1,.22,1.1,2.39,2.39,0,0,1-.77,1.85A3.36,3.36,0,0,1,37.72,109.11Z" transform="translate(-6)"/><path class="cls-35" d="M46.48,109.11a4.22,4.22,0,0,1-1.65-.32,3.81,3.81,0,0,1-1.3-.89,4.14,4.14,0,0,1-.85-1.35,4.69,4.69,0,0,1-.3-1.69v-.13a4.59,4.59,0,0,1,.31-1.73,4.1,4.1,0,0,1,.86-1.35,3.75,3.75,0,0,1,1.29-.88,4.52,4.52,0,0,1,3.29,0,4,4,0,0,1,1.31.87,4.09,4.09,0,0,1,.85,1.34,4.63,4.63,0,0,1,.31,1.73v.13a4.68,4.68,0,0,1-.31,1.74,4.1,4.1,0,0,1-.86,1.35,4.06,4.06,0,0,1-1.31.87A4.2,4.2,0,0,1,46.48,109.11Zm0-1.12a2.79,2.79,0,0,0,1.14-.22,2.29,2.29,0,0,0,.86-.64,2.88,2.88,0,0,0,.55-1,4.35,4.35,0,0,0,.19-1.28v-.12a4.43,4.43,0,0,0-.19-1.3,2.86,2.86,0,0,0-.56-1,2.37,2.37,0,0,0-.86-.64,2.75,2.75,0,0,0-1.13-.22,2.78,2.78,0,0,0-1.13.22,2.32,2.32,0,0,0-.87.64,2.94,2.94,0,0,0-.54,1,4.08,4.08,0,0,0-.19,1.3v.13a3.42,3.42,0,0,0,.72,2.28A2.51,2.51,0,0,0,46.49,108Z" transform="translate(-6)"/><path class="cls-35" d="M51.61,108.78l5-7.06H52.09V100.6H58.6v.24l-4.83,7h4.77V109H51.61Z" transform="translate(-6)"/><path class="cls-35" d="M61.21,98.86a.88.88,0,0,1-.62-1.51.88.88,0,0,1,1.25,1.25A.86.86,0,0,1,61.21,98.86Zm-.64,1.74H61.9V109H60.57Z" transform="translate(-6)"/><path class="cls-35" d="M66.91,109.11a4.22,4.22,0,0,1-1.09-.14,2.58,2.58,0,0,1-.89-.45,2.06,2.06,0,0,1-.59-.77,2.66,2.66,0,0,1-.22-1.1,2,2,0,0,1,.36-1.22,2.51,2.51,0,0,1,.93-.8,4.76,4.76,0,0,1,1.35-.44,8.8,8.8,0,0,1,1.56-.13h1.2v-.61A2,2,0,0,0,69.1,102a1.86,1.86,0,0,0-1.38-.43c-1.15,0-1.79.49-1.92,1.48H64.48a2.74,2.74,0,0,1,.36-1.21,2.43,2.43,0,0,1,.75-.81,2.94,2.94,0,0,1,1-.45,5.08,5.08,0,0,1,1.18-.13,4.89,4.89,0,0,1,1.15.13,2.43,2.43,0,0,1,1,.48,2.58,2.58,0,0,1,.67.92,3.64,3.64,0,0,1,.25,1.46V109H69.52v-1.06a3.07,3.07,0,0,1-1.08.9A3.42,3.42,0,0,1,66.91,109.11Zm.13-1a3.41,3.41,0,0,0,1-.14,2.38,2.38,0,0,0,.78-.39,1.76,1.76,0,0,0,.52-.63,1.85,1.85,0,0,0,.2-.86v-1H68.36a7.09,7.09,0,0,0-1.16.09,3.32,3.32,0,0,0-.92.28,1.46,1.46,0,0,0-.61.5,1.31,1.31,0,0,0-.22.78,1.48,1.48,0,0,0,.35,1A1.67,1.67,0,0,0,67,108.06Z" transform="translate(-6)"/><path class="cls-35" d="M73.68,96.6H75V109H73.68Z" transform="translate(-6)"/><path class="cls-35" d="M81.36,109.11a4.32,4.32,0,0,1-1.64-.3,3.77,3.77,0,0,1-2.12-2.19,5.14,5.14,0,0,1-.29-1.75v-.13A4.83,4.83,0,0,1,77.6,103a4.08,4.08,0,0,1,.8-1.36,3.64,3.64,0,0,1,1.24-.88,3.92,3.92,0,0,1,1.59-.31,4.19,4.19,0,0,1,1.4.23,3.5,3.5,0,0,1,1.21.73,3.65,3.65,0,0,1,.84,1.3,5.44,5.44,0,0,1,.31,1.92v.44H78.68a3.38,3.38,0,0,0,.72,2.16,2.52,2.52,0,0,0,2,.75c1.31,0,2-.47,2.23-1.42h1.32a2.75,2.75,0,0,1-1.18,1.9A4.16,4.16,0,0,1,81.36,109.11ZM83.63,104a2.67,2.67,0,0,0-.73-1.85,2.44,2.44,0,0,0-1.67-.55,2.25,2.25,0,0,0-1.67.64,3,3,0,0,0-.83,1.76Z" transform="translate(-6)"/><path class="cls-35" d="M87.21,100.6h1.33v1.33a2.5,2.5,0,0,1,1-1,3,3,0,0,1,1.72-.44,3.74,3.74,0,0,1,1.18.18,2.31,2.31,0,0,1,.94.59,2.83,2.83,0,0,1,.61,1,5,5,0,0,1,.21,1.55V109H92.84v-5.26a2.31,2.31,0,0,0-.48-1.62,1.94,1.94,0,0,0-1.48-.51,2.63,2.63,0,0,0-.89.14,2.33,2.33,0,0,0-.75.43,2.28,2.28,0,0,0-.51.73,2.4,2.4,0,0,0-.19,1V109H87.21Z" transform="translate(-6)"/><path class="cls-35" d="M40.36,113.38H42.3l3.53,8.91,3.43-8.91h1.92v11.44H49.79v-9.63L46,124.82h-.44l-3.92-9.63v9.63H40.36Z" transform="translate(-6)"/><path class="cls-35" d="M57.58,125a4.26,4.26,0,0,1-1.63-.3,3.75,3.75,0,0,1-1.28-.86,3.51,3.51,0,0,1-.84-1.33,4.87,4.87,0,0,1-.3-1.75v-.12a5.12,5.12,0,0,1,.29-1.74,3.94,3.94,0,0,1,.81-1.36,3.55,3.55,0,0,1,1.24-.88,3.91,3.91,0,0,1,1.58-.31,4.42,4.42,0,0,1,1.4.23,3.41,3.41,0,0,1,1.21.73,3.65,3.65,0,0,1,.84,1.3,5.24,5.24,0,0,1,.31,1.93v.43h-6.3a3.3,3.3,0,0,0,.72,2.17,2.53,2.53,0,0,0,2,.74c1.31,0,2-.47,2.22-1.42h1.33a2.76,2.76,0,0,1-1.19,1.9A4.16,4.16,0,0,1,57.58,125Zm2.27-5.13a2.62,2.62,0,0,0-.73-1.85,2.44,2.44,0,0,0-1.67-.55,2.26,2.26,0,0,0-1.67.64,3.06,3.06,0,0,0-.82,1.76Z" transform="translate(-6)"/><path class="cls-35" d="M66.59,125a3.9,3.9,0,0,1-1.51-.28,3.35,3.35,0,0,1-1.21-.81,4,4,0,0,1-.78-1.31,5.12,5.12,0,0,1-.28-1.76v-.12a5.3,5.3,0,0,1,.29-1.77,4.28,4.28,0,0,1,.8-1.38,3.44,3.44,0,0,1,1.23-.9,3.77,3.77,0,0,1,1.59-.32,3,3,0,0,1,1.71.44,3.36,3.36,0,0,1,1,1v-5.34h1.33v12.37H69.45v-1.44A2.83,2.83,0,0,1,69,124a3.9,3.9,0,0,1-.68.51,4.21,4.21,0,0,1-.81.35A3,3,0,0,1,66.59,125Zm.14-1.12a3,3,0,0,0,1.09-.19,2.26,2.26,0,0,0,.88-.58,2.82,2.82,0,0,0,.58-1,3.9,3.9,0,0,0,.22-1.39v-.13a3.41,3.41,0,0,0-.71-2.37,2.55,2.55,0,0,0-2-.76,2.42,2.42,0,0,0-2,.82,3.55,3.55,0,0,0-.7,2.36v.13a4.1,4.1,0,0,0,.2,1.38,2.79,2.79,0,0,0,.54,1,2.17,2.17,0,0,0,.81.57A2.53,2.53,0,0,0,66.73,123.84Z" transform="translate(-6)"/><path class="cls-35" d="M74.33,114.71a.88.88,0,0,1-.62-1.51.84.84,0,0,1,.62-.25.87.87,0,0,1,.63.25.91.91,0,0,1,0,1.25A.88.88,0,0,1,74.33,114.71Zm-.64,1.74H75v8.37H73.69Z" transform="translate(-6)"/><path class="cls-35" d="M81.35,125a4.3,4.3,0,0,1-1.63-.3,3.85,3.85,0,0,1-1.28-.86,3.78,3.78,0,0,1-.84-1.33,5.1,5.1,0,0,1-.29-1.75v-.12a4.89,4.89,0,0,1,.29-1.74,4.08,4.08,0,0,1,.8-1.36,3.64,3.64,0,0,1,1.24-.88,3.92,3.92,0,0,1,1.59-.31,4.46,4.46,0,0,1,1.4.23,3.5,3.5,0,0,1,1.21.73,3.65,3.65,0,0,1,.84,1.3A5.46,5.46,0,0,1,85,120.5v.43H78.68a3.41,3.41,0,0,0,.72,2.17,2.55,2.55,0,0,0,2,.74c1.31,0,2-.47,2.23-1.42h1.32a2.75,2.75,0,0,1-1.18,1.9A4.2,4.2,0,0,1,81.35,125Zm2.28-5.13A2.67,2.67,0,0,0,82.9,118a2.44,2.44,0,0,0-1.67-.55,2.25,2.25,0,0,0-1.67.64,3.06,3.06,0,0,0-.83,1.76Z" transform="translate(-6)"/><path class="cls-35" d="M87.21,116.45h1.33v1.33a2.5,2.5,0,0,1,1-1,3,3,0,0,1,1.72-.44,3.74,3.74,0,0,1,1.18.18,2.31,2.31,0,0,1,.94.59,3,3,0,0,1,.61,1,5.05,5.05,0,0,1,.21,1.55v5.14H92.84v-5.26a2.32,2.32,0,0,0-.48-1.62,2,2,0,0,0-1.49-.51,2.89,2.89,0,0,0-.88.14,2.09,2.09,0,0,0-.75.44,2.13,2.13,0,0,0-.51.72,2.41,2.41,0,0,0-.19,1v5.09H87.21Z" transform="translate(-6)"/></g></g></svg>