<svg xmlns="http://www.w3.org/2000/svg" xmlns:xlink="http://www.w3.org/1999/xlink" viewBox="0 0 277.8 259.62"><defs><style>.cls-1,.cls-28,.cls-32{fill:none;}.cls-2{fill:#739fdd;}.cls-3{clip-path:url(#clip-path);}.cls-4{fill:#3d4949;}.cls-5{fill:url(#linear-gradient);}.cls-6{fill:#3f65b6;}.cls-7{fill:#375c9c;}.cls-8{fill:#2d508a;}.cls-9{fill:#3b649c;}.cls-10,.cls-22{fill:#fff;}.cls-10,.cls-28,.cls-32{stroke:#fff;stroke-miterlimit:10;}.cls-10{stroke-width:0.39px;opacity:0.25;}.cls-11{fill:#4aedcd;}.cls-12{fill:#105649;}.cls-13{fill:#2fb299;}.cls-14{fill:#ffc1a9;}.cls-15{fill:#ea916e;}.cls-16{fill:#bad1d0;}.cls-17{fill:#3fd1b8;}.cls-18{fill:#ce895b;}.cls-19{fill:#ffeee9;}.cls-20{fill:#db4f09;}.cls-21{fill:#603c2b;}.cls-23{fill:#ed6418;}.cls-24{fill:#f72300;}.cls-25{fill:#d8633f;}.cls-26{fill:#ea8378;}.cls-27{fill:#6b2b0f;}.cls-28{stroke-width:0.52px;}.cls-29{fill:#6d6260;}.cls-30{fill:#aa9d9b;}.cls-31{fill:#423f3f;}.cls-32{stroke-linecap:round;stroke-width:0.51px;}.cls-33{fill:#505046;}</style><clipPath id="clip-path" transform="translate(-24.62 -1.72)"><circle class="cls-1" cx="153.59" cy="81.17" r="49.22"/></clipPath><linearGradient id="linear-gradient" x1="189.1" y1="33.61" x2="189.1" y2="159.25" gradientTransform="translate(1 -3.7)" gradientUnits="userSpaceOnUse"><stop offset="0" stop-color="#66baff"/><stop offset="0.07" stop-color="#6bb9f7"/><stop offset="0.17" stop-color="#79b6e1"/><stop offset="0.29" stop-color="#91b1be"/><stop offset="0.43" stop-color="#b1a98c"/><stop offset="0.59" stop-color="#daa04e"/><stop offset="0.72" stop-color="#ff9815"/></linearGradient></defs><title>0930Uhr</title><g id="Ebene_2" data-name="Ebene 2"><g id="_9:30" data-name="9:30"><path class="cls-2" d="M223,99.54l-16.4-11.41A53.67,53.67,0,1,0,199.42,109a54.65,54.65,0,0,0,3.36-6.6Z" transform="translate(-24.62 -1.72)"/><g class="cls-3"><rect class="cls-4" x="79.3" y="23.4" width="221.6" height="105.98" rx="9.11" ry="9.11" transform="translate(-27.25 5.18) rotate(-2.06)"/><rect class="cls-5" x="82.82" y="26.65" width="214.57" height="99.47" rx="7.48" ry="7.48" transform="translate(-27.25 5.18) rotate(-2.06)"/><rect class="cls-6" x="261.63" y="77.38" width="36.8" height="52.51" transform="translate(538.99 195.4) rotate(177.94)"/><rect class="cls-7" x="234.16" y="84.95" width="18.4" height="46.26" transform="translate(465.84 205.62) rotate(177.94)"/><polygon class="cls-7" points="189.59 37.49 209.99 25.08 211.83 76.08 191.01 76.83 189.59 37.49"/><rect class="cls-8" x="192.49" y="113.45" width="23.44" height="19.18" transform="translate(388.09 236.94) rotate(177.94)"/><rect class="cls-7" x="188.42" y="70.75" width="16.67" height="62.15" transform="matrix(1, -0.04, 0.04, 1, -28.16, 5.43)"/><rect class="cls-6" x="171.33" y="85.81" width="28.99" height="47.48" transform="translate(-28.44 5.04) rotate(-2.06)"/><rect class="cls-6" x="109.25" y="69.96" width="70.31" height="64.82" transform="translate(267.77 197.75) rotate(177.94)"/><rect class="cls-7" x="111.7" y="59.16" width="62.67" height="10.82" transform="translate(263.69 122.22) rotate(177.94)"/><polygon class="cls-6" points="191.64 130.49 215.06 129.65 212.99 72 189.16 61.72 191.64 130.49"/><rect class="cls-9" x="81.49" y="90.72" width="71.35" height="44.98" transform="translate(213.72 220.4) rotate(177.94)"/><rect class="cls-9" x="243.52" y="94.03" width="21.35" height="36.8" transform="translate(487.67 213.91) rotate(177.94)"/><path class="cls-10" d="M285.48,23.18,88.57,30.28A7.47,7.47,0,0,0,81.37,38l2.71,75.32Z" transform="translate(-24.62 -1.72)"/><path class="cls-11" d="M147.17,76.78s-3.55-.94-4.12-1.07-1.33,1.83-1.52,3.81-4.65,12.71-4.65,12.71l-1.32,1a14.17,14.17,0,0,1-1,3.36l-1.14,0s-.64.37-.67.9-1.53,4.82-.93,15.34c0,0,.19,1.74,1.72,1.64s10.5-18,12.68-21.84S147.17,76.78,147.17,76.78Z" transform="translate(-24.62 -1.72)"/><path class="cls-12" d="M133.53,114.46a7.49,7.49,0,0,0,1.4-2l1.22-2.27c.82-1.51,1.62-3,2.52-4.5s1.9-2.89,2.75-4.39,1.59-3.07,2.29-4.65c.36-.79.69-1.59,1.07-2.36l.57-1.18c.19-.39.4-.78.53-1.12a17.8,17.8,0,0,0,.83-4.87c.27-3.38.29-6.82.4-10.29h.13a41.17,41.17,0,0,1,.86,10.4,15.43,15.43,0,0,1-1.1,5.26,10.63,10.63,0,0,1-.64,1.18l-.67,1.11c-.43.75-.9,1.47-1.35,2.21-.9,1.48-1.78,3-2.55,4.51s-1.42,3.16-2.17,4.72a43.77,43.77,0,0,1-2.6,4.5c-.48.73-1,1.44-1.52,2.13a10.1,10.1,0,0,1-.86,1,2.44,2.44,0,0,1-1.1.8Z" transform="translate(-24.62 -1.72)"/><path class="cls-12" d="M133.22,100.1a3.07,3.07,0,0,1,1.19,1,10,10,0,0,1,.81,1.33,4.7,4.7,0,0,1,.57,1.42,3.42,3.42,0,0,1-.09,1.58l-.1,0a4.62,4.62,0,0,1-.81-1.31,9.68,9.68,0,0,1-.35-1.41,9.14,9.14,0,0,0-.48-1.36,2.87,2.87,0,0,0-.78-1.18Z" transform="translate(-24.62 -1.72)"/><path class="cls-12" d="M134.75,99.37a11.66,11.66,0,0,0,1.68-.16,3.73,3.73,0,0,1,.8-.14,2.51,2.51,0,0,1,.88.18l0,.08a1.59,1.59,0,0,1-.79.51,2.06,2.06,0,0,1-.89,0,6.24,6.24,0,0,1-1.72-.39Z" transform="translate(-24.62 -1.72)"/><path class="cls-13" d="M125.43,84s-6.81,5.75-10.17,13l7.52-.52,2.82-7.94Z" transform="translate(-24.62 -1.72)"/><path class="cls-14" d="M119.86,75.29s-.61-.1,0,7.44,7,27,9.78,29.24c0,0,2.3,1.26,2.43-2s1.07-7.36-1.86-12.68S122.69,83,121.66,77.19C121.66,77.19,120.93,74.58,119.86,75.29Z" transform="translate(-24.62 -1.72)"/><path class="cls-11" d="M125.43,84a19.3,19.3,0,0,1-10.17,13s12.07,15.22,17.16,17.2c0,0,1.51.23,1.84-2.67s-1.9-12-1.9-12A56.07,56.07,0,0,1,125.43,84Z" transform="translate(-24.62 -1.72)"/><path class="cls-14" d="M115.41,74.09S119.64,78.64,121,79s1-7.88.2-10.08-2.27-4.85-3.42-4.51S115.92,73.2,115.41,74.09Z" transform="translate(-24.62 -1.72)"/><path class="cls-15" d="M121.53,78.67s3-3.56,3-5.89-.82-7.15-.81-8.44-.73-.75-1.12.43.2,4.86-.16,5.13a3.62,3.62,0,0,0-1.67,3.3A22.93,22.93,0,0,0,121.53,78.67Z" transform="translate(-24.62 -1.72)"/><path class="cls-16" d="M120.18,9.36h3.37a0,0,0,0,1,0,0V259.74a1.69,1.69,0,0,1-1.69,1.69h0a1.69,1.69,0,0,1-1.69-1.69V9.36A0,0,0,0,1,120.18,9.36Z" transform="translate(-29.42 2.76) rotate(-2.06)"/><path class="cls-4" d="M119.08,9.24l1.55,31.55L122,72.34l2.47,63.12,2.08,63.13.91,31.56.37,15.79.19,7.89.08,3.95a8.14,8.14,0,0,1-.08,2,2,2,0,0,1-1.08,1.57,1.94,1.94,0,0,0,1-1.58,8,8,0,0,0,0-2l-.2-3.94-.38-7.89-.76-15.77-1.37-31.55-2.47-63.12-2.08-63.12-.9-31.57Z" transform="translate(-24.62 -1.72)"/><path class="cls-14" d="M115.62,65.91s.24-.24-.4-1.26.77-1.64,2-1.48,5.41,2.3,5.91,3.37-.87,1-2.14.41a20.78,20.78,0,0,0-2.88-1,28.17,28.17,0,0,1,4.21,2.31c.43.56,0,.89,0,.89a1.15,1.15,0,0,1,.16,1.41s-.24.46-2.53,1l2,.1s1,.5-.14,1.26-6.17,1.7-6.35,1.16.25-1.49.34-2.09-.87-1.62-.53-2.43-1-2.19-.37-2.67A2.56,2.56,0,0,0,115.62,65.91Z" transform="translate(-24.62 -1.72)"/><path class="cls-13" d="M165.48,68.54a33.18,33.18,0,0,0-17.64.63l2.68,6,2.77,7.15,8-4.49Z" transform="translate(-24.62 -1.72)"/><path class="cls-17" d="M145,120.74l-.88,2,.54,1.8s-7.48,32.36-4.37,100.39c0,0,7.38,2.34,11.38,3.11a74.94,74.94,0,0,0,9.48,1l-.09-2.43s17.7,1.4,24.81-.76c0,0-12.55-92.36-18.51-104.39l-18.2-.78Z" transform="translate(-24.62 -1.72)"/><path class="cls-18" d="M145.44,116.33l-.41,4.41s4.78,2.63,14.63,2.8c8.12.14,7.73-2.17,7.73-2.17l-.13-3.58Z" transform="translate(-24.62 -1.72)"/><path class="cls-17" d="M144.37,77.69a.94.94,0,0,1,1-1.1c2.28.08,7.15.23,8.83.19l6,.55S173.75,79.6,174.17,80s-3.3,18.23-6.23,29.84a5,5,0,0,0,.4,2.22s-.22,1.12-.62,1.37c0,0,.9,2.44.65,3.28s-1.47,1.73-2.25,2.23-14.56,1.64-21.53-3.14a19.79,19.79,0,0,0,1.31-2.51c.16-.61-.74-2-.74-2s1.78-5.23,1.55-9-2.39-6.93-3.1-8.63S146.18,86.83,144.37,77.69Z" transform="translate(-24.62 -1.72)"/><polygon class="cls-19" points="126.11 75.03 129.95 85.43 130.97 89.86 136.72 76.32 136.7 75.79 129.92 75.59 126.11 75.03"/><path class="cls-14" d="M154.83,66a47.22,47.22,0,0,1-2.27,16.07l7.88-.29s-2.09-5.81-2.07-16Z" transform="translate(-24.62 -1.72)"/><path class="cls-15" d="M158.66,72.3c-.18-1.87-.29-4.06-.29-6.48l-3.54.21a49.43,49.43,0,0,1-.56,9A10.48,10.48,0,0,0,158.66,72.3Z" transform="translate(-24.62 -1.72)"/><path class="cls-14" d="M152.36,76.78a20.62,20.62,0,0,0,3,8.94s4.42-3.28,5.69-8.25l-1.43-.2L154,76.72Z" transform="translate(-24.62 -1.72)"/><path class="cls-11" d="M155.59,91.58s1.17-7.1,1.64-8.24,3.85-13,4.36-14a22.81,22.81,0,0,0,3.89-.82l-2.71,9.22Z" transform="translate(-24.62 -1.72)"/><path class="cls-11" d="M155.59,91.58l-1.36-8.48s-2.68-10.46-3-11.4l-3.37-2.53a65.48,65.48,0,0,0,2.29,7.56C150.93,78.28,155.59,91.58,155.59,91.58Z" transform="translate(-24.62 -1.72)"/><path class="cls-12" d="M155.66,91.58c0,3.39.08,6.79.07,10.18l0,5.09c0,1.7,0,3.39-.12,5.08v.13l0,.07c-.19.46-.37.94-.54,1.4-.08.23-.16.46-.22.68l-.06.25c0,.07,0,.24,0,.36.09,1,.16,2,.16,3.08l-.13,0c-.34-1-.62-2-.88-3a3.85,3.85,0,0,1-.1-.4,1.67,1.67,0,0,1,0-.51,6.5,6.5,0,0,1,.14-.81c.11-.53.26-1,.41-1.53l0,.2c0-1.7.05-3.39.18-5.09l.31-5.08c.18-3.38.43-6.77.66-10.16Z" transform="translate(-24.62 -1.72)"/><path class="cls-12" d="M155.32,124.12l-.4,2.39v-.08l.8,2.55v.08c.12,4,.21,8,.22,12s.05,8-.09,12-.29,8-.34,12,0,8,0,12c.19,8,.17,16,.11,24-.05,4-.14,8-.31,12s-.34,8-.66,12l-.19-.31a19,19,0,0,0,3.19,1.2,22.69,22.69,0,0,0,3.38.66v.13a19.41,19.41,0,0,1-3.48-.38,16.66,16.66,0,0,1-3.39-1l-.18-.09v-.23l.25-23.95c.18-8,.3-16,.61-24,.13-4,.21-8,.21-12s-.15-8-.23-12-.07-8,0-12,.14-8,.26-12v.07l-.58-2.61v-.08l.62-2.34Z" transform="translate(-24.62 -1.72)"/><path class="cls-12" d="M148,111a21.9,21.9,0,0,1,2.95,1.19,12.69,12.69,0,0,0,1.41.75,6.24,6.24,0,0,0,1.54.4c1.06.13,2.08.33,3.13.48s2.06.39,3.11.69v.08a10.42,10.42,0,0,1-3.25,0,12.56,12.56,0,0,1-3.11-.89,13.75,13.75,0,0,0-1.51-.57c-.51-.15-1.05-.23-1.57-.39a7,7,0,0,1-2.74-1.73Z" transform="translate(-24.62 -1.72)"/><path class="cls-12" d="M165.34,109.48a8.29,8.29,0,0,1-3,1.28c-.54.11-1.08.15-1.62.23s-1.07.19-1.6.3a16.16,16.16,0,0,1-3.26.32,14.05,14.05,0,0,1-3.23-.45v0c1.1,0,2.16,0,3.24-.06s2.13,0,3.22,0a9.7,9.7,0,0,0,1.6-.19,11.46,11.46,0,0,0,1.54-.48l3.09-.9Z" transform="translate(-24.62 -1.72)"/><path class="cls-12" d="M174.21,79.94a2.3,2.3,0,0,1,0,1l-.1,1-.27,1.9c-.19,1.26-.4,2.51-.62,3.77-.43,2.51-.92,5-1.42,7.5l-1.55,7.49c-.51,2.49-1.06,5-1.73,7.44l0-.15a9.21,9.21,0,0,0,0,1,3.43,3.43,0,0,0,.08.48,2.25,2.25,0,0,0,.1.31l.18.24-.06.25a4.53,4.53,0,0,1-.27.81,2.06,2.06,0,0,1-.21.42,1.21,1.21,0,0,1-.43.47l.21-.63a13.76,13.76,0,0,1,.42,1.65,4.84,4.84,0,0,1,.08,1.8,2.77,2.77,0,0,1-1.13,1.42,8.4,8.4,0,0,1-1.43.87l-.07-.11a12.66,12.66,0,0,0,1.21-1.09,2.68,2.68,0,0,0,.75-1.23,4.58,4.58,0,0,0-.27-1.45c-.17-.5-.36-1-.55-1.5l.21-.63s0,0,.06-.11l.11-.28c.06-.2.12-.44.16-.65l.12.49a2,2,0,0,1-.36-.73,3.88,3.88,0,0,1-.14-.64,7.29,7.29,0,0,1-.1-1.23v-.07l0-.08c.57-2.48,1.22-4.93,1.87-7.39s1.25-4.93,1.84-7.4l1.74-7.42c.29-1.24.56-2.48.82-3.73l.35-1.87a7.42,7.42,0,0,0,.19-1.82Z" transform="translate(-24.62 -1.72)"/><path class="cls-12" d="M140.34,224.82c3.43.93,6.87,1.84,10.33,2.58a41.63,41.63,0,0,0,5.23.72c1.76.13,3.54.26,5.3.32l-.54.53-.1-2.43,0-.59.6,0c4.13.26,8.27.39,12.4.42,2.07,0,4.14,0,6.19-.15a30.71,30.71,0,0,0,6.08-.84l-.25.38c-.49-4.39-1.09-8.77-1.68-13.15s-1.3-8.75-2-13.11l-4.35-26.17-2.19-13.08L173,147.23q-1.14-6.54-2.42-13c-.43-2.17-.9-4.32-1.4-6.47a39.42,39.42,0,0,0-1.89-6.33l.12-.06a40,40,0,0,1,2.26,6.26c.64,2.12,1.16,4.27,1.69,6.43,1,4.3,1.94,8.64,2.81,13s1.64,8.7,2.4,13.06,1.48,8.72,2.14,13.09c1.38,8.75,2.55,17.52,3.72,26.28l1.78,13.15c.66,4.37,1.3,8.75,2,13.12l0,.29-.29.1a30.91,30.91,0,0,1-6.21,1.11c-2.09.2-4.17.3-6.26.31s-4.17,0-6.25-.08-4.16-.22-6.24-.39l.57-.55.07,2.43,0,.56-.55,0c-1.79-.09-3.57-.21-5.35-.44a43.48,43.48,0,0,1-5.3-.91c-1.74-.42-3.45-.93-5.15-1.47s-3.39-1.09-5.06-1.7Z" transform="translate(-24.62 -1.72)"/><path class="cls-12" d="M165.53,68.55c-.8,3.11-1.59,6.21-2.43,9.31v0l0,0c-1.16,2.32-2.24,4.68-3.42,7-.6,1.15-1.26,2.27-1.91,3.39s-1.36,2.22-2.11,3.29l-.09,0c.44-1.23.95-2.43,1.47-3.62s1.08-2.36,1.68-3.51c1.22-2.29,2.53-4.53,3.77-6.82l0,.07c1-3.06,2-6.1,3-9.15Z" transform="translate(-24.62 -1.72)"/><path class="cls-12" d="M155.54,91.58c-.57-2.8-1.14-5.61-1.67-8.42v0L153,80.38c-.28-.94-.58-1.87-.81-2.82s-.44-1.91-.62-2.88-.34-2-.43-3l.1,0c.41.89.75,1.82,1.09,2.74s.62,1.87.88,2.82.48,1.92.7,2.88l.66,2.89v0h0c.38,2.84.72,5.68,1,8.53Z" transform="translate(-24.62 -1.72)"/><path class="cls-20" d="M158.66,71.43a21.62,21.62,0,0,1,1.9-5.57c1.24-2.13,2.58-4.15,2.26-5.58a4.31,4.31,0,0,1-.07,2.7,7.06,7.06,0,0,0,1.9-6s-.83-10.45-10.36-10.61c-4.75-.08,3.35,9.33,3.35,9.33L157,62.86l.11,4.37Z" transform="translate(-24.62 -1.72)"/><path class="cls-21" d="M162.48,54.09A11.61,11.61,0,0,1,164,58.51a6.31,6.31,0,0,1-.07,2.41A4.63,4.63,0,0,1,162.78,63l-.07,0a19.05,19.05,0,0,0,.49-2.2,14.51,14.51,0,0,0,.2-2.2,10.68,10.68,0,0,0-.3-2.24,11.36,11.36,0,0,0-.69-2.19Z" transform="translate(-24.62 -1.72)"/><path class="cls-22" d="M144.29,62.87s.49,0,.71.85-.28,1.23-.6,1.32.09,1.94.4,2.21c0,0,.11.39-.41.19s-1-2.31-1.06-3.33S143.8,62.85,144.29,62.87Z" transform="translate(-24.62 -1.72)"/><path class="cls-14" d="M143.73,53s-1.61,2.53-.47,7.68c.9,4.07,3.67,11.07,7.4,13.27a12.35,12.35,0,0,0,8.67-9.77c1.49-8-2.09-14.6-8-14.35C145.29,50.11,143.73,53,143.73,53Z" transform="translate(-24.62 -1.72)"/><path class="cls-14" d="M159,60.77s.74-3.09,1.32-3,1.3,1.17,1.58,1.9-.64,3.33-1,3.76S159.11,63.24,159,60.77Z" transform="translate(-24.62 -1.72)"/><path class="cls-20" d="M149,51.84s1,4.73,3.68,5.82,3.67,1.19,3.34,3.57c0,0,1.08-1.71.11-2.8s-3.19-1.18-3.71-3.34S149.65,51,149,51.84Z" transform="translate(-24.62 -1.72)"/><path class="cls-23" d="M146.49,50.87s.33,2.2-2.9,5.31-.83,4.14.34,8.18-3,5.45-.76,8.6,1.78,5.29,1,5.7c0,0,1.58-1.14-1-4.49s-1.31-4.54-1-6.34a6.71,6.71,0,0,0-1.92-5.6c-1.39-1.14-2.95-3.39-1.34-5.88s2-3.63,1.89-5.12c-.24-2.68,3.67-4,7.9-3.61,0,0,3.48-2.43,7-.8s6.89,7.44,4.83,11.49-2.44,4.73.05,7.53,1.75,5.39-.3,7.13c0,0,2.72-2.77.21-5.52s-3.82-2.87-3.85-4.45,1.51-3.89.15-6S148.75,56.8,146.49,50.87Z" transform="translate(-24.62 -1.72)"/><circle class="cls-17" cx="136.07" cy="62.02" r="0.82"/><path class="cls-15" d="M148.19,61.89a13.68,13.68,0,0,1-.74,2.76l1.67.32-.93-.64Z" transform="translate(-24.62 -1.72)"/><path class="cls-21" d="M155.17,46.56a8.53,8.53,0,0,1,5.44,5.28,14.82,14.82,0,0,1,.68,3.83,9.68,9.68,0,0,1-1.08,3.72,6.3,6.3,0,0,0-1.05,3.52c.11,1.21,1.15,2,2,3.08a5.19,5.19,0,0,1,1.27,3.72,5.35,5.35,0,0,1-2,3.28l0,0A5.53,5.53,0,0,0,162,69.67a5,5,0,0,0-1.29-3.35c-.37-.5-.84-.93-1.24-1.48a3.7,3.7,0,0,1-.77-1.88,6.36,6.36,0,0,1,1.28-3.7,7.51,7.51,0,0,0,1.16-3.58A12.27,12.27,0,0,0,160.2,52a9.94,9.94,0,0,0-5-5.39Z" transform="translate(-24.62 -1.72)"/><path class="cls-21" d="M148.74,47.62a2.34,2.34,0,0,0-.62,1.33,2,2,0,0,0,.43,1.33A4.1,4.1,0,0,0,151,51.66c1.92.54,4,.74,5.9,1.91a3.68,3.68,0,0,1,1.69,2.8A6.32,6.32,0,0,1,158,59.5a15.85,15.85,0,0,0-1.07,2.81,2.81,2.81,0,0,0,.05,1.44,2.69,2.69,0,0,0,.89,1.18,2.55,2.55,0,0,1-1.08-1.1,3,3,0,0,1-.23-1.57,15.12,15.12,0,0,1,.88-3,6.29,6.29,0,0,0,.48-2.83,3,3,0,0,0-1.39-2.24c-1.61-1-3.71-1.3-5.65-2a8.32,8.32,0,0,1-1.45-.62,3.15,3.15,0,0,1-1.17-1.12,2.11,2.11,0,0,1,.5-2.87Z" transform="translate(-24.62 -1.72)"/><path class="cls-21" d="M146.49,50.87a7,7,0,0,1-2.12,4.7,13.25,13.25,0,0,1-2,1.77l-.54.38-.26.19a1.12,1.12,0,0,0-.2.18,1.74,1.74,0,0,0-.41,1c-.08,1.62,1.41,2.94,2.08,4.56a7,7,0,0,1,.74,2.54,4.69,4.69,0,0,1-.57,2.55,4.87,4.87,0,0,0,.32-2.52,7.08,7.08,0,0,0-.84-2.4c-.42-.74-.87-1.47-1.36-2.19a4.43,4.43,0,0,1-.89-2.57,2.27,2.27,0,0,1,.56-1.33,1.8,1.8,0,0,1,.29-.26l.27-.18.53-.36a18.29,18.29,0,0,0,2-1.66,9.55,9.55,0,0,0,1.57-2A5.52,5.52,0,0,0,146.49,50.87Z" transform="translate(-24.62 -1.72)"/><path class="cls-17" d="M146.91,61.26a2,2,0,0,0-1.71-1.32c-1.36-.08-1.72,1.68-1.57,2.23a6.43,6.43,0,0,0,2.22-.19A2,2,0,0,0,146.91,61.26Z" transform="translate(-24.62 -1.72)"/><path class="cls-17" d="M150.22,60.51a1.85,1.85,0,0,1,.84-2.23,2.26,2.26,0,0,1,3.09.9,3.43,3.43,0,0,1-1.91,1.42A3.15,3.15,0,0,1,150.22,60.51Z" transform="translate(-24.62 -1.72)"/><path d="M150.16,60.5a2.2,2.2,0,0,0,1.22.07,5,5,0,0,0,1.19-.38,5.83,5.83,0,0,0,1.05-.58c.33-.2.62-.54,1-.75l0,0a3.78,3.78,0,0,1-.74,1.11,2.87,2.87,0,0,1-1.23.59,5.63,5.63,0,0,1-1.3.24,2.37,2.37,0,0,1-1.28-.29Z" transform="translate(-24.62 -1.72)"/><path d="M146.93,61.27a1.72,1.72,0,0,1-.85.77,8,8,0,0,1-1.06.4,2.24,2.24,0,0,1-1.18.08,3.91,3.91,0,0,1-1.06-.42v-.05a10,10,0,0,1,1.1,0c.34,0,.67,0,1-.08a9.32,9.32,0,0,0,1.05-.22,1.69,1.69,0,0,0,.91-.51Z" transform="translate(-24.62 -1.72)"/><path class="cls-22" d="M160.06,60.53s-.48,0-.57.95.46,1.18.79,1.22.19,1.93-.08,2.24c0,0,0,.4.44.12s.69-2.43.56-3.44S160.55,60.44,160.06,60.53Z" transform="translate(-24.62 -1.72)"/><path class="cls-24" d="M148.74,67.41a.76.76,0,0,0,.94,0c.54-.37.95-.35,1.82-.13a2.55,2.55,0,0,0,2.34-.5,3.26,3.26,0,0,1-2.58,1.79,12,12,0,0,0-2.25.3,1.24,1.24,0,0,1-.71-.47C148.14,68.1,147.89,67.52,148.74,67.41Z" transform="translate(-24.62 -1.72)"/><path class="cls-25" d="M148.77,68.54a5,5,0,0,1,2.87-.55,2.78,2.78,0,0,0,2.2-1.24s-.63,5.08-4.56,3.29a4.78,4.78,0,0,0-.22-1.1A.78.78,0,0,0,148.77,68.54Z" transform="translate(-24.62 -1.72)"/><path class="cls-26" d="M151.66,68a5,5,0,0,0-2.41,1.84l0,.22c3.93,1.79,4.56-3.29,4.56-3.29A2.75,2.75,0,0,1,151.66,68Z" transform="translate(-24.62 -1.72)"/><path class="cls-24" d="M151.42,69.56a4.63,4.63,0,0,1-2.16.27l0-.16-.16.09s-.45.28,0,.79,1.92.22,3-.33a3.85,3.85,0,0,0,1.79-3.47A4.3,4.3,0,0,1,151.42,69.56Z" transform="translate(-24.62 -1.72)"/><path class="cls-22" d="M153.14,67.48a2.52,2.52,0,0,1-1.5.51,5,5,0,0,0-2.87.55c.06.18.1.25.16.4s.12.24.2.24a9.55,9.55,0,0,0,3-.58C153,68.15,153.13,67.84,153.14,67.48Z" transform="translate(-24.62 -1.72)"/><path class="cls-27" d="M154.89,57a8.68,8.68,0,0,0-1.58-.8,4.74,4.74,0,0,0-1.67-.4,3.63,3.63,0,0,0-1.59.34A2.31,2.31,0,0,0,149,57.36h0a1.89,1.89,0,0,1,.86-1.65,2.72,2.72,0,0,1,1.88-.34,5.17,5.17,0,0,1,1.75.59,9,9,0,0,1,1.51,1Z" transform="translate(-24.62 -1.72)"/><path class="cls-27" d="M142.38,60.05a2.31,2.31,0,0,1,.18-1.46,2.9,2.9,0,0,1,1-1.11,2.21,2.21,0,0,1,1.48-.41,1.76,1.76,0,0,1,1.32.73l0,0a2.53,2.53,0,0,0-1.29-.29,3.45,3.45,0,0,0-1.23.35,2.46,2.46,0,0,0-1,.85,2.19,2.19,0,0,0-.39,1.3Z" transform="translate(-24.62 -1.72)"/><path class="cls-11" d="M171.79,79.4S173.48,79,174,79s1.17,1.13,1.66,2.89,1.43,9.5,2.09,10.78,3.77,21.46,3.11,26.3c0,0-.21,1.35-1.38,1.43s-9-9.27-9-9.27l-.72-1.89a4.69,4.69,0,0,0,.82-1.15,101.55,101.55,0,0,0-1.08-15.56C168.52,87.33,170,79.77,171.79,79.4Z" transform="translate(-24.62 -1.72)"/><path class="cls-12" d="M171.77,79.34c.43-.15.87-.29,1.3-.42l.66-.2.17,0a.65.65,0,0,1,.31,0,1.06,1.06,0,0,1,.41.25,4.06,4.06,0,0,1,.86,1.22,8.74,8.74,0,0,1,.55,1.3,20.87,20.87,0,0,1,.63,2.69c.16.89.29,1.78.39,2.68l.27,2.68a18.87,18.87,0,0,0,.42,2.64,9.43,9.43,0,0,1,.4,1.3c.12.45.2.89.31,1.33l.61,2.64q.63,2.64,1.07,5.32c.3,1.78.59,3.56.78,5.36s.32,3.6.35,5.42a24.82,24.82,0,0,1-.37,5.44l-.13,0a50.73,50.73,0,0,0-.53-5.35l-.7-5.33c-.42-3.57-.83-7.14-1.18-10.72a20.59,20.59,0,0,0-1-5.26c-.53-1.76-1-3.51-1.35-5.28s-.56-3.59-.93-5.25a7.42,7.42,0,0,0-.93-2.32,1.53,1.53,0,0,0-.13-.13s0,0,0,0h-.17l-.66.07-1.35.11Z" transform="translate(-24.62 -1.72)"/><path class="cls-12" d="M172.17,109.52a11.64,11.64,0,0,1,3.34,1.54,5.73,5.73,0,0,1,1.45,1.19,4.2,4.2,0,0,1,.86,1.68l-.07,0c-.51-.39-.91-.81-1.36-1.19s-.8-.84-1.25-1.22a14.49,14.49,0,0,0-3-2Z" transform="translate(-24.62 -1.72)"/><path class="cls-12" d="M172.47,108.56a20.47,20.47,0,0,0,2.24-.23c.36-.06.7-.2,1-.23s.69,0,1.11-.08l0,.06a1.74,1.74,0,0,1-1,.78,3,3,0,0,1-1.19.09,9.79,9.79,0,0,1-2.29-.31Z" transform="translate(-24.62 -1.72)"/><path class="cls-13" d="M158,105.6a33.51,33.51,0,0,0-1.23,10.75c.31,5.91.74,6.88.74,6.88l2.83-6.23Z" transform="translate(-24.62 -1.72)"/><path class="cls-14" d="M149.6,105.11s12.38,10.46,18.87,13.07,10.67,1.1,10.55.36a11,11,0,0,0-5.74-6.18c-3.8-1.65-17.7-4.79-21.76-8.52C151.52,103.84,147.78,102.92,149.6,105.11Z" transform="translate(-24.62 -1.72)"/><path class="cls-11" d="M158,105.6a39.18,39.18,0,0,1-.49,17.63s21-1.61,22.22-1.61,1.1-2.94,1.1-2.94l-2.8-3.07a15.3,15.3,0,0,0-3.93-3.09l-2.48-1.35Z" transform="translate(-24.62 -1.72)"/><path class="cls-28" d="M160.53,64.84s-1.19,14.21-7.13,24.42a7.36,7.36,0,0,0,0,4.78c.82,3,5.07,21.44-.84,21s-4.42-9.18-5.79-12.47" transform="translate(-24.62 -1.72)"/><path class="cls-28" d="M144.51,67.26s.77,6.52,3.72,10.45a33.28,33.28,0,0,1,5.17,11.55" transform="translate(-24.62 -1.72)"/><path class="cls-14" d="M152.11,103.08a10.26,10.26,0,0,0-.12-3.23c-.35-1-3.91-2.47-4.57-3.38s-1-1.6-1.18-1.76-.87.2-.21,1.79,2.33,3.06,2.61,3.9S150.1,103.47,152.11,103.08Z" transform="translate(-24.62 -1.72)"/><path class="cls-29" d="M134,88.38l.66-.86a.57.57,0,0,1,.43-.23l7.31-.26a.63.63,0,0,1,.58.4l5.81,13.94a.79.79,0,0,1-.11.8l-.63.76-5.92-14.7a.39.39,0,0,0-.35-.25Z" transform="translate(-24.62 -1.72)"/><path class="cls-30" d="M147.87,103l-7.59.28a.32.32,0,0,1-.29-.21l-6-14.35a.36.36,0,0,1,.27-.51l7.59-.28a.32.32,0,0,1,.29.21l6,14.36A.34.34,0,0,1,147.87,103Z" transform="translate(-24.62 -1.72)"/><path class="cls-31" d="M138.12,90.21h0a.44.44,0,0,1-.42-.26l0-.07a.44.44,0,0,1,.39-.62h0a.43.43,0,0,1,.42.27l0,.06A.44.44,0,0,1,138.12,90.21Z" transform="translate(-24.62 -1.72)"/><path class="cls-14" d="M149.64,100.46s-6.37-.11-7-.27-1.35-3-3.27-4.27c0,0-.76-.38-1-.07s.33.9.45,1.26a13.25,13.25,0,0,1-.37,2.28c-.08.78.23,1.11.46,2.84s.06,2.6.38,2.88,5.81.32,9.75.9,3.53-3.45,2.83-4.84S149.64,100.46,149.64,100.46Z" transform="translate(-24.62 -1.72)"/><ellipse class="cls-22" cx="195.81" cy="37.33" rx="1.32" ry="1.01" transform="translate(-27.59 20.79) rotate(-6.53)"/><line class="cls-32" x1="170.42" y1="43.69" x2="170.13" y2="35.65"/><path class="cls-22" d="M188.9,39.59c.37,0,.69.18.72.4a.45.45,0,0,1-.15.33,1.11,1.11,0,0,1-.59.26h-.14c-.37,0-.69-.18-.72-.4a.47.47,0,0,1,.15-.33,1.11,1.11,0,0,1,.59-.26h.14m0-.52h-.2c-.72.08-1.26.6-1.19,1.16a1.14,1.14,0,0,0,1.23.86h.2c.72-.08,1.26-.6,1.2-1.16a1.16,1.16,0,0,0-1.24-.86Z" transform="translate(-24.62 -1.72)"/><line class="cls-32" x1="164.97" y1="30.28" x2="165.26" y2="38.33"/><ellipse class="cls-22" cx="178.13" cy="48.73" rx="1.32" ry="1.01" transform="translate(-29 18.85) rotate(-6.53)"/><line class="cls-32" x1="154.28" y1="38.93" x2="154.57" y2="46.97"/><ellipse class="cls-22" cx="182.58" cy="47.55" rx="1.32" ry="1.01" transform="translate(-28.84 19.35) rotate(-6.53)"/><line class="cls-32" x1="158.73" y1="37.75" x2="159.02" y2="45.79"/><polygon class="cls-22" points="154.27 38.66 158.73 37.5 158.76 38.55 154.31 39.74 154.27 38.66"/><polygon class="cls-22" points="154.34 40.38 158.79 39.22 158.83 40.27 154.37 41.45 154.34 40.38"/><ellipse class="cls-22" cx="168.11" cy="46.25" rx="1.32" ry="1.01" transform="translate(-28.79 17.7) rotate(-6.53)"/><line class="cls-32" x1="144.26" y1="36.45" x2="144.55" y2="44.49"/><path class="cls-22" d="M171.84,41.42a3.72,3.72,0,0,0-.5-1,2.61,2.61,0,0,0-.79-.68,10.14,10.14,0,0,1-1-.66,1.89,1.89,0,0,1-.66-1.1,4.19,4.19,0,0,0,.95.66,10.57,10.57,0,0,1,1.09.52,2.14,2.14,0,0,1,.89,1A1.85,1.85,0,0,1,171.84,41.42Z" transform="translate(-24.62 -1.72)"/></g><path class="cls-33" d="M30.23,13.91A5.33,5.33,0,0,1,27,13a3.5,3.5,0,0,1-1.36-2.6h3.32a1,1,0,0,0,.32.6,1.21,1.21,0,0,0,.81.23,1.46,1.46,0,0,0,1.37-.69,4.22,4.22,0,0,0,.44-2,4.27,4.27,0,0,1-.41.52,2.12,2.12,0,0,1-.51.42,2.37,2.37,0,0,1-.69.27,3.6,3.6,0,0,1-.92.1,5.1,5.1,0,0,1-1.53-.23,3.49,3.49,0,0,1-1.24-.68,3.05,3.05,0,0,1-.82-1.15,4,4,0,0,1-.3-1.62,4.07,4.07,0,0,1,.34-1.66,3.76,3.76,0,0,1,1-1.29,4.46,4.46,0,0,1,1.52-.84,6.66,6.66,0,0,1,2-.29,5.79,5.79,0,0,1,2.3.42A4.33,4.33,0,0,1,34.19,3.7a5.08,5.08,0,0,1,1,1.8,7.91,7.91,0,0,1,.31,2.28V8.1a6.29,6.29,0,0,1-1.34,4.3A4.92,4.92,0,0,1,30.23,13.91Zm0-6.35a1.28,1.28,0,0,0,1-.42,1.44,1.44,0,0,0,.37-1,1.57,1.57,0,0,0-.36-1.06,1.25,1.25,0,0,0-1-.43,1.22,1.22,0,0,0-1,.43,1.57,1.57,0,0,0-.37,1.06,1.48,1.48,0,0,0,.36,1A1.23,1.23,0,0,0,30.22,7.56Z" transform="translate(-24.62 -1.72)"/><path class="cls-33" d="M38.39,9.37a1.78,1.78,0,0,1-.7-.14,1.75,1.75,0,0,1-.55-.36,1.47,1.47,0,0,1-.36-.53,1.72,1.72,0,0,1-.13-.68A1.75,1.75,0,0,1,36.78,7a1.54,1.54,0,0,1,.36-.55,1.69,1.69,0,0,1,1.25-.5,1.88,1.88,0,0,1,.72.13,1.8,1.8,0,0,1,.58.37,1.65,1.65,0,0,1,.51,1.23,1.72,1.72,0,0,1-.13.68,1.66,1.66,0,0,1-.38.53,1.78,1.78,0,0,1-.58.36A1.89,1.89,0,0,1,38.39,9.37Zm0,4.54a1.66,1.66,0,0,1-1.25-.49,1.69,1.69,0,0,1-.49-1.24A1.64,1.64,0,0,1,37.14,11a1.67,1.67,0,0,1,1.25-.5,1.89,1.89,0,0,1,.72.14,1.65,1.65,0,0,1,.58.37,1.6,1.6,0,0,1,.38.54,1.76,1.76,0,0,1-.38,1.9A1.78,1.78,0,0,1,38.39,13.91Z" transform="translate(-24.62 -1.72)"/><path class="cls-33" d="M46.06,13.93a5.33,5.33,0,0,1-3.66-1.06,4,4,0,0,1-1.25-3h3.21a1.85,1.85,0,0,0,.39,1.06,1.29,1.29,0,0,0,1.08.4,1.4,1.4,0,0,0,1-.3,1.12,1.12,0,0,0,.31-.86,1.15,1.15,0,0,0-.32-.87,1.45,1.45,0,0,0-1-.29h-.92V6.82h.87a1.53,1.53,0,0,0,1-.29,1.07,1.07,0,0,0,.34-.86A1,1,0,0,0,46.84,5,1.22,1.22,0,0,0,46,4.68a1.2,1.2,0,0,0-.92.34,1.85,1.85,0,0,0-.43,1h-3.2a5.07,5.07,0,0,1,.38-1.6,3.54,3.54,0,0,1,.89-1.24,4,4,0,0,1,1.41-.8,6.43,6.43,0,0,1,2-.28A5.58,5.58,0,0,1,49.35,3a2.72,2.72,0,0,1,1.17,2.32A2.35,2.35,0,0,1,50,6.85a2.94,2.94,0,0,1-1.45.89,2.76,2.76,0,0,1,1.63.84,2.43,2.43,0,0,1,.61,1.7,3.64,3.64,0,0,1-.3,1.49,3,3,0,0,1-.9,1.15,4,4,0,0,1-1.48.74A7,7,0,0,1,46.06,13.93Z" transform="translate(-24.62 -1.72)"/><path class="cls-33" d="M57.08,13.93a6.23,6.23,0,0,1-2.22-.38,4.63,4.63,0,0,1-1.69-1.1,4.84,4.84,0,0,1-1.06-1.79,7.22,7.22,0,0,1-.37-2.43V7.78a6.58,6.58,0,0,1,.42-2.43A4.91,4.91,0,0,1,53.3,3.58,4.79,4.79,0,0,1,55,2.48a6,6,0,0,1,2.14-.38,6.41,6.41,0,0,1,2.12.35,4.49,4.49,0,0,1,1.72,1,4.92,4.92,0,0,1,1.16,1.74,6.62,6.62,0,0,1,.42,2.47v.44a7.46,7.46,0,0,1-.38,2.45,5.11,5.11,0,0,1-1.11,1.83,4.7,4.7,0,0,1-1.73,1.12A6.32,6.32,0,0,1,57.08,13.93Zm.11-2.79a1.44,1.44,0,0,0,1.37-.71A4.68,4.68,0,0,0,59,8.21V7.79a4.54,4.54,0,0,0-.42-2.22,1.49,1.49,0,0,0-1.39-.71,1.51,1.51,0,0,0-1.4.7,4.49,4.49,0,0,0-.42,2.22v.44a4.49,4.49,0,0,0,.42,2.22A1.54,1.54,0,0,0,57.19,11.14Z" transform="translate(-24.62 -1.72)"/><path class="cls-33" d="M72.25,13.93a5.58,5.58,0,0,1-3.88-1.23A4.78,4.78,0,0,1,67,9V2.28h3.61V8.86a5.5,5.5,0,0,0,.08,1,1.92,1.92,0,0,0,.24.7,1.12,1.12,0,0,0,.5.41,2,2,0,0,0,.8.14,1.35,1.35,0,0,0,1.28-.55,3.51,3.51,0,0,0,.32-1.69V2.28H77.5V9a6,6,0,0,1-.37,2.23,4,4,0,0,1-1,1.54,4.31,4.31,0,0,1-1.66.9A7.7,7.7,0,0,1,72.25,13.93Z" transform="translate(-24.62 -1.72)"/><path class="cls-33" d="M79.21,1.72h3.15v5a3,3,0,0,1,1-1.12,3.12,3.12,0,0,1,1.74-.45,3,3,0,0,1,1.09.19,2.26,2.26,0,0,1,.85.58,2.78,2.78,0,0,1,.55,1,4.19,4.19,0,0,1,.2,1.36v5.5H84.67V8.92a1.57,1.57,0,0,0-.25-1,1,1,0,0,0-.81-.32,1.22,1.22,0,0,0-.92.35,1.58,1.58,0,0,0-.33,1.11v4.62H79.21Z" transform="translate(-24.62 -1.72)"/><path class="cls-33" d="M89.27,5.35h3.16v1.7a2.81,2.81,0,0,1,1.07-1.4,2.88,2.88,0,0,1,1.61-.41V8.18a3.49,3.49,0,0,0-2,.35,1.46,1.46,0,0,0-.68,1.33v3.86H89.27Z" transform="translate(-24.62 -1.72)"/><path class="cls-33" d="M24.62,18.13h1.94L30.09,27l3.42-8.91h1.92V29.57H34V19.94l-3.79,9.63h-.43L25.9,19.94v9.63H24.62Z" transform="translate(-24.62 -1.72)"/><path class="cls-33" d="M39.08,19.46a.89.89,0,0,1-.88-.88.88.88,0,0,1,.26-.63.91.91,0,0,1,1.25,0,.87.87,0,0,1,.25.63.84.84,0,0,1-.25.62A.86.86,0,0,1,39.08,19.46Zm-.64,1.74h1.33v8.37H38.44Z" transform="translate(-24.62 -1.72)"/><path class="cls-33" d="M45.23,29.68a2.19,2.19,0,0,1-1.71-.61,2.25,2.25,0,0,1-.55-1.6V22.32h-1.2V21.2H43V19.3H44.3v1.9h2v1.12h-2v5c0,.81.34,1.21,1,1.21a2.38,2.38,0,0,0,.56,0,3.45,3.45,0,0,0,.46-.12v1.12a2.8,2.8,0,0,1-.46.12A3.15,3.15,0,0,1,45.23,29.68Z" transform="translate(-24.62 -1.72)"/><path class="cls-33" d="M52.89,18.13h1.94L58.36,27l3.43-8.91h1.92V29.57h-1.4V19.94l-3.79,9.63h-.43l-3.92-9.63v9.63H52.89Z" transform="translate(-24.62 -1.72)"/><path class="cls-33" d="M69.51,29.71a3.66,3.66,0,0,1-1.16-.17,2.38,2.38,0,0,1-.92-.57,2.81,2.81,0,0,1-.6-1,4.24,4.24,0,0,1-.23-1.47V21.2h1.33v5.26a2.36,2.36,0,0,0,.47,1.62,1.91,1.91,0,0,0,1.47.51,2.54,2.54,0,0,0,.86-.14A2,2,0,0,0,72,27.29a2.4,2.4,0,0,0,.19-1V21.2H73.5v8.37H72.17V28.24a2.5,2.5,0,0,1-1,1A3,3,0,0,1,69.51,29.71Z" transform="translate(-24.62 -1.72)"/><path class="cls-33" d="M79,29.71A3.56,3.56,0,0,1,76.61,29a2.67,2.67,0,0,1-.92-2H77a1.8,1.8,0,0,0,.52,1.18,2,2,0,0,0,1.44.43,2.35,2.35,0,0,0,1.4-.32,1.2,1.2,0,0,0,.43-1,1,1,0,0,0-.49-.94,4.73,4.73,0,0,0-1.46-.46,8.17,8.17,0,0,1-1.38-.34,2.93,2.93,0,0,1-.9-.49,1.66,1.66,0,0,1-.48-.69,2.43,2.43,0,0,1-.16-.94,2,2,0,0,1,.26-1,2.42,2.42,0,0,1,.66-.73,3,3,0,0,1,.92-.45,3.41,3.41,0,0,1,1-.15,4.68,4.68,0,0,1,1.07.12,2.65,2.65,0,0,1,.92.41,2.38,2.38,0,0,1,.68.76,2.89,2.89,0,0,1,.35,1.14H80.49a1.65,1.65,0,0,0-.55-1,2,2,0,0,0-1.21-.31,1.85,1.85,0,0,0-1.15.33,1,1,0,0,0-.43.86,1.4,1.4,0,0,0,.08.49.88.88,0,0,0,.32.35,2.26,2.26,0,0,0,.6.27,6.29,6.29,0,0,0,.95.21c.42.09.82.18,1.18.28a3.39,3.39,0,0,1,.94.42,1.85,1.85,0,0,1,.61.69A2.46,2.46,0,0,1,82,27.17,2.34,2.34,0,0,1,81.27,29,3.35,3.35,0,0,1,79,29.71Z" transform="translate(-24.62 -1.72)"/><path class="cls-33" d="M84.92,19.46a.89.89,0,0,1-.88-.88A.88.88,0,0,1,84.3,18a.84.84,0,0,1,.62-.25.85.85,0,0,1,.88.88.84.84,0,0,1-.25.62A.88.88,0,0,1,84.92,19.46Zm-.64,1.74h1.33v8.37H84.28Z" transform="translate(-24.62 -1.72)"/><path class="cls-33" d="M88.52,17.2h1.33v7.86l3.47-3.86h1.55l-3.58,3.89,3.89,4.48H93.56l-3.71-4.34v4.34H88.52Z" transform="translate(-24.62 -1.72)"/><path class="cls-33" d="M36.32,45.57a3.83,3.83,0,0,1-1.09-.15,2.27,2.27,0,0,1-.89-.45,2,2,0,0,1-.59-.76,2.53,2.53,0,0,1-.22-1.11,2.06,2.06,0,0,1,.35-1.21,2.62,2.62,0,0,1,.94-.8,4.49,4.49,0,0,1,1.34-.44,9,9,0,0,1,1.56-.14h1.2v-.6a2.08,2.08,0,0,0-.41-1.44A1.86,1.86,0,0,0,37.13,38c-1.15,0-1.79.5-1.92,1.49H33.88a3.07,3.07,0,0,1,.36-1.22,2.65,2.65,0,0,1,.75-.81,3.27,3.27,0,0,1,1-.44,5.08,5.08,0,0,1,1.18-.14,5,5,0,0,1,1.15.14,2.33,2.33,0,0,1,1,.48,2.39,2.39,0,0,1,.67.92,3.42,3.42,0,0,1,.26,1.45v5.52H38.92V44.37a3.11,3.11,0,0,1-1.07.89A3.44,3.44,0,0,1,36.32,45.57Zm.12-1.06a3.16,3.16,0,0,0,1-.14,2.38,2.38,0,0,0,.78-.39,1.87,1.87,0,0,0,.52-.63,1.84,1.84,0,0,0,.19-.86v-1H37.77a7.09,7.09,0,0,0-1.16.09,3.29,3.29,0,0,0-.93.28,1.51,1.51,0,0,0-.6.51,1.25,1.25,0,0,0-.22.77,1.46,1.46,0,0,0,.35,1A1.62,1.62,0,0,0,36.44,44.51Z" transform="translate(-24.62 -1.72)"/><path class="cls-33" d="M45.88,45.57a3.66,3.66,0,0,1-1.16-.18,2.38,2.38,0,0,1-.92-.57,2.67,2.67,0,0,1-.6-1A4.2,4.2,0,0,1,43,42.35v-5.3H44.3v5.26a2.36,2.36,0,0,0,.47,1.62,1.92,1.92,0,0,0,1.47.52,2.55,2.55,0,0,0,.86-.15,2.12,2.12,0,0,0,.74-.43,2.23,2.23,0,0,0,.51-.72,2.62,2.62,0,0,0,.19-1v-5.1h1.33v8.37H48.54V44.09a2.65,2.65,0,0,1-1,1A3.05,3.05,0,0,1,45.88,45.57Z" transform="translate(-24.62 -1.72)"/><path class="cls-33" d="M53,38.17h-1.2V37.05H53V35.69a2.87,2.87,0,0,1,.63-2,2.37,2.37,0,0,1,1.87-.7,2.66,2.66,0,0,1,.53,0,2.42,2.42,0,0,1,.46.12V34.3a2.64,2.64,0,0,0-.42-.13,3,3,0,0,0-.52,0,1.08,1.08,0,0,0-.94.39,1.83,1.83,0,0,0-.28,1v1.49h2v1.12h-2v7.25H53Z" transform="translate(-24.62 -1.72)"/><path class="cls-33" d="M65.87,45.57a4.1,4.1,0,0,1-1.51-.28,3.25,3.25,0,0,1-1.2-.82,3.73,3.73,0,0,1-.79-1.31,5.06,5.06,0,0,1-.28-1.75v-.13a5.2,5.2,0,0,1,.29-1.76,4.33,4.33,0,0,1,.8-1.39,3.56,3.56,0,0,1,1.23-.9A3.93,3.93,0,0,1,66,36.91a3.05,3.05,0,0,1,1.71.44,3.29,3.29,0,0,1,1,1V33.05h1.33V45.42H68.73V44a2.59,2.59,0,0,1-.48.59,3.45,3.45,0,0,1-.68.51,4.21,4.21,0,0,1-.81.35A3.06,3.06,0,0,1,65.87,45.57ZM66,44.45a3.24,3.24,0,0,0,1.09-.19,2.4,2.4,0,0,0,.88-.59,2.86,2.86,0,0,0,.58-1,4,4,0,0,0,.22-1.4v-.12a3.42,3.42,0,0,0-.71-2.38A2.58,2.58,0,0,0,66.12,38a2.43,2.43,0,0,0-2,.83,3.53,3.53,0,0,0-.7,2.35v.13a4.1,4.1,0,0,0,.2,1.38,2.62,2.62,0,0,0,.54,1,2.2,2.2,0,0,0,.81.58A2.72,2.72,0,0,0,66,44.45Z" transform="translate(-24.62 -1.72)"/><path class="cls-33" d="M76.36,45.57a4.3,4.3,0,0,1-1.63-.31,3.87,3.87,0,0,1-1.28-.85,3.91,3.91,0,0,1-.84-1.34,4.81,4.81,0,0,1-.3-1.74V41.2a5.12,5.12,0,0,1,.29-1.74,3.94,3.94,0,0,1,.81-1.36,3.64,3.64,0,0,1,1.24-.88,3.91,3.91,0,0,1,1.58-.31,4.53,4.53,0,0,1,1.41.23,3.26,3.26,0,0,1,1.2.74,3.52,3.52,0,0,1,.84,1.29A5.31,5.31,0,0,1,80,41.1v.43h-6.3a3.3,3.3,0,0,0,.72,2.17,2.5,2.5,0,0,0,2,.75c1.31,0,2.05-.48,2.22-1.43h1.33a2.75,2.75,0,0,1-1.18,1.9A4.2,4.2,0,0,1,76.36,45.57Zm2.28-5.14a2.64,2.64,0,0,0-.73-1.84A2.45,2.45,0,0,0,76.23,38a2.3,2.3,0,0,0-1.67.64,3.12,3.12,0,0,0-.82,1.76Z" transform="translate(-24.62 -1.72)"/><path class="cls-33" d="M82.22,37.05h1.33v1.28a2.46,2.46,0,0,1,.93-1A2.8,2.8,0,0,1,86,36.91a3,3,0,0,1,1.47.36,2.16,2.16,0,0,1,1,1.21,2.48,2.48,0,0,1,.54-.7,3.67,3.67,0,0,1,.72-.49,4,4,0,0,1,.8-.28,3.3,3.3,0,0,1,.8-.1,3.22,3.22,0,0,1,1.08.18,2.16,2.16,0,0,1,.89.57,3,3,0,0,1,.62,1,4.69,4.69,0,0,1,.23,1.55v5.18H92.84v-5.3a2.34,2.34,0,0,0-.45-1.6A1.72,1.72,0,0,0,91.07,38a2.46,2.46,0,0,0-.81.14,2.2,2.2,0,0,0-.71.41,2.32,2.32,0,0,0-.5.71,2.4,2.4,0,0,0-.19,1v5.14H87.53v-5.3a2.28,2.28,0,0,0-.46-1.6A1.69,1.69,0,0,0,85.75,38a2.45,2.45,0,0,0-.8.14,2.2,2.2,0,0,0-.71.41,2.17,2.17,0,0,0-.5.71,2.4,2.4,0,0,0-.19,1v5.14H82.22Z" transform="translate(-24.62 -1.72)"/><path class="cls-33" d="M34.2,49.83h1.43L38,59.07l2.69-9.24h1l2.69,9.27,2.35-9.27H48L45,61.27H43.71l-2.59-9-2.68,9H37.18Z" transform="translate(-24.62 -1.72)"/><path class="cls-33" d="M52.83,61.42a4.08,4.08,0,0,1-1.63-.31,3.7,3.7,0,0,1-2.12-2.19,4.81,4.81,0,0,1-.3-1.74v-.13a5.12,5.12,0,0,1,.29-1.74A4,4,0,0,1,49.88,54a3.55,3.55,0,0,1,1.24-.88,4,4,0,0,1,1.58-.31,4.16,4.16,0,0,1,1.4.24,3.27,3.27,0,0,1,1.21.73,3.48,3.48,0,0,1,.84,1.3A5.22,5.22,0,0,1,56.46,57v.44h-6.3a3.29,3.29,0,0,0,.72,2.16,2.48,2.48,0,0,0,2,.75c1.32,0,2.06-.48,2.23-1.43H56.4a2.76,2.76,0,0,1-1.19,1.9A4.17,4.17,0,0,1,52.83,61.42Zm2.27-5.14a2.6,2.6,0,0,0-.73-1.84,2.44,2.44,0,0,0-1.67-.56,2.27,2.27,0,0,0-1.67.65,3.06,3.06,0,0,0-.83,1.75Z" transform="translate(-24.62 -1.72)"/><path class="cls-33" d="M62,64.33a5.47,5.47,0,0,1-1.61-.21,3.78,3.78,0,0,1-1.14-.55,2.52,2.52,0,0,1-.71-.82,2.88,2.88,0,0,1-.33-1H59.6c.19,1,1,1.46,2.41,1.46a2.93,2.93,0,0,0,2-.62,2.41,2.41,0,0,0,.73-2V59.42a3.12,3.12,0,0,1-.47.59,3.34,3.34,0,0,1-.67.5,4.88,4.88,0,0,1-.81.36,2.93,2.93,0,0,1-.88.13,4,4,0,0,1-1.52-.29,3.57,3.57,0,0,1-1.21-.83,3.75,3.75,0,0,1-.79-1.25,4.38,4.38,0,0,1-.29-1.6v-.11a4.59,4.59,0,0,1,.29-1.61,4.09,4.09,0,0,1,.8-1.32,3.7,3.7,0,0,1,1.23-.9A3.76,3.76,0,0,1,62,52.76a3.07,3.07,0,0,1,1.72.44,3.51,3.51,0,0,1,1,1V52.91H66v7.8a3.81,3.81,0,0,1-.31,1.6,3.13,3.13,0,0,1-.83,1.12,3.52,3.52,0,0,1-1.25.68A5.86,5.86,0,0,1,62,64.33Zm0-4.45a2.77,2.77,0,0,0,1.08-.2,2.35,2.35,0,0,0,.87-.57,2.63,2.63,0,0,0,.58-.92,3.52,3.52,0,0,0,.21-1.25v-.11A3.08,3.08,0,0,0,64,54.65a2.52,2.52,0,0,0-1.94-.77A2.87,2.87,0,0,0,61,54.1a2.35,2.35,0,0,0-.83.62,2.6,2.6,0,0,0-.52.94,3.77,3.77,0,0,0-.19,1.2V57a3.28,3.28,0,0,0,.21,1.22,2.86,2.86,0,0,0,.56.91,2.21,2.21,0,0,0,.81.57A2.45,2.45,0,0,0,62,59.88Z" transform="translate(-24.62 -1.72)"/><path class="cls-33" d="M72.14,61.08l4.94-7H72.62V52.91h6.51v.24l-4.83,7h4.77v1.16H72.14Z" transform="translate(-24.62 -1.72)"/><path class="cls-33" d="M83.9,61.42a3.62,3.62,0,0,1-1.16-.18,2.2,2.2,0,0,1-.92-.57,2.69,2.69,0,0,1-.61-1A4.22,4.22,0,0,1,81,58.2V52.91h1.33v5.25a2.31,2.31,0,0,0,.47,1.62,1.86,1.86,0,0,0,1.46.52,2.57,2.57,0,0,0,.87-.15,2.07,2.07,0,0,0,.73-.43,2,2,0,0,0,.51-.72,2.44,2.44,0,0,0,.2-1V52.91h1.32v8.36H86.56V60a2.78,2.78,0,0,1-1,1A3.1,3.1,0,0,1,83.9,61.42Z" transform="translate(-24.62 -1.72)"/><path class="cls-33" d="M90.76,52.91h1.33v1.5a4.35,4.35,0,0,1,.44-.65,2.74,2.74,0,0,1,.57-.51,2.59,2.59,0,0,1,.75-.34,3.68,3.68,0,0,1,1-.15V54a5.49,5.49,0,0,0-1.13.16,2.09,2.09,0,0,0-.87.43,1.93,1.93,0,0,0-.56.81,3.82,3.82,0,0,0-.19,1.27v4.59H90.76Z" transform="translate(-24.62 -1.72)"/><path class="cls-33" d="M53.31,65.68h1.82L59,77.12H57.63l-1.12-3.28H51.79l-1.11,3.28H49.37Zm-1.14,7h4l-2-5.88Z" transform="translate(-24.62 -1.72)"/><path class="cls-33" d="M61.11,68.76h1.33v1.5a4.94,4.94,0,0,1,.44-.65,3.06,3.06,0,0,1,.57-.51,2.59,2.59,0,0,1,.75-.34,3.68,3.68,0,0,1,1-.15v1.25a6.28,6.28,0,0,0-1.13.16,2.22,2.22,0,0,0-.87.43,2,2,0,0,0-.56.81,3.82,3.82,0,0,0-.19,1.27v4.59H61.11Z" transform="translate(-24.62 -1.72)"/><path class="cls-33" d="M71.48,77.27a3.22,3.22,0,0,1-1.74-.45,3.28,3.28,0,0,1-1.09-1.07v1.37H67.32V64.76h1.33v5.4a3.07,3.07,0,0,1,.47-.58,3.77,3.77,0,0,1,.67-.5,3.85,3.85,0,0,1,.8-.34,3.24,3.24,0,0,1,.89-.13A4,4,0,0,1,73,68.9a3.4,3.4,0,0,1,1.21.83A3.92,3.92,0,0,1,75,71.06a5.11,5.11,0,0,1,.29,1.76V73A5.4,5.4,0,0,1,75,74.7a4.16,4.16,0,0,1-.77,1.37,3.42,3.42,0,0,1-1.2.89A4,4,0,0,1,71.48,77.27Zm-.13-1.12a2.31,2.31,0,0,0,1.91-.81A3.58,3.58,0,0,0,73.91,73v-.13a4.12,4.12,0,0,0-.2-1.37,3,3,0,0,0-.56-1,2.15,2.15,0,0,0-.81-.59,2.62,2.62,0,0,0-1-.2,3.14,3.14,0,0,0-1.08.19,2.26,2.26,0,0,0-.87.58,2.68,2.68,0,0,0-.58,1,4.19,4.19,0,0,0-.21,1.39V73a4.48,4.48,0,0,0,.2,1.39,2.83,2.83,0,0,0,.56,1,2.26,2.26,0,0,0,.87.58A3.42,3.42,0,0,0,71.35,76.15Z" transform="translate(-24.62 -1.72)"/><path class="cls-33" d="M81,77.27A4.08,4.08,0,0,1,79.34,77a3.73,3.73,0,0,1-1.28-.85,3.82,3.82,0,0,1-.84-1.34,4.81,4.81,0,0,1-.3-1.74V72.9a5.12,5.12,0,0,1,.29-1.74A4,4,0,0,1,78,69.8a3.68,3.68,0,0,1,1.24-.88,4.08,4.08,0,0,1,1.58-.31,4.16,4.16,0,0,1,1.4.24,3.2,3.2,0,0,1,1.21.73,3.48,3.48,0,0,1,.84,1.3,5.22,5.22,0,0,1,.31,1.92v.44H78.3A3.29,3.29,0,0,0,79,75.4a2.5,2.5,0,0,0,2,.75c1.31,0,2.05-.48,2.22-1.43h1.33a2.74,2.74,0,0,1-1.19,1.9A4.17,4.17,0,0,1,81,77.27Zm2.27-5.14a2.55,2.55,0,0,0-.73-1.84,2.43,2.43,0,0,0-1.67-.56,2.27,2.27,0,0,0-1.67.65,3,3,0,0,0-.82,1.75Z" transform="translate(-24.62 -1.72)"/><path class="cls-33" d="M87.5,67a.87.87,0,1,1,.62-.25A.85.85,0,0,1,87.5,67Zm-.64,1.75h1.33v8.36H86.86Z" transform="translate(-24.62 -1.72)"/><path class="cls-33" d="M93.64,77.24a2.2,2.2,0,0,1-1.7-.61,2.29,2.29,0,0,1-.55-1.6V69.88h-1.2V68.76h1.2V66.85h1.32v1.91h2v1.12h-2v5c0,.81.35,1.22,1,1.22a3,3,0,0,0,.56-.05,3.62,3.62,0,0,0,.47-.13v1.12a2.91,2.91,0,0,1-.47.13A3.9,3.9,0,0,1,93.64,77.24Z" transform="translate(-24.62 -1.72)"/></g></g></svg>