<svg xmlns="http://www.w3.org/2000/svg" xmlns:xlink="http://www.w3.org/1999/xlink" viewBox="0 0 181.2 125.07"><defs><style>.cls-1{fill:none;}.cls-2{fill:#739fdd;}.cls-3{fill:#f7eae4;}.cls-4{clip-path:url(#clip-path);}.cls-5{fill:#ffc1a9;}.cls-6{fill:#db4f09;}.cls-7{fill:#603c2b;}.cls-8{fill:#3fd1b8;}.cls-9{fill:#ea916e;}.cls-10{fill:#ed6418;}.cls-11{fill:#f72300;}.cls-12{fill:#fff;}.cls-13{fill:#6b2b0f;}.cls-14{clip-path:url(#clip-path-2);}.cls-15{fill:#2b3f3b;}.cls-16{clip-path:url(#clip-path-3);}.cls-17{fill:#aa9d9b;}.cls-18{fill:#2c2e33;}.cls-19{fill:#423f3f;}.cls-20{fill:#ffcfc0;}.cls-21{fill:#105649;}.cls-22{fill:#d9955d;}.cls-23{fill:#494949;}.cls-24{fill:#6d6260;}.cls-25{fill:#3d4949;}.cls-26{fill:#505046;}</style><clipPath id="clip-path" transform="translate(-17.26 -1.72)"><circle class="cls-1" cx="144.8" cy="70.38" r="49.27"/></clipPath><clipPath id="clip-path-2" transform="translate(-17.26 -1.72)"><path class="cls-1" d="M143,44.24a1.85,1.85,0,0,0-2.32-1,2.34,2.34,0,0,0-1.49,1.56,2.55,2.55,0,0,0,2.2.27A2.8,2.8,0,0,0,143,44.24Z"/></clipPath><clipPath id="clip-path-3" transform="translate(-17.26 -1.72)"><path class="cls-1" d="M146.9,43.71s0-1.43,1.85-1.87a3.19,3.19,0,0,1,2.78.72,3.15,3.15,0,0,1-2.24,1.34A3.2,3.2,0,0,1,146.9,43.71Z"/></clipPath></defs><title>1030Uhr</title><g id="Ebene_2" data-name="Ebene 2"><g id="_10:30" data-name="10:30"><path class="cls-2" d="M196.36,120.57l-8.59-18a53.67,53.67,0,1,0-10.44,10.52Z" transform="translate(-17.26 -1.72)"/><circle class="cls-3" cx="127.54" cy="68.66" r="49.27"/><g class="cls-4"><path class="cls-5" d="M119.37,65s-5.5,31.09-5,34.81,1.85,6.17,3.37,6.8S122,104,122.69,98s.07-31.7-.61-34.66S119.84,62.34,119.37,65Z" transform="translate(-17.26 -1.72)"/><path class="cls-6" d="M155.74,57.05a21.07,21.07,0,0,1,2.5-6.21c1.63-2.32,3.36-4.52,3.12-6.19a4.89,4.89,0,0,1-.34,3.1A8.12,8.12,0,0,0,163.78,41s.06-12.06-10.85-13.16c-5.43-.55,2.94,11,2.94,11l-1.39,8.16-.3,5Z" transform="translate(-17.26 -1.72)"/><path class="cls-7" d="M161.58,37.53a13.3,13.3,0,0,1,1.34,5.21,7.38,7.38,0,0,1-.3,2.76,5.39,5.39,0,0,1-1.56,2.28l-.08-.06a20,20,0,0,0,.77-2.48,17.2,17.2,0,0,0,.45-2.5,13.38,13.38,0,0,0-.13-2.6,13.53,13.53,0,0,0-.57-2.58Z" transform="translate(-17.26 -1.72)"/><path class="cls-8" d="M176.19,67.39c-1-1.1-3.81-1.22-8-2.3-1.89,2.89-5.31,6.44-10.63,6.15a12.53,12.53,0,0,1-10.27-5.77,31.88,31.88,0,0,1-4.2.43s-2.73.64-3.83,5.34-1.91,8.93-1.91,8.93l41.14.32S177.71,69,176.19,67.39Z" transform="translate(-17.26 -1.72)"/><path class="cls-5" d="M157.57,71.24c5.32.29,8.74-3.26,10.63-6.15a41.75,41.75,0,0,1-7.31-2.63c-4.24-5.48-5-14.79-5-14.79s-6.43,1.65-4.73,5.69a52.35,52.35,0,0,1,2.35,10,17.4,17.4,0,0,1-6.23,2.13A12.53,12.53,0,0,0,157.57,71.24Z" transform="translate(-17.26 -1.72)"/><path class="cls-9" d="M155.91,47.67s-6.43,1.65-4.73,5.69a33.58,33.58,0,0,1,1.6,5.83A15.28,15.28,0,0,0,157.07,54,39.92,39.92,0,0,1,155.91,47.67Z" transform="translate(-17.26 -1.72)"/><path class="cls-5" d="M140.18,34.48s-2.09,2.75-1.28,8.77c.63,4.75,3.14,13,7.2,15.92A14.2,14.2,0,0,0,157,48.81c2.47-9.05-1-16.94-7.75-17.22C142.25,31.3,140.18,34.48,140.18,34.48Z" transform="translate(-17.26 -1.72)"/><path class="cls-5" d="M156.91,44.85s1.15-3.48,1.81-3.36,1.38,1.46,1.64,2.33-1.07,3.75-1.56,4.21S156.82,47.69,156.91,44.85Z" transform="translate(-17.26 -1.72)"/><path class="cls-6" d="M146.37,33.65s.67,5.51,3.66,7,4.08,1.72,3.48,4.42c0,0,1.41-1.86.4-3.19s-3.55-1.67-3.93-4.19S147.16,32.78,146.37,33.65Z" transform="translate(-17.26 -1.72)"/><path class="cls-10" d="M143.55,32.29s.17,2.55-3.84,5.81-1.35,4.67-.4,9.4-4,6-1.7,9.8,1.53,6.23.62,6.63c0,0,1.92-1.16-.7-5.24s-1.06-5.33-.53-7.37a7.7,7.7,0,0,0-1.66-6.6c-1.48-1.44-3.05-4.17-1-6.88s2.66-4,2.66-5.68c0-3.1,4.59-4.28,9.4-3.38,0,0,4.23-2.46,8.11-.24s7.18,9.19,4.42,13.64-3.25,5.19-.66,8.64,1.48,6.35-1,8.15c0,0,3.39-2.91.78-6.32s-4.11-3.66-4-5.47,2.1-4.31.75-6.88S145.57,39.3,143.55,32.29Z" transform="translate(-17.26 -1.72)"/><circle class="cls-8" cx="141.33" cy="46.7" r="0.95"/><path class="cls-9" d="M144.43,45.09a14.93,14.93,0,0,1-1.12,3.09l1.89.53-1-.82Z" transform="translate(-17.26 -1.72)"/><path class="cls-7" d="M153.92,28.19a9.79,9.79,0,0,1,5.72,6.58,16.75,16.75,0,0,1,.42,4.46,11.09,11.09,0,0,1-1.61,4.15,7.33,7.33,0,0,0-1.54,3.93c0,1.41,1.13,2.46,1.94,3.73a6,6,0,0,1,1.1,4.39A6.16,6.16,0,0,1,157.29,59l0-.05a6.42,6.42,0,0,0,2.24-3.6,5.81,5.81,0,0,0-1.16-4c-.38-.61-.88-1.16-1.28-1.82a4.26,4.26,0,0,1-.7-2.24c0-1.64,1-2.94,1.83-4.11a8.8,8.8,0,0,0,1.68-4,14.87,14.87,0,0,0-.69-4.3,11.46,11.46,0,0,0-5.28-6.67Z" transform="translate(-17.26 -1.72)"/><path class="cls-7" d="M146.44,28.78a2.64,2.64,0,0,0-.83,1.47,2.26,2.26,0,0,0,.36,1.56,4.72,4.72,0,0,0,2.72,1.82c2.15.81,4.54,1.24,6.59,2.76a5.51,5.51,0,0,1,.7.67,4.58,4.58,0,0,1,.52.83,4.43,4.43,0,0,1,.44,1.88,7.33,7.33,0,0,1-1.05,3.52,17.49,17.49,0,0,0-1.49,3.13,3.19,3.19,0,0,0-.09,1.65,3.13,3.13,0,0,0,.91,1.44,2.93,2.93,0,0,1-1.13-1.37,3.42,3.42,0,0,1-.12-1.82,17.73,17.73,0,0,1,1.3-3.33,7.11,7.11,0,0,0,.82-3.2,3.46,3.46,0,0,0-1.37-2.7c-1.75-1.34-4.13-1.85-6.29-2.82a9.46,9.46,0,0,1-1.6-.85,3.63,3.63,0,0,1-1.24-1.4,2.58,2.58,0,0,1-.21-1.83A2.48,2.48,0,0,1,146.44,28.78Z" transform="translate(-17.26 -1.72)"/><path class="cls-7" d="M143.55,32.29a8.14,8.14,0,0,1-2.89,5.18,14.85,14.85,0,0,1-2.42,1.84l-.66.39-.32.19a1,1,0,0,0-.24.18,1.92,1.92,0,0,0-.57,1.15c-.25,1.85,1.33,3.5,2,5.42a8.48,8.48,0,0,1,.6,3,5.47,5.47,0,0,1-.9,2.87,5.79,5.79,0,0,0,.61-2.87,8.47,8.47,0,0,0-.74-2.82,27.35,27.35,0,0,0-1.35-2.64,5,5,0,0,1-.76-3,2.49,2.49,0,0,1,.77-1.47,1.69,1.69,0,0,1,.36-.27l.32-.18.64-.37a18.44,18.44,0,0,0,2.41-1.71,11,11,0,0,0,2-2.15A6.47,6.47,0,0,0,143.55,32.29Z" transform="translate(-17.26 -1.72)"/><path class="cls-11" d="M144.57,50.55a.76.76,0,0,0,1,.13c.65-.37,1-.28,1.94.09s1.6.9,2.9.44a6.16,6.16,0,0,1-3.53,1.06,13.9,13.9,0,0,0-2.72.16s-.78-.29-.78-.76A1.08,1.08,0,0,1,144.57,50.55Z" transform="translate(-17.26 -1.72)"/><path class="cls-12" d="M143.94,52.08s.88-.91,3.38-.27a4.39,4.39,0,0,0,3.12-.6S149,57,144.63,54.54a3,3,0,0,0,0-1.39A4.05,4.05,0,0,0,143.94,52.08Z" transform="translate(-17.26 -1.72)"/><path class="cls-11" d="M144.68,54.2s-.76.32-.32.95,2.15.57,3.45,0a4.91,4.91,0,0,0,2.63-4,4.91,4.91,0,0,1-3.63,3.19C144.81,54.71,144.68,54.2,144.68,54.2Z" transform="translate(-17.26 -1.72)"/><path class="cls-8" d="M141.4,42.29a2.07,2.07,0,0,0-2.35,2,3.05,3.05,0,0,0,.16.56l3.81-.56S142.87,42.49,141.4,42.29Z" transform="translate(-17.26 -1.72)"/><path class="cls-8" d="M146.9,43.71a2.13,2.13,0,0,1,1.18-2.48,2.58,2.58,0,0,1,3.45,1.33Z" transform="translate(-17.26 -1.72)"/><path class="cls-12" d="M143,44.24a1.85,1.85,0,0,0-2.32-1,2.34,2.34,0,0,0-1.49,1.56,2.55,2.55,0,0,0,2.2.27A2.8,2.8,0,0,0,143,44.24Z" transform="translate(-17.26 -1.72)"/><path class="cls-12" d="M146.9,43.71s0-1.43,1.85-1.87a3.19,3.19,0,0,1,2.78.72,3.15,3.15,0,0,1-2.24,1.34A3.2,3.2,0,0,1,146.9,43.71Z" transform="translate(-17.26 -1.72)"/><path d="M146.86,43.91a2.25,2.25,0,0,1,.51-1.63,2.54,2.54,0,0,1,1.59-.8,2.82,2.82,0,0,1,1.75.35c.51.27.89.64,1.42.37l0,0a.83.83,0,0,1-.85.36,4.22,4.22,0,0,1-.85-.24A3.83,3.83,0,0,0,149,42a2.16,2.16,0,0,0-1.42.52,2.09,2.09,0,0,0-.66,1.42Z" transform="translate(-17.26 -1.72)"/><path d="M143.09,44.37a2.14,2.14,0,0,0-1-1.08,1.52,1.52,0,0,0-1.36.05,3.07,3.07,0,0,0-1.06.9,3.28,3.28,0,0,1-.59.59.78.78,0,0,1-.88,0v-.06c.6,0,.67-.38,1-.86a2.49,2.49,0,0,1,1.37-1,1.88,1.88,0,0,1,1.65.12,2.37,2.37,0,0,1,.92,1.31Z" transform="translate(-17.26 -1.72)"/><path class="cls-13" d="M152.59,40.13a11,11,0,0,0-1.73-1.07,5.77,5.77,0,0,0-1.88-.62,3.91,3.91,0,0,0-1.85.24A2.6,2.6,0,0,0,145.78,40h-.06a2.17,2.17,0,0,1,1.15-1.81,3.14,3.14,0,0,1,2.19-.2,6.07,6.07,0,0,1,1.95.84,10.26,10.26,0,0,1,1.62,1.3Z" transform="translate(-17.26 -1.72)"/><path class="cls-13" d="M138,42.41a2.7,2.7,0,0,1,.35-1.65,3.34,3.34,0,0,1,1.29-1.18,2.49,2.49,0,0,1,1.74-.32,2,2,0,0,1,1.44,1l-.05,0a2.81,2.81,0,0,0-1.45-.46,3.91,3.91,0,0,0-1.45.29,2.76,2.76,0,0,0-1.24.86,2.61,2.61,0,0,0-.57,1.46Z" transform="translate(-17.26 -1.72)"/><g class="cls-14"><circle class="cls-8" cx="124.07" cy="42.8" r="0.95"/><circle class="cls-15" cx="124.07" cy="42.8" r="0.52"/></g><g class="cls-16"><circle class="cls-8" cx="131.49" cy="41.62" r="0.95"/><circle class="cls-15" cx="131.49" cy="41.62" r="0.52"/></g><path class="cls-5" d="M117.23,58.76a11.41,11.41,0,0,0,.88-3.74c-.1-1-1.47-4-.76-5.86s1.24-.84,1.28.12a12.48,12.48,0,0,0,1.11,4.78c.92,1.91,2.2,5.78,1.92,7.69s-1.6,3.19-2.45,2.67S116.87,62.4,117.23,58.76Z" transform="translate(-17.26 -1.72)"/><path class="cls-5" d="M110.26,58.6s0-2.5,0-3.58.51-1.16.51-1.16.4-2.35.8-2.57,1.68-1,1.68-1,2.75-3.21,3.31-4,1.06.58.47,1.8-2.27,3.24-2.47,3.86.84,3,1.08,3.51,4.06,1.9,4.7,3.17,3,3.66.92,6.87c0,0-7.18-1.72-8.45-2.64a17.26,17.26,0,0,1-3-3.44Z" transform="translate(-17.26 -1.72)"/><path class="cls-17" d="M119.26,39.51h.23a.31.31,0,0,1,.31.31v2.49a0,0,0,0,1,0,0h-.86a0,0,0,0,1,0,0V39.82A.31.31,0,0,1,119.26,39.51Z" transform="translate(-0.23 -34.63) rotate(16.89)"/><path class="cls-18" d="M120.09,41.43c0-.28-.72-.51-.72-.51s-.69-.18-.89,0c0,0-1.57,4.93-3,10l1.6.49C118.66,46.4,120.09,41.43,120.09,41.43Z" transform="translate(-17.26 -1.72)"/><path class="cls-19" d="M113,61.42l.19.06c.81-1.12,2.24-5.15,3.58-9.3l-1.58-.48C114,55.9,113,60,113,61.42Z" transform="translate(-17.26 -1.72)"/><path class="cls-17" d="M116.81,52.18l.24-.75-1.6-.49c-.07.25-.14.5-.22.76Z" transform="translate(-17.26 -1.72)"/><path class="cls-17" d="M119.93,42s.6-.29.71.22-2,3.69-1.86,4.83a1.56,1.56,0,0,0,.16.56s-.12.18-.22,0-.36-.54,0-1.62,1.68-3.26,1.64-3.71c0,0-.23-.25-.55.15Z" transform="translate(-17.26 -1.72)"/><path class="cls-20" d="M121.26,65.47s.21-2.28-2.82-3.45-5.37-.75-6.32-1.06a3.27,3.27,0,0,1-1.54-1.57s1.48.37,2.07-.51c0,0,.32-.66-.72-.58s-2.26-.23-2.44,0a2.51,2.51,0,0,0-.43,1.15,14.47,14.47,0,0,0,3.88,4.44C114.16,64.46,120.86,66.46,121.26,65.47Z" transform="translate(-17.26 -1.72)"/><path class="cls-21" d="M178.5,80.49c-.33-2.44-.64-4.89-1.05-7.31-.22-1.2-.42-2.42-.72-3.59a8.57,8.57,0,0,0-.59-1.66,2,2,0,0,0-1.25-.91,30,30,0,0,0-3.54-.88c-1.2-.26-2.41-.52-3.6-.89a34.4,34.4,0,0,1-6.86-2.79,52.85,52.85,0,0,0,7,2.26c1.2.27,2.39.55,3.6.78a29,29,0,0,1,3.64.85,2.74,2.74,0,0,1,1.62,1.26,10,10,0,0,1,.61,1.82A31,31,0,0,1,178,73.1,70.36,70.36,0,0,1,178.5,80.49Z" transform="translate(-17.26 -1.72)"/><rect class="cls-22" x="83.62" y="111.28" width="89.18" height="13.79"/><path class="cls-8" d="M116.46,82.44c-1.22,7.79-2.31,15.62-2.06,17.37.53,3.72,1.85,6.17,3.37,6.8S122,104,122.69,98A150.13,150.13,0,0,0,123,83,32.72,32.72,0,0,1,116.46,82.44Z" transform="translate(-17.26 -1.72)"/><path class="cls-23" d="M103.18,107.3h60.62a1.73,1.73,0,0,1,1.73,1.73v2.25a0,0,0,0,1,0,0H101.45a0,0,0,0,1,0,0V109A1.73,1.73,0,0,1,103.18,107.3Z"/><path class="cls-17" d="M105,67.21h57a2,2,0,0,1,2,2v42.05a0,0,0,0,1,0,0H103a0,0,0,0,1,0,0V69.23A2,2,0,0,1,105,67.21Z"/><rect class="cls-24" x="103" y="108.02" width="60.99" height="3.26"/><circle class="cls-24" cx="133.49" cy="89.24" r="1.78"/><path class="cls-25" d="M122.28,68.93l12.77-.23,12.77-.13,25.54-.11h4.79a8,8,0,0,1,1.71.09,2.45,2.45,0,0,1,1.5,1.15,2.49,2.49,0,0,1,.3.92,6.3,6.3,0,0,1,0,.85v3.19c0,4.26,0,8.52-.07,12.78l-.13,12.77L181.25,113,181,100.23l-.13-12.77c-.06-4.26,0-8.52-.07-12.78V71.49a2.35,2.35,0,0,0-.21-1.33,1.59,1.59,0,0,0-1-.73,7.6,7.6,0,0,0-1.48-.05h-4.79l-25.54-.11-12.77-.13Z" transform="translate(-17.26 -1.72)"/><path class="cls-25" d="M190.06,113c-3.72.17-7.44.24-11.15.36l-11.15.21c-7.43.14-14.86.16-22.29.18s-14.87,0-22.3-.18l-11.14-.2c-3.72-.13-7.44-.2-11.15-.37,3.71-.17,7.43-.24,11.15-.37l11.14-.2c7.43-.14,14.87-.16,22.3-.18s14.86,0,22.29.18l11.15.21C182.62,112.76,186.34,112.83,190.06,113Z" transform="translate(-17.26 -1.72)"/></g><path class="cls-26" d="M19.37,5.85,17.26,7.11v-3l2.62-1.82H23V13.72H19.37Z" transform="translate(-17.26 -1.72)"/><path class="cls-26" d="M30,13.93a6.23,6.23,0,0,1-2.22-.38,4.55,4.55,0,0,1-1.69-1.1A4.84,4.84,0,0,1,25,10.66a7.22,7.22,0,0,1-.37-2.43V7.78A6.8,6.8,0,0,1,25,5.35a5.07,5.07,0,0,1,1.15-1.77,4.79,4.79,0,0,1,1.71-1.1A6,6,0,0,1,30,2.1a6.41,6.41,0,0,1,2.12.35,4.49,4.49,0,0,1,1.72,1A4.92,4.92,0,0,1,35,5.23a6.62,6.62,0,0,1,.42,2.47v.44a7.46,7.46,0,0,1-.38,2.45A5.11,5.11,0,0,1,34,12.42a4.7,4.7,0,0,1-1.73,1.12A6.32,6.32,0,0,1,30,13.93Zm.11-2.79a1.44,1.44,0,0,0,1.37-.71,4.68,4.68,0,0,0,.41-2.22V7.79a4.54,4.54,0,0,0-.42-2.22,1.73,1.73,0,0,0-2.79,0,4.49,4.49,0,0,0-.42,2.22v.44a4.49,4.49,0,0,0,.42,2.22A1.53,1.53,0,0,0,30.07,11.14Z" transform="translate(-17.26 -1.72)"/><path class="cls-26" d="M38.39,9.37a1.78,1.78,0,0,1-.7-.14,1.75,1.75,0,0,1-.55-.36,1.47,1.47,0,0,1-.36-.53,1.72,1.72,0,0,1-.13-.68A1.75,1.75,0,0,1,36.78,7a1.54,1.54,0,0,1,.36-.55,1.69,1.69,0,0,1,1.25-.5,1.88,1.88,0,0,1,.72.13,1.8,1.8,0,0,1,.58.37,1.65,1.65,0,0,1,.51,1.23,1.72,1.72,0,0,1-.13.68,1.66,1.66,0,0,1-.38.53,1.78,1.78,0,0,1-.58.36A1.89,1.89,0,0,1,38.39,9.37Zm0,4.54a1.66,1.66,0,0,1-1.25-.49,1.69,1.69,0,0,1-.49-1.24A1.64,1.64,0,0,1,37.14,11a1.67,1.67,0,0,1,1.25-.5,1.89,1.89,0,0,1,.72.14,1.65,1.65,0,0,1,.58.37,1.6,1.6,0,0,1,.38.54,1.76,1.76,0,0,1-.38,1.9A1.78,1.78,0,0,1,38.39,13.91Z" transform="translate(-17.26 -1.72)"/><path class="cls-26" d="M46.06,13.93a5.33,5.33,0,0,1-3.66-1.06,4,4,0,0,1-1.25-3h3.21a1.85,1.85,0,0,0,.39,1.06,1.29,1.29,0,0,0,1.08.4,1.4,1.4,0,0,0,1-.3,1.12,1.12,0,0,0,.31-.86,1.15,1.15,0,0,0-.32-.87,1.45,1.45,0,0,0-1-.29h-.92V6.82h.87a1.53,1.53,0,0,0,1-.29,1.07,1.07,0,0,0,.34-.86A1,1,0,0,0,46.84,5,1.22,1.22,0,0,0,46,4.68a1.2,1.2,0,0,0-.92.34,1.85,1.85,0,0,0-.43,1h-3.2a5.07,5.07,0,0,1,.38-1.6,3.54,3.54,0,0,1,.89-1.24,4,4,0,0,1,1.41-.8,6.43,6.43,0,0,1,2-.28A5.58,5.58,0,0,1,49.35,3a2.72,2.72,0,0,1,1.17,2.32A2.35,2.35,0,0,1,50,6.85a2.87,2.87,0,0,1-1.45.89,2.76,2.76,0,0,1,1.63.84,2.43,2.43,0,0,1,.61,1.7,3.64,3.64,0,0,1-.3,1.49,3,3,0,0,1-.9,1.15,4,4,0,0,1-1.48.74A7,7,0,0,1,46.06,13.93Z" transform="translate(-17.26 -1.72)"/><path class="cls-26" d="M57.08,13.93a6.23,6.23,0,0,1-2.22-.38,4.63,4.63,0,0,1-1.69-1.1,4.84,4.84,0,0,1-1.06-1.79,7.22,7.22,0,0,1-.37-2.43V7.78a6.58,6.58,0,0,1,.42-2.43A4.91,4.91,0,0,1,53.3,3.58,4.79,4.79,0,0,1,55,2.48a6,6,0,0,1,2.14-.38,6.41,6.41,0,0,1,2.12.35,4.61,4.61,0,0,1,1.73,1,5,5,0,0,1,1.15,1.74,6.62,6.62,0,0,1,.42,2.47v.44a7.46,7.46,0,0,1-.38,2.45,5.11,5.11,0,0,1-1.11,1.83,4.7,4.7,0,0,1-1.73,1.12A6.29,6.29,0,0,1,57.08,13.93Zm.11-2.79a1.44,1.44,0,0,0,1.37-.71A4.68,4.68,0,0,0,59,8.21V7.79a4.54,4.54,0,0,0-.42-2.22,1.49,1.49,0,0,0-1.39-.71,1.51,1.51,0,0,0-1.4.7,4.49,4.49,0,0,0-.42,2.22v.44a4.49,4.49,0,0,0,.42,2.22A1.54,1.54,0,0,0,57.19,11.14Z" transform="translate(-17.26 -1.72)"/><path class="cls-26" d="M72.25,13.93a5.58,5.58,0,0,1-3.88-1.23A4.77,4.77,0,0,1,67,9V2.28h3.61V8.86a5.42,5.42,0,0,0,.08,1,1.76,1.76,0,0,0,.25.7,1,1,0,0,0,.49.41,1.88,1.88,0,0,0,.8.14,1.35,1.35,0,0,0,1.28-.55,3.51,3.51,0,0,0,.32-1.69V2.28H77.5V9a6,6,0,0,1-.37,2.23,4,4,0,0,1-1,1.54,4.31,4.31,0,0,1-1.66.9A7.7,7.7,0,0,1,72.25,13.93Z" transform="translate(-17.26 -1.72)"/><path class="cls-26" d="M79.21,1.72h3.15v5a3.06,3.06,0,0,1,1-1.12,3.12,3.12,0,0,1,1.74-.45,3,3,0,0,1,1.09.19,2.26,2.26,0,0,1,.85.58,2.78,2.78,0,0,1,.55,1,4.19,4.19,0,0,1,.2,1.36v5.5H84.67V8.92a1.57,1.57,0,0,0-.25-1,1,1,0,0,0-.81-.32,1.22,1.22,0,0,0-.92.35,1.58,1.58,0,0,0-.33,1.11v4.62H79.21Z" transform="translate(-17.26 -1.72)"/><path class="cls-26" d="M89.27,5.35h3.16v1.7a2.81,2.81,0,0,1,1.07-1.4,2.88,2.88,0,0,1,1.61-.41V8.18a3.49,3.49,0,0,0-2,.35,1.46,1.46,0,0,0-.68,1.33v3.86H89.27Z" transform="translate(-17.26 -1.72)"/><path class="cls-26" d="M61.4,18.13h3.44a6.8,6.8,0,0,1,1.48.15,3.09,3.09,0,0,1,1.16.48,2.35,2.35,0,0,1,.77.91,3.3,3.3,0,0,1,.27,1.42v.06a2.77,2.77,0,0,1-.37,1.43,2.36,2.36,0,0,1-1.35,1,3.05,3.05,0,0,1,1.76,1,2.77,2.77,0,0,1,.52,1.78v.06a3.46,3.46,0,0,1-.26,1.42,2.58,2.58,0,0,1-.76,1,3.4,3.4,0,0,1-1.19.59,5.6,5.6,0,0,1-1.55.2H61.4Zm3.44,5a2.68,2.68,0,0,0,1.8-.48,1.93,1.93,0,0,0,.52-1.51v-.07a1.6,1.6,0,0,0-.57-1.38,3.05,3.05,0,0,0-1.78-.42H62.76v3.86Zm.45,5.34a2.71,2.71,0,0,0,1.84-.53,2,2,0,0,0,.59-1.57v-.07a1.9,1.9,0,0,0-.61-1.55,3.22,3.22,0,0,0-2-.5H62.76v4.22Z" transform="translate(-17.26 -1.72)"/><path class="cls-26" d="M74.28,29.72a3.66,3.66,0,0,1-1.16-.18A2.38,2.38,0,0,1,72.2,29a2.82,2.82,0,0,1-.61-1,4.46,4.46,0,0,1-.22-1.47V21.2H72.7v5.26a2.36,2.36,0,0,0,.47,1.62,1.91,1.91,0,0,0,1.46.52,2.57,2.57,0,0,0,.87-.15,2.09,2.09,0,0,0,1.25-1.16,2.57,2.57,0,0,0,.19-1V21.2h1.33v8.37H76.94V28.24a2.65,2.65,0,0,1-1,1A3.08,3.08,0,0,1,74.28,29.72Zm-.93-10.29a.86.86,0,0,1-.6-.25.85.85,0,0,1-.24-.6.83.83,0,0,1,.24-.6.82.82,0,0,1,.6-.25A.79.79,0,0,1,74,18a.8.8,0,0,1,.25.6.85.85,0,0,1-.85.85Zm3,0a.85.85,0,0,1-.85-.85.84.84,0,0,1,.25-.6.82.82,0,0,1,.6-.25A.79.79,0,0,1,77,18a.8.8,0,0,1,.25.6.85.85,0,0,1-.85.85Z" transform="translate(-17.26 -1.72)"/><path class="cls-26" d="M81.15,21.2h1.32v1.51a4.35,4.35,0,0,1,.44-.65,2.74,2.74,0,0,1,.57-.51,2.88,2.88,0,0,1,.75-.35,4.16,4.16,0,0,1,1-.14v1.25a5.5,5.5,0,0,0-1.14.16,2.09,2.09,0,0,0-.87.43,1.83,1.83,0,0,0-.55.81,3.52,3.52,0,0,0-.2,1.27v4.59H81.15Z" transform="translate(-17.26 -1.72)"/><path class="cls-26" d="M90.59,29.72a4.22,4.22,0,0,1-1.65-.32,4,4,0,0,1-1.3-.89,4.25,4.25,0,0,1-.85-1.35,4.75,4.75,0,0,1-.3-1.7v-.13a4.63,4.63,0,0,1,.31-1.73,4.1,4.1,0,0,1,.86-1.35A3.75,3.75,0,0,1,89,21.37a4.52,4.52,0,0,1,3.29,0,4,4,0,0,1,1.31.87,4.14,4.14,0,0,1,.85,1.35,4.59,4.59,0,0,1,.31,1.73v.12a4.68,4.68,0,0,1-.31,1.74,3.83,3.83,0,0,1-2.17,2.22A4.21,4.21,0,0,1,90.59,29.72Zm0-1.12a2.8,2.8,0,0,0,1.14-.23,2.37,2.37,0,0,0,.86-.63,2.93,2.93,0,0,0,.55-1,4.3,4.3,0,0,0,.19-1.28v-.11A4.45,4.45,0,0,0,93.15,24a2.86,2.86,0,0,0-.56-1,2.37,2.37,0,0,0-.86-.64,2.75,2.75,0,0,0-1.13-.22,2.78,2.78,0,0,0-1.13.22,2.32,2.32,0,0,0-.87.64,3,3,0,0,0-.54,1,4.08,4.08,0,0,0-.19,1.3v.13a3.41,3.41,0,0,0,.72,2.28A2.52,2.52,0,0,0,90.6,28.6Z" transform="translate(-17.26 -1.72)"/></g></g></svg>