<svg xmlns="http://www.w3.org/2000/svg" xmlns:xlink="http://www.w3.org/1999/xlink" viewBox="0 0 265.02 176.77"><defs><style>.cls-1{fill:none;}.cls-2{fill:#739fdd;}.cls-3{clip-path:url(#clip-path);}.cls-4{fill:#f7eae4;}.cls-5{fill:url(#linear-gradient);}.cls-6{fill:url(#linear-gradient-2);}.cls-7{fill:url(#linear-gradient-3);}.cls-8{fill:url(#linear-gradient-4);}.cls-9{fill:#7fa5d6;}.cls-10{fill:#679ac9;}.cls-11{fill:#83b2e5;}.cls-12{fill:#608bbd;}.cls-13{fill:#3d4949;}.cls-14,.cls-37,.cls-55{fill:#fff;}.cls-14{opacity:0.25;}.cls-15{fill:#7a868c;}.cls-16{fill:#a7b1b7;}.cls-17{fill:#3d3235;}.cls-18{fill:#493f42;}.cls-19{fill:#f7a543;}.cls-20{fill:#e27133;}.cls-21{fill:#f9c041;}.cls-22{fill:#4aedcd;}.cls-23{fill:#105649;}.cls-24{fill:#ffc1a9;}.cls-25{fill:#ea916e;}.cls-26{fill:#6d6260;}.cls-27{fill:#aa9d9b;}.cls-28{fill:#423f3f;}.cls-29{fill:#35383f;}.cls-30{fill:#2c2e33;}.cls-31{fill:#3fd1b8;}.cls-32{fill:#915b36;}.cls-33{fill:#ce895b;}.cls-34{fill:#db4f09;}.cls-35{fill:#ed6418;}.cls-36{fill:#603c2b;}.cls-38{fill:#f72300;}.cls-39{fill:#2b3f3b;}.cls-40{fill:#6b2b0f;}.cls-41{fill:#d62b2b;}.cls-42{fill:#c41e1e;}.cls-43{fill:#ffe9e9;}.cls-44{fill:#ffc84d;}.cls-45{fill:#85db42;}.cls-46{fill:#9ef95c;}.cls-47{fill:#93573f;}.cls-48{fill:#ffb966;}.cls-49{fill:url(#linear-gradient-5);}.cls-50{fill:#d9955d;}.cls-51{fill:#e3b18a;}.cls-52{fill:#cc8556;}.cls-53{fill:#b87b4d;}.cls-54{fill:#d7dddc;}.cls-55{opacity:0.5;}.cls-56{fill:#bbf2ff;opacity:0.95;}.cls-57{fill:#27a2ed;}.cls-58{fill:#1381d3;}.cls-59{fill:#bc784a;}.cls-60{fill:#505046;}</style><clipPath id="clip-path"><circle class="cls-1" cx="114.17" cy="54.19" r="49.27"/></clipPath><linearGradient id="linear-gradient" x1="50.47" y1="-2.54" x2="50.47" y2="142.79" gradientUnits="userSpaceOnUse"><stop offset="0" stop-color="#6abaff"/><stop offset="0.09" stop-color="#72beff"/><stop offset="0.23" stop-color="#88c8ff"/><stop offset="0.4" stop-color="#abd8ff"/><stop offset="0.59" stop-color="#dcefff"/><stop offset="0.72" stop-color="#fff"/></linearGradient><linearGradient id="linear-gradient-2" x1="100.73" y1="-2.54" x2="100.73" y2="142.79" xlink:href="#linear-gradient"/><linearGradient id="linear-gradient-3" x1="150.99" y1="-2.54" x2="150.99" y2="142.79" xlink:href="#linear-gradient"/><linearGradient id="linear-gradient-4" x1="201.24" y1="-2.54" x2="201.24" y2="142.79" xlink:href="#linear-gradient"/><linearGradient id="linear-gradient-5" x1="165.34" y1="82.46" x2="168.26" y2="96.18" gradientUnits="userSpaceOnUse"><stop offset="0" stop-color="#89ff63"/><stop offset="0.18" stop-color="#8dfd5f"/><stop offset="0.36" stop-color="#9af655"/><stop offset="0.55" stop-color="#afeb43"/><stop offset="0.75" stop-color="#cddb2a"/><stop offset="0.94" stop-color="#f2c70b"/><stop offset="1" stop-color="#ffc000"/></linearGradient></defs><title>12Uhr</title><g id="Ebene_2" data-name="Ebene 2"><g id="_12:00" data-name="12:00"><path class="cls-2" d="M112.19,126.12l7.45-18.55a53.87,53.87,0,1,0-14.82-.55Z"/><g class="cls-3"><rect class="cls-4" width="258.17" height="145.22"/><rect class="cls-5" x="27.56" width="45.83" height="121.69"/><rect class="cls-6" x="77.82" width="45.83" height="121.69"/><rect class="cls-7" x="128.07" width="45.83" height="121.69"/><rect class="cls-8" x="178.33" width="45.83" height="121.69"/><rect class="cls-9" x="27.56" y="60.89" width="20.66" height="60.8"/><rect class="cls-10" x="48.22" y="77.43" width="36.5" height="44.26" transform="translate(132.94 199.12) rotate(180)"/><rect class="cls-11" x="65.09" y="47.82" width="24.93" height="73.87" transform="translate(155.12 169.51) rotate(180)"/><rect class="cls-12" x="90.03" y="55.53" width="12.63" height="66.16"/><rect class="cls-9" x="90.03" y="65.4" width="64.47" height="56.29"/><rect class="cls-9" x="167.22" y="71.57" width="43.22" height="50.12"/><rect class="cls-10" x="167.22" y="64.08" width="34.02" height="7.49"/><rect class="cls-12" x="210.43" y="83.69" width="13.72" height="38" transform="translate(434.59 205.38) rotate(180)"/><rect class="cls-10" x="98.11" y="83.81" width="64.47" height="37.88"/><rect class="cls-11" x="146.95" y="32.35" width="20.4" height="89.34"/><polygon class="cls-13" points="224.16 0 224.16 121.69 178.33 121.69 178.33 0 173.9 0 173.9 121.69 128.07 121.69 128.07 0 123.64 0 123.64 121.69 77.81 121.69 77.81 0 73.39 0 73.39 121.69 27.56 121.69 27.56 0 23.2 0 23.2 125.81 228.52 125.81 228.52 0 224.16 0"/><polygon class="cls-14" points="178.33 37.55 224.16 13.36 224.16 0 178.33 0 178.33 37.55"/><polygon class="cls-14" points="128.07 64.08 173.9 39.89 173.9 0 128.07 0 128.07 64.08"/><polygon class="cls-14" points="77.81 90.61 123.64 66.42 123.64 0 77.81 0 77.81 90.61"/><polygon class="cls-14" points="27.56 117.14 73.39 92.95 73.39 0 27.56 0 27.56 117.14"/><rect class="cls-15" x="26.27" width="98.74" height="33.48"/><rect class="cls-16" x="26.27" y="33.48" width="98.74" height="2.24"/><rect class="cls-15" x="126.71" width="98.74" height="47.57"/><polygon class="cls-17" points="119.74 121.17 119.38 147.13 122.64 146.89 124.32 120.06 119.74 121.17"/><polygon class="cls-18" points="122.33 125.28 125.07 151.1 128.28 150.48 126.74 123.64 122.33 125.28"/><polygon class="cls-18" points="96.48 122.23 90.03 147.37 93.25 147.91 101.19 122.23 96.48 122.23"/><polygon class="cls-17" points="142.69 123.6 151.65 147.96 154.61 146.57 146.56 120.93 142.69 123.6"/><path class="cls-19" d="M94.53,121.5s14.77,3.59,22.69,3.22,12-12.87,13.35-17.08,4.65-10.9,12.51-13.55,18.65-6.08,19-12.68-25.62-6.36-34.74-1-13.24,14.66-21.72,17.33c-3.18,1-6.19,1.73-8.31,4.15C93.78,105.94,92.42,113,94.53,121.5Z"/><path class="cls-20" d="M117.22,124.72c5.4-.25,9-6.14,11.19-11.19a73.16,73.16,0,0,0-33.61,8l-.08.06C96.47,122,109.83,125.07,117.22,124.72Z"/><path class="cls-21" d="M119.35,83.36C108.91,94.3,107.06,95.16,99.2,98s-9,16.82-5.84,24.93c0,0,9.8,3.88,29.58,4s26.24-4,28.95-7.86,11.24-24.69,12.91-36.31S129.78,72.42,119.35,83.36Zm42.72-2c-.34,6.6-11.14,10-19,12.68s-11.16,9.34-12.51,13.55-5.42,16.71-13.35,17.08-22.69-3.22-22.69-3.22c-2.11-8.51-.75-15.56,2.77-19.59,2.12-2.42,5.13-3.15,8.31-4.15,8.48-2.67,12.6-11.94,21.72-17.33S162.41,74.81,162.07,81.41Z"/><path class="cls-13" d="M93.38,122.82a66.78,66.78,0,0,0,12.13,2.65,122.19,122.19,0,0,0,12.38,1c4.15.12,8.29.09,12.42-.18a56.59,56.59,0,0,0,12.18-2,21.35,21.35,0,0,0,5.57-2.43,11.3,11.3,0,0,0,4.08-4.3,104.14,104.14,0,0,0,5-11.32c1.48-3.86,2.83-7.78,4.05-11.72a93.88,93.88,0,0,0,2.95-12v0l0-.07a3.46,3.46,0,0,0-.14-1.81A4.53,4.53,0,0,0,163,79a9.9,9.9,0,0,0-3.57-2.22,31.55,31.55,0,0,0-8.68-1.65,60.94,60.94,0,0,0-9,.1,55.45,55.45,0,0,0-8.89,1.33l0-.13a50.43,50.43,0,0,1,8.87-1.83,62.35,62.35,0,0,1,9.07-.45,31.6,31.6,0,0,1,9.05,1.51,11,11,0,0,1,4.08,2.44,5.12,5.12,0,0,1,1.54,4.76l0-.1a80.06,80.06,0,0,1-3,12.19c-1.26,4-2.7,7.89-4.25,11.75-.78,1.93-1.58,3.86-2.44,5.76s-1.72,3.79-2.76,5.63a12.48,12.48,0,0,1-4.45,4.59,23,23,0,0,1-5.83,2.47A58.5,58.5,0,0,1,130.35,127c-4.16.22-8.32.17-12.48,0s-8.3-.58-12.41-1.19a66.63,66.63,0,0,1-12.13-2.86Z"/><path class="cls-22" d="M116.16,51.54A3.18,3.18,0,0,0,114.05,54c-.54,2.09-3.67,15.81-5.83,19.17a54.09,54.09,0,0,1-3.13,4.55v.91s-2.38,3.75-1.71,7S105.76,89,107.73,88s8.47-13.8,10.18-18.9,2.06-11.7,1.3-14S117.41,51.5,116.16,51.54Z"/><path class="cls-23" d="M107.7,87.94a6.33,6.33,0,0,0,1.43-1.65c.41-.62.8-1.25,1.16-1.9.74-1.29,1.43-2.6,2.09-3.94q2-4,3.72-8.09a40.3,40.3,0,0,0,1.46-4.16c.38-1.4.71-2.83,1-4.27a40,40,0,0,0,.62-4.37c.08-.73.12-1.46.13-2.2a10.12,10.12,0,0,0-.12-2.2l.11,0a12.86,12.86,0,0,1,.73,4.47,34.22,34.22,0,0,1-.27,4.53,26.08,26.08,0,0,1-1,4.43,41.93,41.93,0,0,1-1.71,4.2q-1.89,4.08-4.07,8-1.11,2-2.32,3.84c-.4.63-.83,1.24-1.27,1.85a6.53,6.53,0,0,1-1.57,1.62Z"/><path class="cls-23" d="M106,78.74a7.17,7.17,0,0,1,1.78,1.62,2.41,2.41,0,0,1,.4,1.19,3.82,3.82,0,0,1-.08,1.21H108a6.22,6.22,0,0,1-.39-1.12,6.68,6.68,0,0,0-.24-1.06,9.25,9.25,0,0,0-1.44-1.8Z"/><path class="cls-23" d="M110.85,80.14a11.75,11.75,0,0,0-2.36-1.28c-.42-.17-.85-.26-1.26-.41s-.83-.26-1.27-.43V78a3.35,3.35,0,0,1,1.41,0,4.37,4.37,0,0,1,1.3.54,9.93,9.93,0,0,1,2.22,1.63Z"/><path class="cls-24" d="M90.81,60.47s7.85,22.27,9.73,24.83A7.69,7.69,0,0,0,106,88.54c.86-.05,1.49-2.6,1.07-5.49s-9-16-12.61-21.6S89.83,58.54,90.81,60.47Z"/><path class="cls-22" d="M107.1,83.05c-.24-1.63-3.06-6.51-6.13-11.45a17.32,17.32,0,0,1-4.54,4.18c1.73,4.51,3.37,8.52,4.11,9.52A7.69,7.69,0,0,0,106,88.54C106.89,88.49,107.52,85.94,107.1,83.05Z"/><path class="cls-25" d="M88.31,54.38s2.09.45,2.67,0a3.19,3.19,0,0,0,1.23-2.45,8.37,8.37,0,0,1,.85-3.85c.68-1.13,1.2-.46,1.2.08s-.64,5.62-.56,6.57.44,1.93.56,3.13-1.64,1.55-1.64,1.55l-4-3Z"/><path class="cls-26" d="M80.34,40.86l.67-.81a.59.59,0,0,1,.44-.22h7.19a.59.59,0,0,1,.55.42l5.22,13.9a.78.78,0,0,1-.13.78l-.65.73L88.33,41a.37.37,0,0,0-.34-.26Z"/><path class="cls-27" d="M93.41,55.76H85.94a.31.31,0,0,1-.28-.21L80.29,41.23a.35.35,0,0,1,.28-.49H88a.31.31,0,0,1,.28.21l5.37,14.32A.35.35,0,0,1,93.41,55.76Z"/><path class="cls-28" d="M84.28,42.81h0a.42.42,0,0,1-.4-.28l0-.06a.44.44,0,0,1,.41-.6h0a.42.42,0,0,1,.4.28l0,.06A.44.44,0,0,1,84.28,42.81Z"/><path class="cls-24" d="M92,60.75a1.73,1.73,0,0,0,2.42-1.51A3.79,3.79,0,0,0,94,57c-.93-1.3-4.11-1.81-4.84-1.93s0-1.68,0-1.68,1.73.51,2.32-.15-1-1.42-1-1.42a.84.84,0,0,0-.39-1s.45-.35-.17-.87a21.61,21.61,0,0,0-4-1.45s-.68-.35-1.22,1.42A7.59,7.59,0,0,1,83.81,52s-.42-2.53-.5-3,1.06-2,.5-4.3c0,0-.45-.8-.83.42s-1.42,3.55-1.48,3.87.76,5.65.78,6.49C82.31,56.09,88.3,59.16,92,60.75Z"/><path class="cls-29" d="M75.43,110.73s-17.6,41.86-22.89,48.74c0,0-2.47,3.88.53,4.24s22.4-21.88,25.05-31.93c2.18-8.3,3.65-13.82,5.85-16.44C88,110.52,80.69,103.24,75.43,110.73Z"/><path class="cls-30" d="M80.86,117.8s-1.94,2.64-1.06,5.11,3.53,8.64,4.59,10.58,13,32.37,15,37.94c1.85,5.42,5.21,6.35,4.9,4.4-3.41-21.15-2.88-22.7-6.73-36.75-2.54-9.29-3.87-9.5-5.81-13.56s-2-7.55-4.14-8.61C85.64,116,83.15,115.5,80.86,117.8Z"/><path class="cls-30" d="M110.06,108.24s-27.08,5.5-28.5,7.09a8.5,8.5,0,0,0-1.94,6.84l10.76.56a3.58,3.58,0,0,1,1.94-1.58c1.59-.71,13.91-1.57,13.91-1.57Z"/><path d="M125.56,71.92l.43,1-6.58,3L120.84,79l-.8.36-1.86-4.1Z"/><path d="M122.63,84.88a2.85,2.85,0,0,1-3-3,2.77,2.77,0,0,1,3.06-2.71,2.84,2.84,0,0,1,3,3A2.76,2.76,0,0,1,122.63,84.88Zm.06-4.61c-1.27,0-2.25.67-2.28,1.7s.91,1.79,2.21,1.83c1,0,2.25-.44,2.28-1.69S123.79,80.3,122.69,80.27Z"/><path d="M123.25,86.58c.67.14,1.25.25,1.78.33l-.19.9-1.12-.2v0a1.75,1.75,0,0,1,.91,1.84,1.83,1.83,0,0,1-.1.28l-1-.21a1.94,1.94,0,0,0,.11-.34,1.49,1.49,0,0,0-1-1.67,3.27,3.27,0,0,0-.47-.15l-3-.64.21-1Z"/><path d="M121,90.65a1.86,1.86,0,0,0-2.54,1.26,4,4,0,0,0-.22,1.62l-.77-.07a4.7,4.7,0,0,1,.26-1.94,2.71,2.71,0,0,1,3.68-1.8c1.67.55,2.65,2,2.12,3.57a2.81,2.81,0,0,1-3.81,1.23Zm-.25,3.18a1.51,1.51,0,0,0,2.09-.85,1.74,1.74,0,0,0-1.12-2.08Z"/><path d="M120.09,96.41c.56.22,1,.4,1.48.54l-.35.86-.88-.31,0,0a2,2,0,0,1,.31,2.09,1.74,1.74,0,0,1-1.7,1.09v0a2.34,2.34,0,0,1,.46.88,2,2,0,0,1-.1,1.35c-.29.71-1.18,1.58-3,.82l-3.17-1.28.38-1,3,1.23c1,.42,1.81.3,2.13-.49a1.36,1.36,0,0,0-.42-1.52,1.71,1.71,0,0,0-.46-.28l-3.32-1.34.38-1L118,99.5c.85.34,1.63.22,1.93-.53a1.44,1.44,0,0,0-.49-1.61,1.62,1.62,0,0,0-.44-.27l-3.25-1.31.39-1Z"/><path d="M126.85,99.9a.66.66,0,0,1-1.31,0,.65.65,0,0,1,.65-.68A.63.63,0,0,1,126.85,99.9Zm-1,7.46-.15-5.8,1.06,0,.14,5.81Z"/><path d="M128.67,103.37c-.09-.74-.19-1.33-.28-1.87l1-.12.16,1h0a2.27,2.27,0,0,1,1.91-1.36c1.4-.17,2.59.88,2.8,2.63.25,2.08-.89,3.25-2.25,3.42a2.06,2.06,0,0,1-1.89-.69h0l.38,3.13-1,.13Zm1.22,1.42a2.58,2.58,0,0,0,.1.42,1.64,1.64,0,0,0,1.72,1c1.11-.14,1.64-1.12,1.48-2.44-.13-1.16-.86-2.07-2-1.94a1.69,1.69,0,0,0-1.43,1.49,1.59,1.59,0,0,0,0,.44Z"/><path d="M139.18,100.56a2.83,2.83,0,0,0,.19-1.44c-.12-.75-.56-1.05-1-1s-.72.42-.87,1.24c-.2,1.09-.69,1.67-1.38,1.78a1.79,1.79,0,0,1-2-1.7A2.83,2.83,0,0,1,134.2,98l.8.14a2.25,2.25,0,0,0-.14,1.22c.1.62.51.9.94.83s.63-.45.79-1.24c.22-1.06.63-1.65,1.49-1.79s1.84.5,2.06,1.86a3.28,3.28,0,0,1-.12,1.68Z"/><path d="M137.36,91c.6,0,1.12-.11,1.57-.18l.08.93-.94.14v0a2.21,2.21,0,0,1,1.24,1.83c.07.91-.34,2-2.38,2.2l-3.38.28-.09-1,3.21-.26c1.1-.09,1.81-.49,1.73-1.45a1.52,1.52,0,0,0-1.07-1.31,1.87,1.87,0,0,0-.54,0l-3.56.29-.08-1Z"/><path d="M134.81,88.87c-.59-.1-1.08-.17-1.56-.21l.16-.92.93.11v0a2,2,0,0,1-.75-2A1.71,1.71,0,0,1,135,84.41v0a2.37,2.37,0,0,1-.64-.77,1.94,1.94,0,0,1-.19-1.33c.12-.76.81-1.8,2.8-1.47l3.37.57-.17,1L137,81.86c-1.1-.18-1.83.11-2,1a1.36,1.36,0,0,0,.74,1.39,1.63,1.63,0,0,0,.5.17l3.54.59-.17,1-3.43-.58c-.91-.15-1.64.14-1.78.94a1.44,1.44,0,0,0,.83,1.46,1.36,1.36,0,0,0,.49.17l3.46.58-.17,1Z"/><path d="M134,70.61l6.86,1.49c.51.11,1.08.22,1.48.27l-.2.93-1-.17v0a2.17,2.17,0,0,1,.69,2.18c-.3,1.37-1.69,2.18-3.41,1.8-1.9-.4-2.8-1.82-2.5-3.21a1.93,1.93,0,0,1,1.24-1.52v0l-3.39-.73Zm4.74,2.11a1.68,1.68,0,0,0-.45,0,1.55,1.55,0,0,0-1.52,1.23c-.23,1.07.57,1.9,1.83,2.18s2.22-.11,2.46-1.22a1.6,1.6,0,0,0-.9-1.79,2.53,2.53,0,0,0-.44-.14Z"/><path d="M140.85,65a2.84,2.84,0,0,1,2.45,3.45,2.76,2.76,0,0,1-3.47,2.14,2.84,2.84,0,0,1-2.46-3.44A2.75,2.75,0,0,1,140.85,65ZM140,69.52a2,2,0,0,0,2.54-1.29c.19-1-.59-1.91-1.87-2.17a2,2,0,0,0-2.53,1.26C137.9,68.55,138.92,69.3,140,69.52Z"/><path d="M135.58,62.71l.17-1,8.41,1.39-.18,1Z"/><path d="M142.07,55.35a2.84,2.84,0,0,1,2.83,3.15A2.78,2.78,0,0,1,141.68,61a2.84,2.84,0,0,1-2.83-3.14A2.76,2.76,0,0,1,142.07,55.35Zm-.33,4.6a2,2,0,0,0,2.37-1.57c.09-1-.79-1.84-2.1-2-1-.08-2.26.3-2.37,1.54S140.64,59.85,141.74,60Z"/><path d="M137.7,55c-.18.66-.33,1.23-.43,1.76l-.9-.24.27-1.11h0a1.73,1.73,0,0,1-1.88.8.91.91,0,0,1-.28-.11l.26-1a1.35,1.35,0,0,0,.34.12,1.47,1.47,0,0,0,1.72-.93,3.4,3.4,0,0,0,.18-.46l.81-3,1,.27Z"/><path class="cls-24" d="M135.45,50.18l-2.66-.83h-7.58a10.34,10.34,0,0,1-2.63.92c.49,1.06,2.24,4.36,5.5,5.26C128.08,55.53,133.84,53.73,135.45,50.18Z"/><path class="cls-31" d="M115.26,97.33c-3.83,4.12-8.2,6.84-32.81,7.76A13.7,13.7,0,0,0,72,109.41s14.88,1.4,29.23,24.19c0,0,7.76-8.55,24.2-10h0a11.78,11.78,0,0,0,1.32,0c13.31-1.14,13.52-22.51,13.52-22.51C124,101.14,115.26,97.33,115.26,97.33Z"/><path class="cls-32" d="M117.27,93.1a21.57,21.57,0,0,0,11.84,3c7.13-.18,10.07-1.87,10.07-1.87a.55.55,0,0,1,.1.77c-.3.49-6.78,2.35-13.12,1.85C120,96.39,117,93.75,117,93.75A.43.43,0,0,1,117.27,93.1Z"/><path class="cls-33" d="M117.35,92.3a21.56,21.56,0,0,0,11.83,3c7.14-.18,10.08-1.87,10.08-1.87a.56.56,0,0,1,.09.78c-.3.49-6.77,2.35-13.11,1.84-6.14-.49-9.16-3.12-9.16-3.12A.43.43,0,0,1,117.35,92.3Z"/><path class="cls-23" d="M101.14,133.55a25.36,25.36,0,0,1,5.15-4.31,37.39,37.39,0,0,1,6-3.15,45.48,45.48,0,0,1,6.44-2c1.09-.32,2.21-.45,3.32-.66s2.24-.26,3.35-.38h.06a11.16,11.16,0,0,0,6.53-1.7,13.8,13.8,0,0,0,4.57-5.21,27,27,0,0,0,2.36-6.65,41.61,41.61,0,0,0,.89-7h0v0a10.75,10.75,0,0,0-.23-3.07l-.62-3.18a26.27,26.27,0,0,1-.47-6.58,106.57,106.57,0,0,1,2.21-12.84c.93-4.22,2-8.4,2.78-12.62.41-2.11.78-4.23,1-6.36l.17-1.6.13-1.6a1.84,1.84,0,0,0-.35-1.41,2.21,2.21,0,0,0-1.32-.74l0-.13a2.34,2.34,0,0,1,1.52.68,2.17,2.17,0,0,1,.55,1.6c0,1.09,0,2.18-.06,3.26-.14,2.16-.35,4.33-.68,6.47-.66,4.29-1.52,8.53-2.41,12.74-.43,2.12-.89,4.22-1.28,6.33s-.82,4.24-1,6.31a26.77,26.77,0,0,0,.29,6.31c.26,2.11.9,4.23.55,6.57v-.05a46.81,46.81,0,0,1-1.24,7.08,30.61,30.61,0,0,1-2.47,6.74,15.83,15.83,0,0,1-4.53,5.6,11.82,11.82,0,0,1-7,2.23h0l-3.27.45c-1.07.22-2.17.36-3.24.62a45.32,45.32,0,0,0-6.32,1.87,42.74,42.74,0,0,0-6,2.79,30.36,30.36,0,0,0-5.42,3.8Z"/><path class="cls-23" d="M119.16,56.93a26.62,26.62,0,0,0,4,1.67,38.93,38.93,0,0,0,4.19,1.17c1.42.29,2.85.49,4.27.73.71.16,1.43.24,2.14.4s1.44.24,2.16.42v.09a19.31,19.31,0,0,1-4.43,0,24.66,24.66,0,0,1-4.32-.94A31,31,0,0,1,119.11,57Z"/><path class="cls-23" d="M125.87,58.06a19.75,19.75,0,0,0,3,.09c1,0,2-.09,3-.2s2-.33,2.94-.4a23.07,23.07,0,0,1,3-.09l0,.09a12.13,12.13,0,0,1-2.9.94,16.14,16.14,0,0,1-3,.21,23.3,23.3,0,0,1-6-.55Z"/><path class="cls-23" d="M123.69,82.5c.86,2.82,1.72,5.64,2.69,8.41.25.68.52,1.36.82,2a3.54,3.54,0,0,0,.23.41c0,.1.17.17.07.12s-.11.09,0-.05a1.55,1.55,0,0,0,.16-.38,9.66,9.66,0,0,0,.07-4.19l.08,0a6.38,6.38,0,0,1,.77,2.14,5.82,5.82,0,0,1,0,2.35,2.29,2.29,0,0,1-.25.63.94.94,0,0,1-.9.52,1,1,0,0,1-.74-.55,3.84,3.84,0,0,1-.29-.57c-.28-.73-.49-1.44-.69-2.15-.82-2.85-1.47-5.72-2.06-8.61Z"/><path class="cls-23" d="M119.16,98.17a16.74,16.74,0,0,0,3,1.45,20.86,20.86,0,0,0,3.15,1c1.08.24,2.17.34,3.24.52s2.16.3,3.29.53v.1a10.78,10.78,0,0,1-3.39.3,13,13,0,0,1-3.33-.73,18.42,18.42,0,0,1-6-3.08Z"/><path class="cls-23" d="M112.54,102.37a52.55,52.55,0,0,1,6.87-.39,23.38,23.38,0,0,1,3.45.15,15.1,15.1,0,0,1,3.36.87v.09a32.85,32.85,0,0,1-3.44,0c-1.13,0-2.25-.25-3.39-.34-2.26-.18-4.55-.28-6.83-.27Z"/><path class="cls-24" d="M127.65,34.71a45.78,45.78,0,0,1-2.77,15.5h8.34s-2.51-5.71-2.13-15.58Z"/><path class="cls-25" d="M131.24,40.93a50.49,50.49,0,0,1-.15-6.3l-3.44.08a47.2,47.2,0,0,1-.86,8.76A10.41,10.41,0,0,0,131.24,40.93Z"/><path class="cls-22" d="M144.14,53s1.35,0,2.38,2.55,6.57,21,7.33,22.63,2.75,7.69,1.19,8.17c0,0-6-4.44-6-4.54s-.71-2.79-.71-2.79-1.24-1.92-1.34-2.15-.6-2.76-.6-2.76A35.92,35.92,0,0,0,145,69.82c-.67-1.55-2.83-8.2-2.83-11.06S142.77,52.74,144.14,53Z"/><path class="cls-23" d="M144.15,52.92A2.88,2.88,0,0,1,146,54.25a8.81,8.81,0,0,1,1,2c.54,1.42,1,2.84,1.53,4.26l2.87,8.55c1,2.83,2,5.7,2.89,8.49a26.28,26.28,0,0,1,1.3,4.38,16.09,16.09,0,0,1,.28,2.29,4.71,4.71,0,0,1-.1,1.18c-.07.37-.26.85-.71.94l0-.11c.32-.15.38-.54.4-.88a4.92,4.92,0,0,0-.11-1.07,14.61,14.61,0,0,0-.55-2.14A31.64,31.64,0,0,0,153.15,78c-1.11-2.87-1.82-5.76-2.68-8.65l-2.53-8.66c-.42-1.44-.84-2.89-1.29-4.32a8.52,8.52,0,0,0-.87-2A2.75,2.75,0,0,0,144.14,53Z"/><path class="cls-23" d="M148.15,75.41a2.87,2.87,0,0,1,1.82.22,2.56,2.56,0,0,1,.81.48,2,2,0,0,1,.49.81l0,0a5,5,0,0,1-.8-.42c-.24-.15-.43-.36-.66-.52a3.14,3.14,0,0,0-1.61-.55Z"/><path class="cls-24" d="M133.88,68s11.21,15,15.76,17.18,5.61,1.52,5.69.4a9.46,9.46,0,0,0-2.81-6c-1.93-1.71-16.13-12.68-17.23-13.79S132.5,66.13,133.88,68Z"/><path class="cls-22" d="M152.52,79.58c-.85-.75-4.09-3.31-7.54-6a5.52,5.52,0,0,1-2.58,5c2.72,3.07,5.48,5.83,7.24,6.67,4.55,2.15,5.61,1.52,5.69.4A9.46,9.46,0,0,0,152.52,79.58Z"/><path class="cls-25" d="M136.4,65.89s-3-7.53-3.37-9-1.1-.15-.63,1.41a25.08,25.08,0,0,1,.56,5.58C133,65.21,135.36,69.05,136.4,65.89Z"/><path class="cls-24" d="M136.09,68.43a3.51,3.51,0,0,0-.21-3.71c-1.3-2-4.12-6.8-4.53-7.37s-3.45-.63-4.82-.63-2.31.72-4.81,1.77c0,0-.5.83,1.14.71a22.47,22.47,0,0,0,3.67-.9,11.17,11.17,0,0,1,2.55.34c0,.17-3.64.48-4.43.91a1.26,1.26,0,0,0-.5,1.41,1.39,1.39,0,0,0-.21,1.62,1.34,1.34,0,0,0-.34,1.5,8.07,8.07,0,0,0,1.83,2.23s.83.31.59-1l-.66-1s1.33.27,2,.43S134.28,71.06,136.09,68.43Z"/><path class="cls-34" d="M131.11,39.9s1.73-3.29,3-5.28,2.73-3.88,2.5-5.28a4.11,4.11,0,0,1-.22,2.61,6.83,6.83,0,0,0,2.18-5.72s-.21-10.17-9.43-10.86c-4.59-.34,2.72,9.23,2.72,9.23l-1,6.91-.56,4.35Z"/><path class="cls-24" d="M118.58,21.22s-1.7,2.36-.89,7.42c.64,4,2.93,10.93,6.42,13.27a12,12,0,0,0,9-9c1.89-7.68-1.21-14.26-6.91-14.34C120.26,18.5,118.58,21.22,118.58,21.22Z"/><path class="cls-24" d="M132.91,29.59s.9-2.95,1.46-2.86,1.19,1.2,1.43,1.92-.82,3.19-1.22,3.59S132.9,32,132.91,29.59Z"/><path class="cls-34" d="M123.78,20.39s.69,4.63,3.24,5.83,3.48,1.37,3,3.66c0,0,1.15-1.6.27-2.71s-3-1.33-3.41-3.44S124.43,19.63,123.78,20.39Z"/><path class="cls-35" d="M121.38,19.3s.2,2.15-3.12,5-1,4-.13,7.94-3.24,5.11-1.22,8.29,1.43,5.22.67,5.58c0,0,1.59-1-.71-4.4s-1-4.47-.6-6.21A6.5,6.5,0,0,0,114.73,30c-1.29-1.19-2.67-3.46-1-5.78s2.17-3.4,2.12-4.85c-.08-2.61,3.78-3.71,7.86-3,0,0,3.51-2.16,6.83-.38s6.25,7.59,4,11.4-2.62,4.45-.37,7.3,1.39,5.32-.7,6.89c0,0,2.79-2.52.52-5.34s-3.54-3-3.47-4.53,1.67-3.68.48-5.81S123.23,25.17,121.38,19.3Z"/><circle class="cls-31" cx="134.41" cy="32.57" r="0.8"/><path class="cls-25" d="M122.4,30.07a12.79,12.79,0,0,1-.88,2.63l1.61.41-.87-.67Z"/><path class="cls-36" d="M130,15.62A8.25,8.25,0,0,1,135,21a14.42,14.42,0,0,1,.45,3.75,9.53,9.53,0,0,1-1.27,3.54A6.17,6.17,0,0,0,133,31.67c0,1.19,1,2,1.71,3.1a5,5,0,0,1,1,3.68,5.13,5.13,0,0,1-2.16,3.06l0,0a5.42,5.42,0,0,0,1.8-3.08,4.86,4.86,0,0,0-1.06-3.32c-.33-.5-.76-1-1.12-1.5a3.62,3.62,0,0,1-.64-1.87A6.13,6.13,0,0,1,134,28.19a7.38,7.38,0,0,0,1.32-3.41,12.26,12.26,0,0,0-.67-3.61A9.69,9.69,0,0,0,130,15.66Z"/><path class="cls-36" d="M123.74,16.28a2.2,2.2,0,0,0-.67,1.25,1.85,1.85,0,0,0,.34,1.31,4,4,0,0,0,2.33,1.48c1.83.63,3.85.95,5.61,2.18a3.62,3.62,0,0,1,1.48,2.82,6.19,6.19,0,0,1-.81,3A14.87,14.87,0,0,0,130.83,31a2.77,2.77,0,0,0,0,1.4,2.71,2.71,0,0,0,.8,1.2,2.51,2.51,0,0,1-1-1.14,3.06,3.06,0,0,1-.14-1.53,15.09,15.09,0,0,1,1-2.83,6.12,6.12,0,0,0,.62-2.72,2.89,2.89,0,0,0-1.22-2.25c-1.5-1.09-3.51-1.47-5.36-2.23a9.76,9.76,0,0,1-1.37-.69A3.19,3.19,0,0,1,123.09,19a2.24,2.24,0,0,1-.22-1.54A2.11,2.11,0,0,1,123.74,16.28Z"/><path class="cls-36" d="M121.38,19.3a6.86,6.86,0,0,1-2.33,4.43,12.32,12.32,0,0,1-2,1.6l-.54.34-.27.17a1,1,0,0,0-.2.16,1.69,1.69,0,0,0-.46,1c-.17,1.57,1.2,2.93,1.76,4.53a7.19,7.19,0,0,1,.58,2.51,4.59,4.59,0,0,1-.7,2.43,5.39,5.39,0,0,0-.23-4.79c-.36-.75-.76-1.48-1.19-2.2a4.2,4.2,0,0,1-.72-2.54,2.16,2.16,0,0,1,.62-1.26,1.82,1.82,0,0,1,.3-.23l.27-.16.53-.32a17.27,17.27,0,0,0,2-1.5,9.08,9.08,0,0,0,1.64-1.86A5.45,5.45,0,0,0,121.38,19.3Z"/><path class="cls-36" d="M136.69,23.32a11.39,11.39,0,0,1,1.24,4.37,6.13,6.13,0,0,1-.19,2.33,4.51,4.51,0,0,1-1.27,2l-.06-.05a18.24,18.24,0,0,0,.6-2.11,16.15,16.15,0,0,0,.32-2.12,10.69,10.69,0,0,0-.17-2.18,10.84,10.84,0,0,0-.54-2.16Z"/><path class="cls-31" d="M121.19,29.39s-.16-1.47-1.41-1.62a1.75,1.75,0,0,0-1.94,1.7Z"/><path class="cls-31" d="M124.45,28.85a1.79,1.79,0,0,1,.94-2.11,2.17,2.17,0,0,1,2.93,1Z"/><path class="cls-37" d="M124.45,28.85s-.06-1.2,1.52-1.61a2.66,2.66,0,0,1,2.35.54A2.61,2.61,0,0,1,126.47,29,2.67,2.67,0,0,1,124.45,28.85Z"/><path class="cls-37" d="M121.19,29.39a1.57,1.57,0,0,0-2-.8A2,2,0,0,0,118,29.94a2.12,2.12,0,0,0,1.86.18A2.38,2.38,0,0,0,121.19,29.39Z"/><path class="cls-38" d="M122.64,34.67a.62.62,0,0,0,.86.09c.55-.33.84-.26,1.64,0s1.37.72,2.46.31a5.25,5.25,0,0,1-2.95,1,12.86,12.86,0,0,0-2.3.19s-.66-.22-.67-.62A.91.91,0,0,1,122.64,34.67Z"/><path class="cls-37" d="M122.14,36s.72-.79,2.84-.3a3.71,3.71,0,0,0,2.62-.58S126.48,40,122.77,38a2.55,2.55,0,0,0-.07-1.17A3.29,3.29,0,0,0,122.14,36Z"/><path class="cls-38" d="M122.81,37.75s-.64.28-.25.8,1.82.43,2.9,0a4.15,4.15,0,0,0,2.14-3.41,4.16,4.16,0,0,1-3,2.77C122.92,38.17,122.81,37.75,122.81,37.75Z"/><circle class="cls-31" cx="125.71" cy="28.48" r="0.8"/><circle class="cls-39" cx="125.71" cy="28.48" r="0.44"/><circle class="cls-31" cx="119.3" cy="29.69" r="0.8"/><circle class="cls-39" cx="119.3" cy="29.69" r="0.44"/><path d="M124.42,29a1.91,1.91,0,0,1,.39-1.39,2.18,2.18,0,0,1,1.33-.71,2.34,2.34,0,0,1,1.48.26c.44.21.76.52,1.21.28l0,0a.72.72,0,0,1-.7.33,3.69,3.69,0,0,1-.73-.2,3.34,3.34,0,0,0-1.25-.29,1.82,1.82,0,0,0-1.18.47,1.78,1.78,0,0,0-.53,1.21Z"/><path d="M121.25,29.49a1.86,1.86,0,0,0-.86-.89,1.28,1.28,0,0,0-1.14.08,2.53,2.53,0,0,0-.88.78,2.81,2.81,0,0,1-.48.51.66.66,0,0,1-.74,0v0c.5,0,.55-.33.81-.75a2,2,0,0,1,1.13-.84,1.6,1.6,0,0,1,1.4.06,2,2,0,0,1,.8,1.08Z"/><path class="cls-40" d="M129.17,25.71a9.6,9.6,0,0,0-1.49-.86,4.62,4.62,0,0,0-1.6-.48,3.21,3.21,0,0,0-1.55.24,2.17,2.17,0,0,0-1.11,1.12h0a1.84,1.84,0,0,1,.93-1.55,2.64,2.64,0,0,1,1.84-.22,5.09,5.09,0,0,1,1.67.67,8.45,8.45,0,0,1,1.4,1.06Z"/><path class="cls-40" d="M116.88,28a2.21,2.21,0,0,1,.26-1.39,2.71,2.71,0,0,1,1-1,2.13,2.13,0,0,1,1.46-.32,1.71,1.71,0,0,1,1.24.78l0,0a2.47,2.47,0,0,0-1.23-.35,3.48,3.48,0,0,0-1.22.27,2.44,2.44,0,0,0-1,.76,2.24,2.24,0,0,0-.44,1.24Z"/><path class="cls-41" d="M112.28,91a7.18,7.18,0,0,0-.06,1.39,49.33,49.33,0,0,0,8.53.85,2.09,2.09,0,0,0,0-.86C120.65,91.92,112.28,91,112.28,91Z"/><path class="cls-42" d="M120.45,92.64s0,.65.2.78c0,0,7.66.24,9.52.08a1,1,0,0,0,.05-.4C130.21,92.89,120.45,92.64,120.45,92.64Z"/><polygon class="cls-43" points="112.06 93.04 111.91 92.82 111.91 92.64 112.06 92.59 112.06 92.39 112.28 92.29 112.51 92.29 112.93 92.43 113.16 92.38 113.48 92.38 113.67 92.53 113.88 92.35 113.96 92.3 114.15 92.51 114.27 92.64 114.6 92.64 114.8 92.64 115.02 92.77 115.13 92.6 115.35 92.66 115.7 92.79 115.86 92.77 116.1 92.85 116.24 92.69 116.5 92.7 116.75 92.86 116.81 92.96 116.94 93.04 117.26 92.91 117.51 92.96 117.71 93.04 117.96 92.91 118.23 93.04 118.52 93.1 118.71 93.1 119.2 93.05 119.44 93.1 119.95 93.1 120.1 93.1 120.44 93.16 121.03 93.24 127.91 93.33 129.57 93.41 130.14 93.33 130.29 93.41 130.38 93.56 130.38 93.68 130.38 93.78 130.22 93.83 130.03 93.97 112.43 93.45 112.06 93.04"/><path class="cls-44" d="M112.28,90.9a22.85,22.85,0,0,0,5.38,2.2,3.56,3.56,0,0,0,1.78,0,83.43,83.43,0,0,1,11.24.23.59.59,0,0,0-.22-.77c-.45-.35-14.25-1.78-14.25-1.78Z"/><path class="cls-45" d="M121.4,91.54s.12.61.46.75.46,0,1.12,0a4.35,4.35,0,0,1,1.7.18c.27.18.67-.22.74-.37a1.67,1.67,0,0,1,1.6.19,1.31,1.31,0,0,0,1.26.33,2.27,2.27,0,0,1,1.21.18c.33.14.77.14.89,0s.42-.06.81-.17.18-.82-.31-.82-.66-.57-.66-.57L123,90.78Z"/><path class="cls-46" d="M112.56,89.68s-1.19,0-1.21.29.4.31.44.73,0,1.17.5.79.86-.64,1.31-.29,1,.85,1.4.62a1.67,1.67,0,0,1,1.11-.35,2.93,2.93,0,0,1,1.57.41c.4.31,1.54.61,1.79.23s.48-.48,1.54-.29,1.49.13,1.6,0,.63-.42.89-.22.64-.22.71-.4-1.34-.71-1.34-.71L119,90.37l-5.34-.85Z"/><path class="cls-47" d="M112.11,88.21s.29-1.46,2.67-1.3,13.37,1.33,14.71,2.31a2.54,2.54,0,0,1,.91,2.6s-15.5-1.16-18.49-2.35Z"/><path class="cls-47" d="M111.91,93s12,1.22,18.28.81a2.93,2.93,0,0,1,0,.82H111.91A2.39,2.39,0,0,1,111.91,93Z"/><polygon class="cls-48" points="114.8 87.27 115.32 87.11 115.59 87.47 115.23 87.55 114.8 87.27"/><polygon class="cls-48" points="114.21 88.76 114.6 88.93 114.6 88.64 114.27 88.54 114.21 88.76"/><polygon class="cls-48" points="118.98 87.7 119.59 87.33 119.72 87.52 119.72 87.64 118.98 87.7"/><polygon class="cls-48" points="120.65 88.93 121.19 89.52 121.4 89.36 121.4 89.22 121.19 88.74 120.65 88.93"/><polygon class="cls-48" points="118.33 89.13 118.71 89.36 118.71 89 118.33 88.93 118.33 89.13"/><polygon class="cls-48" points="117.15 88.12 117.37 88.12 117.37 87.96 117.26 87.77 117.15 88.12"/><polygon class="cls-48" points="125.86 89.52 125.97 89.87 126.14 89.87 126.23 89.52 125.86 89.52"/><polygon class="cls-48" points="124.13 88.38 124.13 87.98 124.29 87.95 124.43 88.03 124.43 88.29 124.13 88.38"/><polygon class="cls-48" points="123.77 89.97 123.91 90.28 124.13 90.21 124.13 89.97 123.77 89.97"/><polygon class="cls-48" points="122.68 88.54 122.83 88.74 123.05 88.64 122.86 88.48 122.68 88.54"/><polygon class="cls-48" points="127.91 89.01 128.24 88.75 128.41 88.93 128.28 89.13 127.91 89.01"/><polygon class="cls-48" points="128.11 90.51 128.28 90.61 128.55 90.28 128.41 90.12 128.11 90.51"/><path class="cls-33" d="M167.8,85.9a8.68,8.68,0,0,1,1.37-3.2c1-1.22,1.25.51,1.25.51a3.78,3.78,0,0,0-2,2.71Z"/><path class="cls-49" d="M168.18,85.48a7.14,7.14,0,0,1-1.38-1.22c-1.15-1.12-7.37-1.15-6.9,5.15s4.83,5.6,6.14,5.42,2.75.58,4.42-.1,3.93-3,3.34-5.53C173.13,86.36,171.55,84.56,168.18,85.48Z"/><path class="cls-37" d="M160.89,88a1.48,1.48,0,0,1,.43-1.51c.22-.16.53-.23.73-.37a2.36,2.36,0,0,0,.54-.55,1.72,1.72,0,0,1,.59-.55,2.06,2.06,0,0,1,.73-.32,2.12,2.12,0,0,1,1.58.27v.11a4.93,4.93,0,0,1-1.28.69,9.57,9.57,0,0,1-1.32.28,1,1,0,0,0-.62.32,2.3,2.3,0,0,0-.27.67,2.57,2.57,0,0,1-1,1Z"/><rect class="cls-50" x="25.14" y="94.93" width="201.43" height="5.65"/><rect class="cls-51" x="25.14" y="94.93" width="201.43" height="1.61"/><rect class="cls-52" x="27.03" y="100.58" width="197.66" height="7.66"/><rect class="cls-53" x="210.43" y="108.24" width="14.25" height="36.98"/><rect class="cls-53" x="27.03" y="108.24" width="14.25" height="36.98"/><path class="cls-54" d="M157.32,93.1h-1.9s.4.24.68,1.5a.42.42,0,0,0,.43.33h1.23a.42.42,0,0,0,.43-.33c.28-1.26.68-1.5.68-1.5Z"/><path class="cls-55" d="M161.86,66.42c.42-5.75-3.3-6.72-3.3-6.72V58.27h-2.82V59.7s-3.73,1-3.31,6.72S154.54,72,154.72,73s-1.47,2.61-1.65,4.55,0,14.47,0,14.47v1a.69.69,0,0,0,.65.72h.89a1.32,1.32,0,0,0,.83-.69c.29-.58.68-1,1.08-1.07h1.25c.4.06.79.5,1.08,1.07a1.29,1.29,0,0,0,.83.68h.89a.68.68,0,0,0,.65-.71V92h0s.17-12.53,0-14.47S159.4,74,159.57,73,161.45,72.18,161.86,66.42Z"/><path class="cls-37" d="M162.55,66.49c.47-6-3.79-7-3.79-7V58h-3.23V59.5s-4.26,1-3.79,7,2.42,5.8,2.63,6.83-1.68,2.72-1.89,4.74,0,15,0,15v1.09a.75.75,0,0,0,.75.74h1a1.51,1.51,0,0,0,.95-.71,2,2,0,0,1,1.23-1.12h1.43a1.94,1.94,0,0,1,1.23,1.12,1.51,1.51,0,0,0,.95.71h1a.75.75,0,0,0,.75-.74V93.1h0s.2-13,0-15-2.09-3.7-1.89-4.74S162.08,72.48,162.55,66.49Zm-1.33,11.05c.17,1.94,0,14.44,0,14.47h0v1a.68.68,0,0,1-.65.71h-.89a1.29,1.29,0,0,1-.83-.68c-.29-.57-.68-1-1.08-1.07h-1.25c-.4,0-.79.49-1.08,1.07a1.32,1.32,0,0,1-.83.69h-.89a.69.69,0,0,1-.65-.72V92s-.17-12.53,0-14.47S154.89,74,154.72,73s-1.88-.81-2.29-6.57,3.31-6.72,3.31-6.72V58.27h2.82V59.7s3.72,1,3.3,6.72S159.75,72,159.57,73,161,75.6,161.22,77.54Z"/><path class="cls-56" d="M157.15,92h.62c.4.06.79.5,1.08,1.07a1.29,1.29,0,0,0,.83.68h.89a.68.68,0,0,0,.65-.71V92h0s.17-12.53,0-14.47S159.4,74,159.57,73s1.59-.84,2.15-5.15h-9.15c.56,4.31,2,4.25,2.15,5.15s-1.47,2.61-1.65,4.55,0,14.47,0,14.47v1a.69.69,0,0,0,.65.72h.89a1.32,1.32,0,0,0,.83-.69c.29-.58.68-1,1.08-1.07Z"/><path class="cls-57" d="M152.46,91.74h9.37c0-3.13.12-10.74,0-13.18h-9.39C152.34,81,152.42,88.61,152.46,91.74Z"/><circle class="cls-37" cx="155.66" cy="69.98" r="0.24"/><circle class="cls-37" cx="155.26" cy="74.9" r="0.16"/><circle class="cls-37" cx="157.81" cy="72.05" r="0.09"/><circle class="cls-37" cx="159.65" cy="68.68" r="0.15"/><circle class="cls-37" cx="158.39" cy="77.3" r="0.26"/><circle class="cls-37" cx="157.98" cy="75.13" r="0.08"/><circle class="cls-37" cx="159.99" cy="92.85" r="0.11"/><circle class="cls-37" cx="154.63" cy="77.43" r="0.13"/><path class="cls-57" d="M155.7,56.14h2.88a.59.59,0,0,1,.59.59V58.6a0,0,0,0,1,0,0h-4.06a0,0,0,0,1,0,0V56.73A.59.59,0,0,1,155.7,56.14Z"/><path class="cls-58" d="M152.46,91.74h9.37c0-3.13.12-10.74,0-13.18h-.36a16.63,16.63,0,0,1-9,9.85C152.44,89.72,152.45,90.89,152.46,91.74Z"/><path class="cls-59" d="M102.66,94.93a3.23,3.23,0,0,1,.9-1.83,146.61,146.61,0,0,0,23.13,1.34c13.5-.21,14.92-1.34,14.92-1.34a1.83,1.83,0,0,1,.21,1.83Z"/><path class="cls-13" d="M25.14,94.87l100.72-.42L151,94.33h25.17c16.79.11,33.57.19,50.36.54V95c-16.79.35-33.57.44-50.36.55H151l-25.18-.12L25.14,95Z"/><path class="cls-38" d="M98.26,32.12H90.8a.6.6,0,0,0-.59.59v4.35a.59.59,0,0,0,.59.59h2a.8.8,0,0,1,.7.42l1,2h0l1-2a.8.8,0,0,1,.7-.42h2a.58.58,0,0,0,.58-.59V32.71A.59.59,0,0,0,98.26,32.12Z"/><path class="cls-37" d="M96.45,33.92h0l-.44.24-.06-.26.55-.29h.29v2.51h-.33Z"/><path class="cls-37" d="M94.71,35.8a1.28,1.28,0,0,0,.53-1,1.88,1.88,0,0,0-3.64,0,1.66,1.66,0,0,0,1.82,1.42,2.15,2.15,0,0,0,.77-.14l.81.34Z"/><path class="cls-38" d="M95.55,21.62H88.08a.58.58,0,0,0-.58.58v4.35a.58.58,0,0,0,.58.59h2a.77.77,0,0,1,.7.42l1,2h0l1-2a.77.77,0,0,1,.7-.42h2a.58.58,0,0,0,.58-.59V22.2A.58.58,0,0,0,95.55,21.62Z"/><path class="cls-37" d="M93.89,23.41h0l-.44.24-.07-.26.55-.29h.3v2.52h-.33Z"/><circle class="cls-37" cx="90.63" cy="23.63" r="0.84"/><path class="cls-37" d="M91.08,24.72h-.89c-1,0-1.25,1.27-1.25,1.27h3.39S92,24.72,91.08,24.72Z"/><path class="cls-38" d="M86.07,28.75H78.61a.58.58,0,0,0-.59.58v4.36a.58.58,0,0,0,.59.58h2a.77.77,0,0,1,.7.42l1,2h0l1-2a.77.77,0,0,1,.7-.42h2a.58.58,0,0,0,.58-.58V29.33A.58.58,0,0,0,86.07,28.75Z"/><path class="cls-37" d="M83,30.9a1,1,0,0,0-1-1,1,1,0,0,0-.78.39.93.93,0,0,0-.77-.39,1,1,0,0,0-1,1,1,1,0,0,0,.28.68h0l1.47,1.54,1.48-1.54h0A1,1,0,0,0,83,30.9Zm-1.76.59Z"/><path class="cls-37" d="M84.41,30.55h0l-.44.23-.06-.26.55-.29h.29v2.52h-.33Z"/></g><path class="cls-60" d="M175.81,9.13l-2.12,1.26v-3l2.63-1.83h3.12V17h-3.63Z"/><path class="cls-60" d="M180.65,16.51l3.89-4.13a16.71,16.71,0,0,0,1.39-1.67,2.5,2.5,0,0,0,.53-1.47,1.24,1.24,0,0,0-.25-.81.91.91,0,0,0-.79-.32,1.1,1.1,0,0,0-.89.38,2.71,2.71,0,0,0-.44,1.34h-3.26a4.43,4.43,0,0,1,1.34-3.34,5,5,0,0,1,3.43-1.1,6,6,0,0,1,1.92.28,3.89,3.89,0,0,1,1.39.77,3.12,3.12,0,0,1,.84,1.16A3.82,3.82,0,0,1,190,9.08a4.06,4.06,0,0,1-.15,1.13,4.23,4.23,0,0,1-.44,1,6.27,6.27,0,0,1-.67.94,12.11,12.11,0,0,1-.87.9l-1.31,1.26h3.54V17h-9.48Z"/><path class="cls-60" d="M193,12.65a1.83,1.83,0,0,1-.71-.13,2.12,2.12,0,0,1-.55-.37,1.55,1.55,0,0,1-.36-.53,1.91,1.91,0,0,1-.13-.68,1.86,1.86,0,0,1,.13-.67,1.8,1.8,0,0,1,.36-.56,1.87,1.87,0,0,1,.55-.36,1.83,1.83,0,0,1,.71-.14,2,2,0,0,1,.72.14,1.85,1.85,0,0,1,.57.36,1.76,1.76,0,0,1,.52,1.23,1.72,1.72,0,0,1-.14.68,1.47,1.47,0,0,1-.38.53,2.08,2.08,0,0,1-.57.37A2,2,0,0,1,193,12.65Zm0,4.54a1.72,1.72,0,1,1,0-3.44,2,2,0,0,1,.72.14,1.7,1.7,0,0,1,.57.37,1.6,1.6,0,0,1,.38.54,1.67,1.67,0,0,1,.14.67,1.62,1.62,0,0,1-.52,1.23A1.77,1.77,0,0,1,193,17.19Z"/><path class="cls-60" d="M201.34,17.21a6,6,0,0,1-2.22-.38,4.43,4.43,0,0,1-1.69-1.1A4.82,4.82,0,0,1,196.36,14a7.57,7.57,0,0,1-.36-2.43v-.45a6.82,6.82,0,0,1,.41-2.44,5.07,5.07,0,0,1,1.15-1.77,4.79,4.79,0,0,1,1.71-1.1,5.92,5.92,0,0,1,2.13-.37,6.43,6.43,0,0,1,2.13.34,4.7,4.7,0,0,1,1.72,1,4.81,4.81,0,0,1,1.15,1.75,6.38,6.38,0,0,1,.43,2.47v.43a7.16,7.16,0,0,1-.39,2.45,5,5,0,0,1-1.1,1.83,4.86,4.86,0,0,1-1.73,1.13A6.55,6.55,0,0,1,201.34,17.21Zm.11-2.78a1.45,1.45,0,0,0,1.37-.72,4.62,4.62,0,0,0,.41-2.22v-.42a4.42,4.42,0,0,0-.43-2.22,1.48,1.48,0,0,0-1.38-.71,1.5,1.5,0,0,0-1.4.7,4.49,4.49,0,0,0-.42,2.22v.45a4.47,4.47,0,0,0,.42,2.21A1.54,1.54,0,0,0,201.45,14.43Z"/><path class="cls-60" d="M213.2,17.21a6.07,6.07,0,0,1-2.23-.38,4.5,4.5,0,0,1-1.69-1.1A4.93,4.93,0,0,1,208.22,14a7.56,7.56,0,0,1-.37-2.43v-.45a6.6,6.6,0,0,1,.42-2.44,5.19,5.19,0,0,1,1.14-1.77,5,5,0,0,1,1.71-1.1,6,6,0,0,1,2.14-.37,6.43,6.43,0,0,1,2.13.34,4.78,4.78,0,0,1,1.72,1,4.94,4.94,0,0,1,1.15,1.75,6.57,6.57,0,0,1,.43,2.47v.43a7.16,7.16,0,0,1-.39,2.45,5.09,5.09,0,0,1-1.1,1.83,4.81,4.81,0,0,1-1.74,1.13A6.49,6.49,0,0,1,213.2,17.21Zm.11-2.78a1.46,1.46,0,0,0,1.37-.72,4.64,4.64,0,0,0,.4-2.22v-.42a4.54,4.54,0,0,0-.42-2.22,1.48,1.48,0,0,0-1.38-.71,1.5,1.5,0,0,0-1.4.7,4.37,4.37,0,0,0-.43,2.22v.45a4.35,4.35,0,0,0,.43,2.21A1.54,1.54,0,0,0,213.31,14.43Z"/><path class="cls-60" d="M228.36,17.21A5.59,5.59,0,0,1,224.48,16a4.75,4.75,0,0,1-1.35-3.7V5.56h3.62v6.58a5.5,5.5,0,0,0,.07,1,1.93,1.93,0,0,0,.25.7,1,1,0,0,0,.5.42,2,2,0,0,0,.79.13,1.37,1.37,0,0,0,1.29-.55,3.53,3.53,0,0,0,.31-1.69V5.56h3.65v6.69a6,6,0,0,1-.37,2.23A3.88,3.88,0,0,1,232.19,16a4.35,4.35,0,0,1-1.66.89A7.65,7.65,0,0,1,228.36,17.21Z"/><path class="cls-60" d="M235.32,5h3.16v5a3,3,0,0,1,1-1.12,3.07,3.07,0,0,1,1.73-.45,3.15,3.15,0,0,1,1.09.19,2.19,2.19,0,0,1,.85.58,2.58,2.58,0,0,1,.55,1,4,4,0,0,1,.2,1.36V17h-3.15V12.2a1.55,1.55,0,0,0-.25-1,1,1,0,0,0-.8-.32,1.19,1.19,0,0,0-.92.35,1.6,1.6,0,0,0-.33,1.11V17h-3.16Z"/><path class="cls-60" d="M245.39,8.63h3.15v1.7a2.87,2.87,0,0,1,1.07-1.4,2.92,2.92,0,0,1,1.62-.41v3a3.4,3.4,0,0,0-2,.34,1.46,1.46,0,0,0-.69,1.34V17h-3.15Z"/><path class="cls-60" d="M174.73,21.41h1.94l3.53,8.92,3.43-8.92h1.92V32.85h-1.39V23.22l-3.8,9.63h-.43L176,23.22v9.63h-1.28Z"/><path class="cls-60" d="M189.2,22.74a.87.87,0,1,1,.62-.25A.85.85,0,0,1,189.2,22.74Zm-.64,1.75h1.33v8.36h-1.33Z"/><path class="cls-60" d="M195.34,33a2.2,2.2,0,0,1-1.7-.61,2.29,2.29,0,0,1-.55-1.6V25.61h-1.2V24.49h1.2V22.58h1.32v1.91h2v1.12h-2v5c0,.81.35,1.22,1,1.22a3,3,0,0,0,.56-.05,3.62,3.62,0,0,0,.47-.13v1.12a2.91,2.91,0,0,1-.47.13A3.9,3.9,0,0,1,195.34,33Z"/><path class="cls-60" d="M201.21,33a2.2,2.2,0,0,1-1.7-.61,2.29,2.29,0,0,1-.55-1.6V25.61h-1.2V24.49H199V22.58h1.32v1.91h2v1.12h-2v5c0,.81.35,1.22,1,1.22a2.9,2.9,0,0,0,.56-.05,3.62,3.62,0,0,0,.47-.13v1.12a2.65,2.65,0,0,1-.47.13A3.9,3.9,0,0,1,201.21,33Z"/><path class="cls-60" d="M206.72,33a3.83,3.83,0,0,1-1.09-.15,2.4,2.4,0,0,1-.89-.44,2.15,2.15,0,0,1-.59-.77,2.68,2.68,0,0,1-.22-1.11,2.06,2.06,0,0,1,.35-1.21,2.62,2.62,0,0,1,.94-.8,4.76,4.76,0,0,1,1.35-.44,8.76,8.76,0,0,1,1.55-.14h1.2v-.6a2,2,0,0,0-.41-1.44,1.86,1.86,0,0,0-1.38-.44c-1.15,0-1.79.5-1.92,1.49h-1.33a2.92,2.92,0,0,1,.37-1.22,2.3,2.3,0,0,1,.75-.8,2.94,2.94,0,0,1,1-.45,5.08,5.08,0,0,1,1.18-.14,4.89,4.89,0,0,1,1.15.14,2.43,2.43,0,0,1,1,.48,2.49,2.49,0,0,1,.67.92,3.59,3.59,0,0,1,.25,1.45v5.52h-1.33V31.8a3,3,0,0,1-1.07.89A3.28,3.28,0,0,1,206.72,33Zm.13-1.06a3.46,3.46,0,0,0,1-.13,2.4,2.4,0,0,0,.78-.4,1.76,1.76,0,0,0,.52-.63,1.8,1.8,0,0,0,.19-.85v-1h-1.15A8.45,8.45,0,0,0,207,29a3.91,3.91,0,0,0-.93.28,1.51,1.51,0,0,0-.6.51,1.27,1.27,0,0,0-.22.77,1.49,1.49,0,0,0,.35,1A1.67,1.67,0,0,0,206.85,31.94Z"/><path class="cls-60" d="M216.8,35.91a5.47,5.47,0,0,1-1.61-.21,3.78,3.78,0,0,1-1.14-.55,2.52,2.52,0,0,1-.71-.82,2.88,2.88,0,0,1-.33-1h1.35c.2,1,1,1.46,2.42,1.46a2.93,2.93,0,0,0,2-.62,2.41,2.41,0,0,0,.73-2V31a3,3,0,0,1-1.15,1.09,3.62,3.62,0,0,1-.8.36,2.93,2.93,0,0,1-.88.13,4,4,0,0,1-1.52-.29,3.57,3.57,0,0,1-1.21-.83,3.75,3.75,0,0,1-.79-1.25,4.38,4.38,0,0,1-.29-1.6V28.5a4.59,4.59,0,0,1,.29-1.61,4.09,4.09,0,0,1,.8-1.32,3.7,3.7,0,0,1,1.23-.9,3.76,3.76,0,0,1,1.58-.33,3,3,0,0,1,1.71.44,3.43,3.43,0,0,1,1,1V24.49h1.33v7.8a3.81,3.81,0,0,1-.31,1.6,3,3,0,0,1-.83,1.12,3.48,3.48,0,0,1-1.26.68A5.38,5.38,0,0,1,216.8,35.91Zm0-4.45a2.8,2.8,0,0,0,1.08-.2,2.35,2.35,0,0,0,.87-.57,2.63,2.63,0,0,0,.58-.92,3.52,3.52,0,0,0,.21-1.25v-.11a3.13,3.13,0,0,0-.71-2.18,2.55,2.55,0,0,0-1.95-.77,2.83,2.83,0,0,0-1.12.22,2.35,2.35,0,0,0-.83.62,2.76,2.76,0,0,0-.52.94,3.77,3.77,0,0,0-.19,1.2v.13a3.27,3.27,0,0,0,.21,1.21,2.86,2.86,0,0,0,.56.91,2.21,2.21,0,0,0,.81.57A2.45,2.45,0,0,0,216.78,31.46Z"/><path class="cls-60" d="M227.1,33a4.08,4.08,0,0,1-1.63-.31,3.73,3.73,0,0,1-1.28-.85,3.91,3.91,0,0,1-.84-1.34,4.81,4.81,0,0,1-.3-1.74v-.13a5.12,5.12,0,0,1,.29-1.74,4,4,0,0,1,.81-1.36,3.78,3.78,0,0,1,1.24-.88,4.08,4.08,0,0,1,1.58-.31,4.16,4.16,0,0,1,1.4.24,3.2,3.2,0,0,1,1.21.73,3.48,3.48,0,0,1,.84,1.3,5.22,5.22,0,0,1,.31,1.92V29h-6.3a3.29,3.29,0,0,0,.72,2.16,2.5,2.5,0,0,0,2,.75c1.31,0,2-.48,2.22-1.43h1.33a2.76,2.76,0,0,1-1.19,1.9A4.15,4.15,0,0,1,227.1,33Zm2.27-5.14a2.59,2.59,0,0,0-.72-1.84,2.47,2.47,0,0,0-1.68-.56,2.27,2.27,0,0,0-1.67.65,3,3,0,0,0-.82,1.75Z"/><path class="cls-60" d="M235.63,33a3.56,3.56,0,0,1-2.36-.72,2.67,2.67,0,0,1-.92-2h1.3a1.85,1.85,0,0,0,.52,1.19,2,2,0,0,0,1.44.43,2.35,2.35,0,0,0,1.4-.33,1.19,1.19,0,0,0,.43-1,1,1,0,0,0-.49-.94,4.46,4.46,0,0,0-1.47-.46,9.32,9.32,0,0,1-1.37-.35,2.74,2.74,0,0,1-.9-.49,1.69,1.69,0,0,1-.48-.68,2.49,2.49,0,0,1-.16-.95,2,2,0,0,1,.26-1,2.35,2.35,0,0,1,.66-.74,3.36,3.36,0,0,1,.91-.45,3.52,3.52,0,0,1,1-.15,4.7,4.7,0,0,1,1.08.12,2.65,2.65,0,0,1,.92.41,2.49,2.49,0,0,1,.68.76,2.89,2.89,0,0,1,.35,1.14h-1.28a1.68,1.68,0,0,0-.55-1,2.06,2.06,0,0,0-1.21-.31,1.83,1.83,0,0,0-1.15.33,1,1,0,0,0-.43.87,1.15,1.15,0,0,0,.08.48.88.88,0,0,0,.32.35,2.12,2.12,0,0,0,.6.27,7.6,7.6,0,0,0,.95.22c.42.08.82.18,1.18.28a3.38,3.38,0,0,1,.94.41,1.81,1.81,0,0,1,.6.69,2.34,2.34,0,0,1,.22,1.1,2.37,2.37,0,0,1-.77,1.84A3.3,3.3,0,0,1,235.63,33Z"/><path class="cls-60" d="M243.5,33a3.56,3.56,0,0,1-2.36-.72,2.67,2.67,0,0,1-.92-2h1.3a1.85,1.85,0,0,0,.52,1.19,2,2,0,0,0,1.44.43,2.35,2.35,0,0,0,1.4-.33,1.19,1.19,0,0,0,.43-1,1,1,0,0,0-.49-.94,4.48,4.48,0,0,0-1.46-.46,9.16,9.16,0,0,1-1.38-.35,2.74,2.74,0,0,1-.9-.49,1.69,1.69,0,0,1-.48-.68,2.49,2.49,0,0,1-.16-.95,2,2,0,0,1,.26-1,2.35,2.35,0,0,1,.66-.74,3.28,3.28,0,0,1,.92-.45,3.46,3.46,0,0,1,1-.15,4.68,4.68,0,0,1,1.07.12,2.65,2.65,0,0,1,.92.41,2.49,2.49,0,0,1,.68.76,2.89,2.89,0,0,1,.35,1.14H245a1.68,1.68,0,0,0-.55-1,2,2,0,0,0-1.21-.31,1.85,1.85,0,0,0-1.15.33,1,1,0,0,0-.43.87,1.34,1.34,0,0,0,.08.48.88.88,0,0,0,.32.35,2.42,2.42,0,0,0,.6.27,7.6,7.6,0,0,0,.95.22c.43.08.82.18,1.18.28a3.38,3.38,0,0,1,.94.41,1.93,1.93,0,0,1,.61.69,2.48,2.48,0,0,1,.21,1.1,2.34,2.34,0,0,1-.77,1.84A3.3,3.3,0,0,1,243.5,33Z"/><path class="cls-60" d="M252.21,33a4.13,4.13,0,0,1-1.64-.31,3.82,3.82,0,0,1-1.28-.85,3.91,3.91,0,0,1-.84-1.34,5,5,0,0,1-.29-1.74v-.13a5.12,5.12,0,0,1,.28-1.74,4.39,4.39,0,0,1,.81-1.36,3.78,3.78,0,0,1,1.24-.88,4.1,4.1,0,0,1,1.59-.31,4.21,4.21,0,0,1,1.4.24,3.24,3.24,0,0,1,2,2,5.21,5.21,0,0,1,.32,1.92V29h-6.31a3.4,3.4,0,0,0,.72,2.16,2.52,2.52,0,0,0,2,.75c1.31,0,2.05-.48,2.22-1.43h1.33a2.75,2.75,0,0,1-1.18,1.9A4.19,4.19,0,0,1,252.21,33Zm2.27-5.14a2.64,2.64,0,0,0-.73-1.84,2.44,2.44,0,0,0-1.67-.56,2.27,2.27,0,0,0-1.67.65,3,3,0,0,0-.83,1.75Z"/><path class="cls-60" d="M258.06,24.49h1.33v1.32a2.62,2.62,0,0,1,1-1,3.11,3.11,0,0,1,1.72-.44,3.48,3.48,0,0,1,1.18.19,2.31,2.31,0,0,1,.94.59,2.68,2.68,0,0,1,.6,1.05,4.67,4.67,0,0,1,.22,1.55v5.13h-1.33V27.6a2.31,2.31,0,0,0-.48-1.62,1.91,1.91,0,0,0-1.49-.52,2.62,2.62,0,0,0-.88.15,2.07,2.07,0,0,0-.75.43,2.13,2.13,0,0,0-.51.72,2.41,2.41,0,0,0-.19,1v5.09h-1.33Z"/><path class="cls-60" d="M174.64,40.34H176v1.28a2.48,2.48,0,0,1,.93-1,2.8,2.8,0,0,1,1.56-.42,3,3,0,0,1,1.47.36,2.19,2.19,0,0,1,1,1.21,2.43,2.43,0,0,1,.54-.69,3.67,3.67,0,0,1,.72-.49,3.5,3.5,0,0,1,.8-.29,3.89,3.89,0,0,1,.8-.1,3.26,3.26,0,0,1,1.08.18,2.25,2.25,0,0,1,.89.58,2.89,2.89,0,0,1,.62,1,4.59,4.59,0,0,1,.23,1.54v5.19h-1.33V43.4a2.34,2.34,0,0,0-.45-1.6,1.77,1.77,0,0,0-1.33-.49,2.45,2.45,0,0,0-.8.14,2.05,2.05,0,0,0-.71.42,2.21,2.21,0,0,0-.5.71,2.32,2.32,0,0,0-.19,1v5.15H180V43.4a2.28,2.28,0,0,0-.46-1.6,1.73,1.73,0,0,0-1.32-.49,2.56,2.56,0,0,0-.81.14,2,2,0,0,0-.7.42,1.94,1.94,0,0,0-.5.71,2.32,2.32,0,0,0-.19,1v5.15h-1.33Z"/><path class="cls-60" d="M190.06,38.59a.84.84,0,0,1-.62-.25.89.89,0,0,1,.62-1.51.88.88,0,0,1,.63.26.91.91,0,0,1,0,1.25A.87.87,0,0,1,190.06,38.59Zm-.64,1.75h1.33v8.37h-1.33Z"/><path class="cls-60" d="M196.2,48.82a2.18,2.18,0,0,1-1.7-.61,2.29,2.29,0,0,1-.55-1.6V41.46h-1.2V40.34H194V38.43h1.33v1.91h1.95v1.12h-1.95v5c0,.81.34,1.22,1,1.22a3.06,3.06,0,0,0,.56-.05,2.42,2.42,0,0,0,.46-.13v1.12a2.78,2.78,0,0,1-.46.13A4,4,0,0,1,196.2,48.82Z"/><path class="cls-60" d="M206.37,48.85a3.54,3.54,0,0,1-2.36-.72,2.62,2.62,0,0,1-.92-2h1.29a1.88,1.88,0,0,0,.52,1.19,2,2,0,0,0,1.45.43,2.31,2.31,0,0,0,1.39-.33,1.15,1.15,0,0,0,.43-1,1,1,0,0,0-.48-.94,4.55,4.55,0,0,0-1.47-.46,8.2,8.2,0,0,1-1.37-.35,2.71,2.71,0,0,1-.9-.48,1.82,1.82,0,0,1-.49-.69,2.71,2.71,0,0,1-.15-1,1.88,1.88,0,0,1,.26-1,2.46,2.46,0,0,1,.66-.74,3.48,3.48,0,0,1,1.91-.6,4.68,4.68,0,0,1,1.07.12,2.49,2.49,0,0,1,.92.42,2.35,2.35,0,0,1,.68.75,3.05,3.05,0,0,1,.36,1.15h-1.28a1.58,1.58,0,0,0-.56-1,1.93,1.93,0,0,0-1.2-.32,1.88,1.88,0,0,0-1.16.33,1.06,1.06,0,0,0-.43.87,1.14,1.14,0,0,0,.09.48.79.79,0,0,0,.31.35,2.42,2.42,0,0,0,.6.27,6.45,6.45,0,0,0,1,.22c.43.08.83.18,1.19.28a3.31,3.31,0,0,1,.93.41,1.84,1.84,0,0,1,.61.69,2.34,2.34,0,0,1,.22,1.1,2.37,2.37,0,0,1-.77,1.84A3.3,3.3,0,0,1,206.37,48.85Z"/><path class="cls-60" d="M215.12,48.85a4.22,4.22,0,0,1-1.65-.32,3.91,3.91,0,0,1-1.3-.89,4.05,4.05,0,0,1-.84-1.35,4.51,4.51,0,0,1-.31-1.7v-.12a4.8,4.8,0,0,1,.31-1.73,4.06,4.06,0,0,1,.86-1.35,3.61,3.61,0,0,1,1.29-.88,4.29,4.29,0,0,1,1.65-.32,4.21,4.21,0,0,1,1.64.32,3.67,3.67,0,0,1,1.31.87,3.93,3.93,0,0,1,.85,1.34,4.59,4.59,0,0,1,.32,1.73v.13a4.59,4.59,0,0,1-.32,1.73,3.9,3.9,0,0,1-.86,1.36,4,4,0,0,1-1.3.87A4.29,4.29,0,0,1,215.12,48.85Zm0-1.12a2.79,2.79,0,0,0,1.14-.22,2.29,2.29,0,0,0,.86-.64,2.93,2.93,0,0,0,.55-1,4,4,0,0,0,.19-1.28v-.11a4.08,4.08,0,0,0-.19-1.3,2.89,2.89,0,0,0-.55-1,2.5,2.5,0,0,0-.87-.63,2.71,2.71,0,0,0-1.13-.23,2.78,2.78,0,0,0-1.13.23,2.5,2.5,0,0,0-.87.63,3.09,3.09,0,0,0-.54,1,4.08,4.08,0,0,0-.19,1.3v.12a3.38,3.38,0,0,0,.73,2.29A2.47,2.47,0,0,0,215.13,47.73Z"/><path class="cls-60" d="M220.25,48.51l4.95-7h-4.47V40.34h6.52v.24l-4.84,7h4.77v1.17h-6.93Z"/><path class="cls-60" d="M229.85,38.59a.84.84,0,0,1-.62-.25.88.88,0,1,1,1.25-1.25.88.88,0,0,1-.63,1.5Zm-.64,1.75h1.33v8.37h-1.33Z"/><path class="cls-60" d="M235.55,48.85a4.28,4.28,0,0,1-1.09-.14,2.58,2.58,0,0,1-.89-.45,2.17,2.17,0,0,1-.59-.77,2.67,2.67,0,0,1-.21-1.1,2,2,0,0,1,.35-1.22,2.51,2.51,0,0,1,.93-.8,4.76,4.76,0,0,1,1.35-.44,8.79,8.79,0,0,1,1.56-.14h1.2v-.6a2,2,0,0,0-.42-1.44,1.84,1.84,0,0,0-1.38-.44c-1.15,0-1.79.5-1.92,1.49h-1.32a2.74,2.74,0,0,1,.36-1.21,2.43,2.43,0,0,1,.75-.81,2.94,2.94,0,0,1,1-.45,5.08,5.08,0,0,1,1.18-.14,4.89,4.89,0,0,1,1.15.14,2.43,2.43,0,0,1,1,.48,2.58,2.58,0,0,1,.67.92,3.61,3.61,0,0,1,.25,1.46v5.52h-1.32V47.65a3.36,3.36,0,0,1-1.07.9A3.49,3.49,0,0,1,235.55,48.85Zm.13-1.06a3.42,3.42,0,0,0,1-.13,2.2,2.2,0,0,0,.78-.39,1.82,1.82,0,0,0,.72-1.49v-1H237a6.92,6.92,0,0,0-1.16.09,3,3,0,0,0-.93.28,1.45,1.45,0,0,0-.61.5,1.38,1.38,0,0,0-.22.78,1.48,1.48,0,0,0,.35,1A1.67,1.67,0,0,0,235.68,47.79Z"/><path class="cls-60" d="M242.32,36.34h1.34V48.71h-1.34Z"/><path class="cls-60" d="M250,48.85a4.26,4.26,0,0,1-1.63-.3,3.8,3.8,0,0,1-1.28-.86,3.55,3.55,0,0,1-.84-1.34,4.81,4.81,0,0,1-.3-1.74v-.13a5,5,0,0,1,.29-1.73,3.85,3.85,0,0,1,.81-1.36,3.43,3.43,0,0,1,1.24-.88,3.88,3.88,0,0,1,1.58-.32,4.16,4.16,0,0,1,1.4.24,3.27,3.27,0,0,1,1.21.73,3.57,3.57,0,0,1,.84,1.3,5.44,5.44,0,0,1,.31,1.92v.44h-6.3a3.29,3.29,0,0,0,.72,2.16,2.48,2.48,0,0,0,2,.75c1.32,0,2.06-.48,2.23-1.42h1.33a2.79,2.79,0,0,1-1.19,1.9A4.16,4.16,0,0,1,250,48.85Zm2.27-5.14a2.62,2.62,0,0,0-.73-1.84,2.44,2.44,0,0,0-1.67-.56,2.27,2.27,0,0,0-1.67.65,3.1,3.1,0,0,0-.83,1.75Z"/><path class="cls-60" d="M255.85,40.34h1.33v1.33a2.65,2.65,0,0,1,1-1,3.14,3.14,0,0,1,1.72-.44,3.44,3.44,0,0,1,1.18.19A2.25,2.25,0,0,1,262,41,2.83,2.83,0,0,1,262.6,42a5,5,0,0,1,.21,1.55v5.14h-1.32V43.45a2.31,2.31,0,0,0-.48-1.62,1.93,1.93,0,0,0-1.49-.52,2.64,2.64,0,0,0-.89.15,2,2,0,0,0-.74.43,2.06,2.06,0,0,0-.52.73,2.53,2.53,0,0,0-.19,1v5.1h-1.33Z"/><path class="cls-60" d="M174.73,53.12h1.94L180.2,62l3.43-8.91h1.92V64.56h-1.39V54.92l-3.8,9.64h-.43L176,54.92v9.64h-1.28Z"/><path class="cls-60" d="M192,64.7a4.26,4.26,0,0,1-1.63-.3,3.9,3.9,0,0,1-1.28-.86,3.55,3.55,0,0,1-.84-1.34,4.81,4.81,0,0,1-.3-1.74v-.13a5,5,0,0,1,.29-1.73,3.94,3.94,0,0,1,.81-1.36,3.43,3.43,0,0,1,1.24-.88,3.91,3.91,0,0,1,1.58-.32,4.16,4.16,0,0,1,1.4.24,3.27,3.27,0,0,1,1.21.73,3.57,3.57,0,0,1,.84,1.3,5.22,5.22,0,0,1,.31,1.92v.44h-6.3a3.29,3.29,0,0,0,.72,2.16,2.49,2.49,0,0,0,2,.75c1.31,0,2.05-.47,2.22-1.42h1.33a2.79,2.79,0,0,1-1.19,1.9A4.16,4.16,0,0,1,192,64.7Zm2.27-5.14a2.62,2.62,0,0,0-.73-1.84,2.44,2.44,0,0,0-1.67-.56,2.27,2.27,0,0,0-1.67.65,3,3,0,0,0-.82,1.75Z"/><path class="cls-60" d="M201,64.7a4,4,0,0,1-1.52-.28,3.42,3.42,0,0,1-1.2-.82,3.77,3.77,0,0,1-.78-1.31,5,5,0,0,1-.28-1.75v-.13a5.24,5.24,0,0,1,.29-1.76,4.28,4.28,0,0,1,.8-1.38,3.59,3.59,0,0,1,1.23-.91,3.93,3.93,0,0,1,1.59-.32,3.05,3.05,0,0,1,1.71.44,3.5,3.5,0,0,1,1,1.05V52.19h1.33V64.56h-1.33V63.12a2.83,2.83,0,0,1-.48.59,3.41,3.41,0,0,1-.68.5,3.67,3.67,0,0,1-.81.35A2.76,2.76,0,0,1,201,64.7Zm.14-1.12a3,3,0,0,0,1.09-.19,2.37,2.37,0,0,0,.88-.58,2.82,2.82,0,0,0,.58-1,3.94,3.94,0,0,0,.22-1.39V60.3a3.41,3.41,0,0,0-.71-2.37,2.55,2.55,0,0,0-1.95-.77,2.43,2.43,0,0,0-2,.83,3.54,3.54,0,0,0-.7,2.36v.13a4,4,0,0,0,.2,1.37,2.75,2.75,0,0,0,.54,1,2.3,2.3,0,0,0,.81.57A2.53,2.53,0,0,0,201.1,63.58Z"/><path class="cls-60" d="M208.7,54.44a.84.84,0,0,1-.62-.25.89.89,0,0,1,.62-1.51.84.84,0,0,1,.62.26.88.88,0,0,1,0,1.25A.83.83,0,0,1,208.7,54.44Zm-.64,1.75h1.33v8.37h-1.33Z"/><path class="cls-60" d="M215.73,64.7a4.32,4.32,0,0,1-1.64-.3,4,4,0,0,1-1.28-.86A3.82,3.82,0,0,1,212,62.2a5,5,0,0,1-.29-1.74v-.13A4.8,4.8,0,0,1,212,58.6a4.08,4.08,0,0,1,.8-1.36,3.51,3.51,0,0,1,1.24-.88A3.93,3.93,0,0,1,215.6,56a4.21,4.21,0,0,1,1.4.24,3.23,3.23,0,0,1,1.2.73,3.33,3.33,0,0,1,.84,1.3,5.21,5.21,0,0,1,.32,1.92v.44h-6.31a3.34,3.34,0,0,0,.72,2.16,2.52,2.52,0,0,0,2,.75c1.31,0,2-.47,2.22-1.42h1.33a2.77,2.77,0,0,1-1.18,1.9A4.19,4.19,0,0,1,215.73,64.7ZM218,59.56a2.66,2.66,0,0,0-.73-1.84,2.44,2.44,0,0,0-1.67-.56,2.25,2.25,0,0,0-1.67.65,3,3,0,0,0-.83,1.75Z"/><path class="cls-60" d="M221.58,56.19h1.33v1.33a2.58,2.58,0,0,1,1-1A3.11,3.11,0,0,1,225.6,56a3.74,3.74,0,0,1,1.18.19,2.31,2.31,0,0,1,.94.59,2.68,2.68,0,0,1,.6,1,4.71,4.71,0,0,1,.22,1.55v5.14h-1.33V59.3a2.31,2.31,0,0,0-.48-1.62,2,2,0,0,0-1.49-.52,2.62,2.62,0,0,0-.88.15,2.23,2.23,0,0,0-.75.43,2.28,2.28,0,0,0-.51.73,2.4,2.4,0,0,0-.19,1v5.1h-1.33Z"/></g></g></svg>