<svg xmlns="http://www.w3.org/2000/svg" xmlns:xlink="http://www.w3.org/1999/xlink" viewBox="0 0 217.74 107.54"><defs><style>.cls-1{fill:none;}.cls-2{fill:#5f89d3;}.cls-3{fill:#e9f4f4;}.cls-4{clip-path:url(#clip-path);}.cls-5{fill:#ea916e;}.cls-6{fill:#6d6260;}.cls-7{fill:#aa9d9b;}.cls-8{fill:#e0e0df;}.cls-9{fill:#423f3f;}.cls-10{fill:#005881;}.cls-11,.cls-13{fill:#fff;}.cls-12{fill:#6f8393;}.cls-13{opacity:0.15;}.cls-14{fill:#ffc1a9;}.cls-15{fill:#3d4949;}.cls-16{fill:#505046;}</style><clipPath id="clip-path"><circle class="cls-1" cx="58.89" cy="53.71" r="49.27"/></clipPath></defs><title>16Uhr</title><g id="Ebene_2" data-name="Ebene 2"><g id="_16:00" data-name="16:00"><path class="cls-2" d="M0,12.32,11.36,28.76A53.66,53.66,0,1,0,25.45,11.7a54.43,54.43,0,0,0-5.46,5Z"/><circle class="cls-3" cx="58.89" cy="53.71" r="49.27"/><g class="cls-4"><path class="cls-5" d="M58.79,105.2s4.51-.23,5.71-2.32,4.34-16.66,3.94-24.18S67.62,65,67.62,65s8.06-15.63,7.2-22.19c0,0-1.33-4.94-4.48,1.93s-20.85,6.12-20.85,6.12l-8.71,1.46s-.41,14-.7,16.63.21,27,6.21,35.4C46.29,104.32,48.33,107,58.79,105.2Z"/><path class="cls-6" d="M37.45,27.1l1-3.47,10,61.25a.88.88,0,0,0,1,.78l32-3.21-.77,1.74A3.16,3.16,0,0,1,78,86.37l-30.1,2a1.48,1.48,0,0,1-1.64-1.3l-9-58.47A3.25,3.25,0,0,1,37.45,27.1Z"/><path class="cls-7" d="M79.78,83.79,49.37,85.66a.91.91,0,0,1-1-.79l-10-60.58a1.92,1.92,0,0,1,1.64-2l29.67-1.83a1.69,1.69,0,0,1,1.85,1.47l9.89,59.86A1.92,1.92,0,0,1,79.78,83.79Z"/><polygon class="cls-8" points="79.31 80.26 50.29 82.05 41.2 26.49 70.22 24.7 79.31 80.26"/><path class="cls-9" d="M56.17,23.66a1.24,1.24,0,0,1-1.32,1.14,1.48,1.48,0,0,1-1.33-1.27,1.23,1.23,0,0,1,1.27-1.42A1.44,1.44,0,0,1,56.17,23.66Z"/><polygon class="cls-10" points="71 29.45 70.22 24.7 41.2 26.49 42.01 31.36 71 29.45"/><polygon class="cls-11" points="44.33 35.04 45.81 44.8 71.93 42.9 70.33 33.2 44.33 35.04"/><polygon class="cls-11" points="44.33 35.04 45.81 44.8 71.93 42.9 70.33 33.2 44.33 35.04"/><polygon class="cls-12" points="69.7 35.76 45.97 37.45 45.81 36.46 69.55 34.77 69.7 35.76"/><polygon class="cls-12" points="69.92 37.2 46.19 38.89 46.04 37.91 69.77 36.22 69.92 37.2"/><polygon class="cls-12" points="70.14 38.65 46.41 40.34 46.26 39.35 69.99 37.66 70.14 38.65"/><polygon class="cls-12" points="61.76 40.71 46.63 41.79 46.48 40.8 61.61 39.72 61.76 40.71"/><polygon class="cls-11" points="46.09 46.65 47.57 56.41 73.69 54.51 72.09 44.8 46.09 46.65"/><polygon class="cls-12" points="71.46 47.36 47.73 49.05 47.58 48.06 71.31 46.38 71.46 47.36"/><polygon class="cls-12" points="71.68 48.81 47.95 50.5 47.8 49.51 71.53 47.82 71.68 48.81"/><polygon class="cls-12" points="71.9 50.26 48.17 51.95 48.02 50.96 71.75 49.27 71.9 50.26"/><polygon class="cls-12" points="63.52 52.32 48.39 53.4 48.24 52.41 63.37 51.33 63.52 52.32"/><polygon class="cls-11" points="47.85 58.26 49.34 68.02 75.45 66.12 73.85 56.41 47.85 58.26"/><polygon class="cls-12" points="73.22 58.97 49.49 60.66 49.34 59.67 73.07 57.98 73.22 58.97"/><polygon class="cls-12" points="73.44 60.42 49.71 62.11 49.56 61.12 73.29 59.43 73.44 60.42"/><polygon class="cls-12" points="73.66 61.87 49.93 63.55 49.78 62.57 73.51 60.88 73.66 61.87"/><polygon class="cls-12" points="65.28 63.93 50.15 65 50 64.02 65.13 62.94 65.28 63.93"/><polygon class="cls-11" points="49.61 69.86 51.1 79.62 77.22 77.72 75.61 68.02 49.61 69.86"/><polygon class="cls-12" points="74.98 70.58 51.25 72.27 51.1 71.28 74.83 69.59 74.98 70.58"/><polygon class="cls-12" points="75.2 72.03 51.47 73.71 51.32 72.73 75.05 71.04 75.2 72.03"/><polygon class="cls-12" points="75.42 73.47 51.69 75.16 51.54 74.17 75.27 72.48 75.42 73.47"/><polygon class="cls-12" points="67.04 75.53 51.91 76.61 51.76 75.62 66.89 74.55 67.04 75.53"/><polygon class="cls-13" points="41.2 26.49 50.29 82.05 79.31 80.26 78.03 72.44 45.39 26.23 41.2 26.49"/><path class="cls-14" d="M47.25,106.09A28.5,28.5,0,0,1,43.58,89.4c.71-10.12.43-12.69,1-15S52,61.09,52.65,60.36s8.76-7.74,9.34-8.57,2.79,2.8-.85,7.63-4.78,6.66-5.3,8.28-2.39,6.84-1.17,11,3.86,14.67,2.32,21S51.57,109.78,47.25,106.09Z"/><path class="cls-15" d="M40,22.25l12-1,11.95-.87c2-.14,3.94-.3,6-.4a2.07,2.07,0,0,1,2,1.66c.06.29.09.51.14.76l.5,3,2,11.82,3.8,23.67,1.83,11.85L81,78.67l.44,3a1.94,1.94,0,0,1-1.68,2.15,1.87,1.87,0,0,0,1.56-2.13l-.54-3-1.09-5.9L77.63,61l-4-23.64L71.7,25.53l-.48-3-.12-.72a1.21,1.21,0,0,0-.23-.53,1.22,1.22,0,0,0-1-.51L64,21.13l-12,.61Z"/><path class="cls-14" d="M78.78,59.18s1.73-.26,2.17,2.16.55,5.57-1.64,5.54-3.18-3.09-2.93-4.53S77.57,59.44,78.78,59.18Z"/><path class="cls-14" d="M81.43,67.57a3.64,3.64,0,0,1,.64,3.2c-.61,1.64-4.32,3.28-5.19,3.63s-1.89-2.67.57-5.49S81,66.82,81.43,67.57Z"/></g><path class="cls-16" d="M126.09,30.55,124,31.82v-3L126.6,27h3.12V38.42h-3.63Z"/><path class="cls-16" d="M136.55,38.63a6.41,6.41,0,0,1-2.4-.41,4.12,4.12,0,0,1-1.61-1.17,4.64,4.64,0,0,1-.91-1.8,8.37,8.37,0,0,1-.29-2.3v-.3a7,7,0,0,1,.4-2.46,5.4,5.4,0,0,1,1.11-1.83,4.72,4.72,0,0,1,1.67-1.15,5.27,5.27,0,0,1,2.07-.4,5.16,5.16,0,0,1,3.2.88,3.56,3.56,0,0,1,1.32,2.62h-3.32a1.29,1.29,0,0,0-.28-.6,1,1,0,0,0-.76-.23,1.47,1.47,0,0,0-1.33.7,4.07,4.07,0,0,0-.5,2,3.21,3.21,0,0,1,.43-.53,2,2,0,0,1,.54-.41,3,3,0,0,1,.71-.26,3.79,3.79,0,0,1,1-.1,4.63,4.63,0,0,1,1.45.22,3.56,3.56,0,0,1,1.22.68,3.24,3.24,0,0,1,.83,1.15,4,4,0,0,1,.3,1.61,4.06,4.06,0,0,1-.32,1.66,3.43,3.43,0,0,1-1,1.27,4.57,4.57,0,0,1-1.51.83A6.54,6.54,0,0,1,136.55,38.63Zm-.06-2.54a1.19,1.19,0,0,0,1-.43,1.57,1.57,0,0,0,.36-1.06,1.52,1.52,0,0,0-.35-1,1.19,1.19,0,0,0-1-.42,1.25,1.25,0,0,0-1,.43,1.52,1.52,0,0,0-.36,1,1.57,1.57,0,0,0,.36,1.06A1.19,1.19,0,0,0,136.49,36.09Z"/><path class="cls-16" d="M144,34.07a1.83,1.83,0,0,1-.71-.13,1.87,1.87,0,0,1-.55-.36,1.7,1.7,0,0,1-.36-.54,1.82,1.82,0,0,1,0-1.35,1.64,1.64,0,0,1,.36-.55,1.72,1.72,0,0,1,.55-.37,1.83,1.83,0,0,1,.71-.14,2,2,0,0,1,.72.14,1.7,1.7,0,0,1,.57.37,1.55,1.55,0,0,1,.38.55,1.7,1.7,0,0,1,0,1.35,1.6,1.6,0,0,1-.38.54,1.85,1.85,0,0,1-.57.36A2,2,0,0,1,144,34.07Zm0,4.55a1.72,1.72,0,1,1,0-3.44,2,2,0,0,1,.72.13,1.87,1.87,0,0,1,.57.37,1.71,1.71,0,0,1,.38.54,1.67,1.67,0,0,1,.14.67,1.62,1.62,0,0,1-.52,1.23A1.78,1.78,0,0,1,144,38.62Z"/><path class="cls-16" d="M152.33,38.63a6.23,6.23,0,0,1-2.22-.37,4.49,4.49,0,0,1-1.69-1.11,4.82,4.82,0,0,1-1.07-1.78,7.57,7.57,0,0,1-.36-2.43v-.45a6.52,6.52,0,0,1,.41-2.43,5,5,0,0,1,1.15-1.78,4.79,4.79,0,0,1,1.71-1.1,5.92,5.92,0,0,1,2.13-.37,6.43,6.43,0,0,1,2.13.34,4.7,4.7,0,0,1,1.72,1,4.9,4.9,0,0,1,1.15,1.75,6.38,6.38,0,0,1,.43,2.47v.43a7.22,7.22,0,0,1-.39,2.46,4.91,4.91,0,0,1-1.1,1.82,4.68,4.68,0,0,1-1.74,1.13A6.45,6.45,0,0,1,152.33,38.63Zm.11-2.78a1.45,1.45,0,0,0,1.37-.72,4.62,4.62,0,0,0,.41-2.22v-.42a4.42,4.42,0,0,0-.43-2.22,1.72,1.72,0,0,0-2.78,0,4.45,4.45,0,0,0-.42,2.21v.45a4.47,4.47,0,0,0,.42,2.21A1.54,1.54,0,0,0,152.44,35.85Z"/><path class="cls-16" d="M164.19,38.63a6.25,6.25,0,0,1-2.23-.37,4.65,4.65,0,0,1-1.69-1.11,4.93,4.93,0,0,1-1.06-1.78,7.56,7.56,0,0,1-.37-2.43v-.45a6.51,6.51,0,0,1,.42-2.43,5.14,5.14,0,0,1,1.14-1.78,5,5,0,0,1,1.71-1.1,6,6,0,0,1,2.14-.37,6.43,6.43,0,0,1,2.13.34,4.78,4.78,0,0,1,1.72,1,5,5,0,0,1,1.15,1.75,6.58,6.58,0,0,1,.42,2.47v.43a7.22,7.22,0,0,1-.38,2.46,5,5,0,0,1-1.1,1.82,4.68,4.68,0,0,1-1.74,1.13A6.49,6.49,0,0,1,164.19,38.63Zm.11-2.78a1.46,1.46,0,0,0,1.37-.72,4.64,4.64,0,0,0,.4-2.22v-.42a4.54,4.54,0,0,0-.42-2.22,1.72,1.72,0,0,0-2.78,0,4.32,4.32,0,0,0-.43,2.21v.45a4.35,4.35,0,0,0,.43,2.21A1.54,1.54,0,0,0,164.3,35.85Z"/><path class="cls-16" d="M179.35,38.63a5.59,5.59,0,0,1-3.88-1.23,4.75,4.75,0,0,1-1.35-3.7V27h3.62v6.58a5.7,5.7,0,0,0,.07,1,1.94,1.94,0,0,0,.25.69,1.06,1.06,0,0,0,.49.42,2.1,2.1,0,0,0,.8.13,1.35,1.35,0,0,0,1.28-.55,3.4,3.4,0,0,0,.32-1.69V27h3.65v6.69a6,6,0,0,1-.37,2.23,3.88,3.88,0,0,1-1,1.55,4.35,4.35,0,0,1-1.66.89A7.31,7.31,0,0,1,179.35,38.63Z"/><path class="cls-16" d="M186.31,26.42h3.16v5a2.9,2.9,0,0,1,1-1.12,3.07,3.07,0,0,1,1.73-.45,3.15,3.15,0,0,1,1.09.19,2.26,2.26,0,0,1,.85.58,2.81,2.81,0,0,1,.55,1,4.24,4.24,0,0,1,.2,1.36v5.5h-3.15v-4.8a1.55,1.55,0,0,0-.25-1,1,1,0,0,0-.81-.32,1.19,1.19,0,0,0-.92.36,1.61,1.61,0,0,0-.32,1.1v4.62h-3.16Z"/><path class="cls-16" d="M196.38,30.06h3.15v1.69a2.87,2.87,0,0,1,1.07-1.4,2.92,2.92,0,0,1,1.62-.41v2.95a3.4,3.4,0,0,0-2,.34,1.46,1.46,0,0,0-.69,1.34v3.85h-3.15Z"/><path class="cls-16" d="M128.09,42.83h1.82l3.88,11.45h-1.38L131.29,51h-4.72l-1.1,3.29h-1.32Zm-1.14,7h4l-2-5.88Z"/><path class="cls-16" d="M135.9,45.91h1.33v1.5a3.54,3.54,0,0,1,.44-.65,3,3,0,0,1,.56-.51,2.78,2.78,0,0,1,.76-.34,3.56,3.56,0,0,1,1-.15V47a6.26,6.26,0,0,0-1.14.16,2.22,2.22,0,0,0-.87.43,2,2,0,0,0-.55.81,3.58,3.58,0,0,0-.19,1.27v4.6H135.9Z"/><path class="cls-16" d="M146.27,54.42a3.23,3.23,0,0,1-1.75-.45,3.19,3.19,0,0,1-1.09-1.07v1.38h-1.32V41.91h1.32v5.41a2.59,2.59,0,0,1,.48-.59,3,3,0,0,1,.66-.49,3.59,3.59,0,0,1,.8-.35,3.38,3.38,0,0,1,.9-.13,4,4,0,0,1,1.52.29,3.27,3.27,0,0,1,1.2.83,4.1,4.1,0,0,1,.8,1.33,5.12,5.12,0,0,1,.28,1.76v.13a5.4,5.4,0,0,1-.27,1.75,4.16,4.16,0,0,1-.77,1.37,3.42,3.42,0,0,1-1.2.89A3.78,3.78,0,0,1,146.27,54.42Zm-.13-1.12a2.31,2.31,0,0,0,1.9-.81,3.58,3.58,0,0,0,.66-2.33V50a4.15,4.15,0,0,0-.21-1.37,2.93,2.93,0,0,0-.55-1,2.18,2.18,0,0,0-.82-.59,2.59,2.59,0,0,0-1-.2,3.23,3.23,0,0,0-1.08.19,2.44,2.44,0,0,0-.87.59,2.77,2.77,0,0,0-.58,1,4.48,4.48,0,0,0-.2,1.39v.13a4.16,4.16,0,0,0,.2,1.39,2.68,2.68,0,0,0,.56,1,2.26,2.26,0,0,0,.87.58A3.1,3.1,0,0,0,146.14,53.3Z"/><path class="cls-16" d="M155.75,54.42a4.3,4.3,0,0,1-1.63-.3,3.9,3.9,0,0,1-1.28-.86,3.82,3.82,0,0,1-.84-1.34,4.81,4.81,0,0,1-.29-1.74v-.13a5,5,0,0,1,.28-1.73A4.32,4.32,0,0,1,152.8,47a3.62,3.62,0,0,1,1.24-.87,3.93,3.93,0,0,1,1.59-.32A4.21,4.21,0,0,1,157,46a3.23,3.23,0,0,1,1.2.73,3.33,3.33,0,0,1,.84,1.3,5.21,5.21,0,0,1,.32,1.92v.44h-6.31a3.29,3.29,0,0,0,.72,2.16,2.52,2.52,0,0,0,2,.75c1.31,0,2-.47,2.22-1.43h1.33a2.77,2.77,0,0,1-1.18,1.91A4.28,4.28,0,0,1,155.75,54.42ZM158,49.28a2.64,2.64,0,0,0-.73-1.84,2.44,2.44,0,0,0-1.67-.56,2.29,2.29,0,0,0-1.68.65,3.09,3.09,0,0,0-.82,1.75Z"/><path class="cls-16" d="M162.28,44.16a.84.84,0,0,1-.62-.25.88.88,0,1,1,1.25-1.25.88.88,0,0,1-.63,1.5Zm-.64,1.75H163v8.37h-1.33Z"/><path class="cls-16" d="M168.43,54.39a2.23,2.23,0,0,1-1.71-.61,2.29,2.29,0,0,1-.55-1.6V47H165V45.91h1.2V44h1.33v1.91h1.95V47H167.5v5c0,.81.34,1.22,1,1.22a3.06,3.06,0,0,0,.56-.05,3.47,3.47,0,0,0,.46-.13v1.12a2.78,2.78,0,0,1-.46.13A4,4,0,0,1,168.43,54.39Z"/><path class="cls-16" d="M175.18,54.42a4.26,4.26,0,0,1-1.63-.3,3.8,3.8,0,0,1-1.28-.86,3.55,3.55,0,0,1-.84-1.34,4.81,4.81,0,0,1-.3-1.74v-.13a5,5,0,0,1,.29-1.73,4,4,0,0,1,.81-1.37,3.52,3.52,0,0,1,1.24-.87,3.88,3.88,0,0,1,1.58-.32,4.16,4.16,0,0,1,1.4.24,3.27,3.27,0,0,1,1.21.73,3.57,3.57,0,0,1,.84,1.3,5.22,5.22,0,0,1,.31,1.92v.44h-6.3a3.29,3.29,0,0,0,.72,2.16,2.48,2.48,0,0,0,2,.75c1.32,0,2.06-.47,2.23-1.43h1.33a2.78,2.78,0,0,1-1.19,1.91A4.24,4.24,0,0,1,175.18,54.42Zm2.27-5.14a2.6,2.6,0,0,0-.73-1.84,2.44,2.44,0,0,0-1.67-.56,2.27,2.27,0,0,0-1.67.65,3.1,3.1,0,0,0-.83,1.75Z"/><path class="cls-16" d="M181,45.91h1.33v1.33a2.65,2.65,0,0,1,1-1,3.14,3.14,0,0,1,1.72-.44,3.69,3.69,0,0,1,1.18.19,2.25,2.25,0,0,1,.94.59,2.83,2.83,0,0,1,.61,1.05,5,5,0,0,1,.21,1.55v5.14h-1.32V49a2.31,2.31,0,0,0-.48-1.62,1.93,1.93,0,0,0-1.49-.52,2.64,2.64,0,0,0-.89.15,2,2,0,0,0-.74.43,2.16,2.16,0,0,0-.52.73,2.53,2.53,0,0,0-.19,1v5.1H181Z"/><path class="cls-16" d="M195,45.91h1.33v1.28a2.51,2.51,0,0,1,.94-1,2.8,2.8,0,0,1,1.56-.42,3,3,0,0,1,1.47.36,2.23,2.23,0,0,1,1,1.21,2.15,2.15,0,0,1,.54-.69,3.16,3.16,0,0,1,.72-.49,3.34,3.34,0,0,1,.8-.29,3.25,3.25,0,0,1,.8-.1,3.21,3.21,0,0,1,1.07.18,2.29,2.29,0,0,1,.9.58,2.87,2.87,0,0,1,.61,1,4.33,4.33,0,0,1,.24,1.54v5.19h-1.33V49a2.28,2.28,0,0,0-.46-1.6,1.73,1.73,0,0,0-1.32-.49,2.51,2.51,0,0,0-.81.14,2,2,0,0,0-.7.42,1.9,1.9,0,0,0-.5.7,2.4,2.4,0,0,0-.2,1v5.15h-1.32V49a2.33,2.33,0,0,0-.46-1.6,1.73,1.73,0,0,0-1.32-.49,2.46,2.46,0,0,0-.81.14,2,2,0,0,0-.7.42,2,2,0,0,0-.51.7,2.57,2.57,0,0,0-.19,1v5.15H195Z"/><path class="cls-16" d="M210.46,44.16a.87.87,0,1,1,.62-.25A.85.85,0,0,1,210.46,44.16Zm-.64,1.75h1.33v8.37h-1.33Z"/><path class="cls-16" d="M216.6,54.39a2.2,2.2,0,0,1-1.7-.61,2.29,2.29,0,0,1-.56-1.6V47h-1.19V45.91h1.19V44h1.33v1.91h2V47h-2v5c0,.81.35,1.22,1,1.22a3,3,0,0,0,.56-.05,3.62,3.62,0,0,0,.47-.13v1.12a2.91,2.91,0,0,1-.47.13A3.9,3.9,0,0,1,216.6,54.39Z"/><path class="cls-16" d="M128.72,70.27a5.55,5.55,0,0,1-2-.3,3.57,3.57,0,0,1-1.3-.79,3.35,3.35,0,0,1-.78-1.15,5,5,0,0,1-.34-1.39h1.34a5.07,5.07,0,0,0,.22,1A2.14,2.14,0,0,0,127.3,69a4.33,4.33,0,0,0,1.42.2,3.4,3.4,0,0,0,1-.15,2.44,2.44,0,0,0,.83-.44,2.05,2.05,0,0,0,.55-.69,1.87,1.87,0,0,0,.2-.88,2.39,2.39,0,0,0-.13-.84,1.4,1.4,0,0,0-.43-.62,2.81,2.81,0,0,0-.85-.43,8,8,0,0,0-1.36-.3,11.85,11.85,0,0,1-1.6-.37,4.13,4.13,0,0,1-1.21-.58A2.33,2.33,0,0,1,125,63a3,3,0,0,1-.26-1.3,2.84,2.84,0,0,1,.27-1.23,3,3,0,0,1,.76-1,3.66,3.66,0,0,1,1.16-.66,4.44,4.44,0,0,1,1.49-.24,4.26,4.26,0,0,1,2.74.81,3.34,3.34,0,0,1,1.2,2.34H131.1a2.42,2.42,0,0,0-.85-1.56,3.1,3.1,0,0,0-1.84-.47,2.68,2.68,0,0,0-1.78.52,1.69,1.69,0,0,0-.6,1.34,2.41,2.41,0,0,0,.1.74,1.17,1.17,0,0,0,.4.57,2.78,2.78,0,0,0,.83.42,7.8,7.8,0,0,0,1.42.32,9.53,9.53,0,0,1,1.68.38,4.36,4.36,0,0,1,1.22.62,2.45,2.45,0,0,1,.74,1,3.46,3.46,0,0,1,.25,1.37,3,3,0,0,1-.3,1.34,3.29,3.29,0,0,1-.82,1.07,3.79,3.79,0,0,1-1.26.71A4.74,4.74,0,0,1,128.72,70.27Z"/><path class="cls-16" d="M138.62,70.27A4.22,4.22,0,0,1,137,70a3.91,3.91,0,0,1-1.3-.89,4.05,4.05,0,0,1-.84-1.35,4.51,4.51,0,0,1-.31-1.7v-.12a4.8,4.8,0,0,1,.31-1.73,4.16,4.16,0,0,1,.86-1.35,3.57,3.57,0,0,1,1.3-.88,4.36,4.36,0,0,1,3.28,0,3.58,3.58,0,0,1,1.31.87,3.93,3.93,0,0,1,.85,1.34,4.59,4.59,0,0,1,.32,1.73V66a4.59,4.59,0,0,1-.32,1.73,3.9,3.9,0,0,1-.86,1.36,4,4,0,0,1-1.3.87A4.25,4.25,0,0,1,138.62,70.27Zm0-1.12a2.79,2.79,0,0,0,1.14-.22,2.29,2.29,0,0,0,.86-.64,2.93,2.93,0,0,0,.55-1,4,4,0,0,0,.19-1.28V65.9a4.08,4.08,0,0,0-.19-1.3,2.89,2.89,0,0,0-.55-1,2.5,2.5,0,0,0-.87-.63,2.71,2.71,0,0,0-1.13-.23,2.78,2.78,0,0,0-1.13.23,2.5,2.5,0,0,0-.87.63,3.09,3.09,0,0,0-.54,1,4.08,4.08,0,0,0-.19,1.3V66a3.38,3.38,0,0,0,.73,2.29A2.47,2.47,0,0,0,138.63,69.15Z"/><path class="cls-16" d="M143.75,69.93l4.95-7.05h-4.47V61.76h6.52V62l-4.84,7h4.77v1.17h-6.93Z"/><path class="cls-16" d="M153.35,60a.84.84,0,0,1-.62-.25A.88.88,0,1,1,154,58.51a.88.88,0,0,1-.63,1.5Zm-.64,1.75H154v8.37h-1.33Z"/><path class="cls-16" d="M159.05,70.27a4.28,4.28,0,0,1-1.09-.14,2.58,2.58,0,0,1-.89-.45,2.17,2.17,0,0,1-.59-.77,2.67,2.67,0,0,1-.21-1.1,2,2,0,0,1,.35-1.22,2.51,2.51,0,0,1,.93-.8,4.76,4.76,0,0,1,1.35-.44,8.79,8.79,0,0,1,1.56-.14h1.2v-.6a2,2,0,0,0-.42-1.44,1.83,1.83,0,0,0-1.37-.44c-1.16,0-1.8.5-1.92,1.49h-1.33A2.74,2.74,0,0,1,157,63a2.65,2.65,0,0,1,.75-.81,3,3,0,0,1,1-.45,5.08,5.08,0,0,1,1.18-.14,4.89,4.89,0,0,1,1.15.14,2.37,2.37,0,0,1,1,.48,2.47,2.47,0,0,1,.67.92,3.6,3.6,0,0,1,.26,1.46v5.52h-1.33V69.07a3.36,3.36,0,0,1-1.07.9A3.49,3.49,0,0,1,159.05,70.27Zm.13-1.06a3.42,3.42,0,0,0,1-.13,2.34,2.34,0,0,0,.79-.39,2,2,0,0,0,.52-.64,1.93,1.93,0,0,0,.19-.85v-1h-1.15a6.92,6.92,0,0,0-1.16.09,3,3,0,0,0-.93.28,1.45,1.45,0,0,0-.61.5,1.38,1.38,0,0,0-.22.78,1.44,1.44,0,0,0,.36,1A1.63,1.63,0,0,0,159.18,69.21Z"/><path class="cls-16" d="M165.82,57.76h1.34V70.13h-1.34Z"/><path class="cls-16" d="M173.5,70.27a4.26,4.26,0,0,1-1.63-.3,3.9,3.9,0,0,1-1.28-.86,3.55,3.55,0,0,1-.84-1.34,4.81,4.81,0,0,1-.3-1.74V65.9a5,5,0,0,1,.29-1.73,3.85,3.85,0,0,1,.81-1.36,3.43,3.43,0,0,1,1.24-.88,3.88,3.88,0,0,1,1.58-.32,4.16,4.16,0,0,1,1.4.24,3.27,3.27,0,0,1,1.21.73,3.57,3.57,0,0,1,.84,1.3,5.22,5.22,0,0,1,.31,1.92v.44h-6.3a3.29,3.29,0,0,0,.72,2.16,2.48,2.48,0,0,0,2,.75c1.32,0,2.06-.47,2.23-1.42h1.33a2.79,2.79,0,0,1-1.19,1.9A4.16,4.16,0,0,1,173.5,70.27Zm2.27-5.14a2.62,2.62,0,0,0-.73-1.84,2.44,2.44,0,0,0-1.67-.56,2.27,2.27,0,0,0-1.67.65,3.1,3.1,0,0,0-.83,1.75Z"/><path class="cls-16" d="M179.35,61.76h1.33v1.33a2.65,2.65,0,0,1,1-1,3.14,3.14,0,0,1,1.72-.44,3.69,3.69,0,0,1,1.18.19,2.25,2.25,0,0,1,.94.59,2.83,2.83,0,0,1,.61,1,5,5,0,0,1,.21,1.55v5.14H185V64.87a2.31,2.31,0,0,0-.48-1.62,2,2,0,0,0-1.49-.52,2.64,2.64,0,0,0-.89.15,2.18,2.18,0,0,0-.74.43,2.16,2.16,0,0,0-.52.73,2.57,2.57,0,0,0-.19,1v5.1h-1.33Z"/><path class="cls-16" d="M125,74.54H127l3.54,8.91,3.42-8.91h1.92V86h-1.39V76.35L130.65,86h-.43l-3.92-9.63V86H125Z"/><path class="cls-16" d="M142.23,86.12a4.3,4.3,0,0,1-1.63-.3,3.75,3.75,0,0,1-1.28-.86,3.87,3.87,0,0,1-.84-1.33,4.91,4.91,0,0,1-.29-1.75v-.13a5.06,5.06,0,0,1,.28-1.73,4.27,4.27,0,0,1,.81-1.36,3.64,3.64,0,0,1,1.24-.88,3.92,3.92,0,0,1,1.59-.31,4.19,4.19,0,0,1,1.4.23,3.3,3.3,0,0,1,2,2,5.21,5.21,0,0,1,.32,1.92v.44h-6.31a3.27,3.27,0,0,0,.72,2.16,2.52,2.52,0,0,0,2,.75c1.31,0,2.05-.47,2.22-1.42h1.33a2.77,2.77,0,0,1-1.18,1.9A4.2,4.2,0,0,1,142.23,86.12ZM144.51,81a2.67,2.67,0,0,0-.73-1.85,2.44,2.44,0,0,0-1.67-.55,2.28,2.28,0,0,0-1.68.64,3.09,3.09,0,0,0-.82,1.76Z"/><path class="cls-16" d="M151.24,86.12a3.94,3.94,0,0,1-1.51-.28,3.4,3.4,0,0,1-1.2-.81,3.61,3.61,0,0,1-.78-1.32,5,5,0,0,1-.28-1.75v-.13a5.24,5.24,0,0,1,.28-1.76,4.47,4.47,0,0,1,.8-1.38,3.73,3.73,0,0,1,1.24-.91,3.87,3.87,0,0,1,1.58-.31,3,3,0,0,1,1.71.44,3.4,3.4,0,0,1,1,1V73.61h1.32V86h-1.32V84.54a2.83,2.83,0,0,1-.48.59,3.72,3.72,0,0,1-.68.5,3.78,3.78,0,0,1-.82.36A3,3,0,0,1,151.24,86.12Zm.15-1.12a3,3,0,0,0,1.08-.19,2.22,2.22,0,0,0,.88-.58,2.83,2.83,0,0,0,.59-1,4.19,4.19,0,0,0,.21-1.39v-.13a3.36,3.36,0,0,0-.71-2.37,2.51,2.51,0,0,0-1.94-.76,2.42,2.42,0,0,0-1.95.82,3.56,3.56,0,0,0-.71,2.36v.13a4.26,4.26,0,0,0,.2,1.37,2.93,2.93,0,0,0,.55,1,2.35,2.35,0,0,0,.8.57A2.54,2.54,0,0,0,151.39,85Z"/><path class="cls-16" d="M159,75.87a.86.86,0,0,1-.63-.26.88.88,0,0,1,1.25-1.25.89.89,0,0,1-.62,1.51Zm-.64,1.74h1.32V86h-1.32Z"/><path class="cls-16" d="M166,86.12a4.26,4.26,0,0,1-1.63-.3A3.75,3.75,0,0,1,163.1,85a3.87,3.87,0,0,1-.84-1.33,4.91,4.91,0,0,1-.3-1.75v-.13a5.06,5.06,0,0,1,.29-1.73,3.94,3.94,0,0,1,.81-1.36,3.64,3.64,0,0,1,1.24-.88,3.91,3.91,0,0,1,1.58-.31,4.15,4.15,0,0,1,1.4.23,3.33,3.33,0,0,1,1.21.73,3.65,3.65,0,0,1,.84,1.3,5.22,5.22,0,0,1,.31,1.92v.44h-6.3a3.27,3.27,0,0,0,.72,2.16,2.5,2.5,0,0,0,2,.75c1.31,0,2.05-.47,2.22-1.42h1.33a2.79,2.79,0,0,1-1.19,1.9A4.14,4.14,0,0,1,166,86.12ZM168.28,81a2.58,2.58,0,0,0-.73-1.85,2.42,2.42,0,0,0-1.67-.55,2.26,2.26,0,0,0-1.67.64,3,3,0,0,0-.82,1.76Z"/><path class="cls-16" d="M171.87,77.61h1.32v1.33a2.63,2.63,0,0,1,1-1,3.08,3.08,0,0,1,1.72-.44,3.8,3.8,0,0,1,1.19.18,2.28,2.28,0,0,1,.93.59,2.7,2.7,0,0,1,.61,1.05,5,5,0,0,1,.22,1.55V86H177.5V80.72A2.31,2.31,0,0,0,177,79.1a2,2,0,0,0-1.49-.51,2.63,2.63,0,0,0-.89.14,2.18,2.18,0,0,0-.74.43,2,2,0,0,0-.51.73,2.4,2.4,0,0,0-.2,1V86h-1.32Z"/></g></g></svg>