<svg xmlns="http://www.w3.org/2000/svg" xmlns:xlink="http://www.w3.org/1999/xlink" viewBox="0 0 107.3 156.86"><defs><style>.cls-1{fill:none;}.cls-2{fill:#5f89d3;}.cls-3{fill:#64b2ed;}.cls-4{fill:#505046;}.cls-5{fill:#aa7149;}.cls-6{clip-path:url(#clip-path);}.cls-7{fill:#cc9169;}.cls-8{fill:#e9f4f4;}.cls-9{fill:#c0d8d6;}.cls-10{fill:#e0c17c;}.cls-11{fill:#f4f1ea;}.cls-12{fill:#6b9b1f;}.cls-13{fill:#89c43b;}.cls-14{fill:#5b7a1f;}.cls-15{fill:#d64129;}.cls-16{fill:#c6bba1;}.cls-17{fill:#eae4d3;}.cls-18{fill:#dbd3c1;}.cls-19{fill:#64bc2b;}.cls-20{fill:#fff;}.cls-21{fill:#096;}.cls-22{fill:#f4ad42;}.cls-23{fill:#ffd348;}.cls-24{fill:#685837;}.cls-25{fill:#6b6565;}.cls-26{clip-path:url(#clip-path-2);}.cls-27{fill:#e2f2f2;}.cls-28{fill:#c2f2f1;}</style><clipPath id="clip-path" transform="translate(0 -415.33)"><circle class="cls-1" cx="53.91" cy="478.29" r="49.59"/></clipPath><clipPath id="clip-path-2" transform="translate(0 -415.33)"><circle class="cls-1" cx="53.95" cy="478.26" r="49.59"/></clipPath></defs><title>19Uhr</title><g id="Ebene_2" data-name="Ebene 2"><g id="_19:00" data-name="19:00"><path class="cls-2" d="M87.91,415.33l-15,13.18a53.67,53.67,0,1,0,18.57,12,55.24,55.24,0,0,0-5.6-4.85Z" transform="translate(0 -415.33)"/><circle class="cls-3" cx="53.59" cy="63.28" r="49.27"/><path class="cls-4" d="M8.49,548.32l-2.11,1.27v-3L9,544.75h3.12v11.44H8.49Z" transform="translate(0 -415.33)"/><path class="cls-4" d="M18.46,556.39a5.29,5.29,0,0,1-3.29-.91,3.53,3.53,0,0,1-1.35-2.6h3.31a1,1,0,0,0,.32.6,1.18,1.18,0,0,0,.82.23,1.47,1.47,0,0,0,1.37-.68,4.23,4.23,0,0,0,.44-2,5.7,5.7,0,0,1-.41.53,2.24,2.24,0,0,1-.51.41,2.69,2.69,0,0,1-.69.28,4.15,4.15,0,0,1-.92.09A5.05,5.05,0,0,1,16,552.1a3.56,3.56,0,0,1-1.24-.68,3.1,3.1,0,0,1-.82-1.15,4.12,4.12,0,0,1-.3-1.63A3.84,3.84,0,0,1,14,547a3.58,3.58,0,0,1,1-1.29,4.37,4.37,0,0,1,1.52-.84,6.29,6.29,0,0,1,2-.3,5.64,5.64,0,0,1,2.31.43,4.19,4.19,0,0,1,1.61,1.18,4.82,4.82,0,0,1,.95,1.81,7.9,7.9,0,0,1,.32,2.28v.32a6.2,6.2,0,0,1-1.35,4.29A4.89,4.89,0,0,1,18.46,556.39Zm0-6.36a1.26,1.26,0,0,0,1-.41,1.48,1.48,0,0,0,.38-1,1.55,1.55,0,0,0-.37-1.07,1.26,1.26,0,0,0-1-.42,1.22,1.22,0,0,0-1,.42,1.55,1.55,0,0,0-.37,1.07,1.51,1.51,0,0,0,.36,1A1.22,1.22,0,0,0,18.44,550Z" transform="translate(0 -415.33)"/><path class="cls-4" d="M26.62,551.84a1.75,1.75,0,0,1-.7-.13,1.8,1.8,0,0,1-.56-.36,1.7,1.7,0,0,1-.36-.54,1.87,1.87,0,0,1-.12-.68,1.89,1.89,0,0,1,.12-.67,1.75,1.75,0,0,1,.36-.55,1.66,1.66,0,0,1,.56-.37,1.75,1.75,0,0,1,.7-.14,1.89,1.89,0,0,1,.72.14,1.75,1.75,0,0,1,.58.37,1.62,1.62,0,0,1,.37.55,1.71,1.71,0,0,1,.14.67,1.69,1.69,0,0,1-.14.68,1.58,1.58,0,0,1-.37.54,1.89,1.89,0,0,1-1.3.49Zm0,4.55a1.68,1.68,0,0,1-1.74-1.73A1.66,1.66,0,0,1,26.62,553a1.88,1.88,0,0,1,.72.13,1.92,1.92,0,0,1,.58.37,1.79,1.79,0,0,1,.37.54,1.67,1.67,0,0,1,.14.67,1.64,1.64,0,0,1-.51,1.23A1.8,1.8,0,0,1,26.62,556.39Z" transform="translate(0 -415.33)"/><path class="cls-4" d="M35,556.4a6.23,6.23,0,0,1-2.22-.37,4.45,4.45,0,0,1-1.69-1.11A4.8,4.8,0,0,1,30,553.14a7.26,7.26,0,0,1-.37-2.43v-.45a6.72,6.72,0,0,1,.41-2.43,5,5,0,0,1,1.15-1.78A4.93,4.93,0,0,1,32.9,545a6,6,0,0,1,2.14-.37,6.41,6.41,0,0,1,2.12.34,4.62,4.62,0,0,1,1.72,1A5.05,5.05,0,0,1,40,547.71a6.62,6.62,0,0,1,.42,2.47v.43a7.48,7.48,0,0,1-.38,2.46A5,5,0,0,1,39,554.89,4.73,4.73,0,0,1,37.24,556,6.32,6.32,0,0,1,35,556.4Zm.11-2.78a1.45,1.45,0,0,0,1.37-.72,4.62,4.62,0,0,0,.41-2.22v-.41a4.56,4.56,0,0,0-.42-2.23,1.73,1.73,0,0,0-2.79,0,4.45,4.45,0,0,0-.42,2.21v.45a4.47,4.47,0,0,0,.42,2.21A1.54,1.54,0,0,0,35.08,553.62Z" transform="translate(0 -415.33)"/><path class="cls-4" d="M46.83,556.4A6.32,6.32,0,0,1,44.6,556a4.41,4.41,0,0,1-1.68-1.11,4.82,4.82,0,0,1-1.07-1.78,7.52,7.52,0,0,1-.37-2.43v-.45a6.51,6.51,0,0,1,.42-2.43A5.14,5.14,0,0,1,43,546.05a5.07,5.07,0,0,1,1.72-1.1,5.88,5.88,0,0,1,2.13-.37,6.43,6.43,0,0,1,2.13.34,4.78,4.78,0,0,1,1.72,1,4.9,4.9,0,0,1,1.15,1.75,6.61,6.61,0,0,1,.43,2.47v.43a7.22,7.22,0,0,1-.39,2.46,4.83,4.83,0,0,1-1.1,1.82A4.68,4.68,0,0,1,49.09,556,6.27,6.27,0,0,1,46.83,556.4Zm.11-2.78a1.45,1.45,0,0,0,1.37-.72,4.62,4.62,0,0,0,.41-2.22v-.41a4.55,4.55,0,0,0-.43-2.23,1.48,1.48,0,0,0-1.38-.71,1.51,1.51,0,0,0-1.4.71,4.43,4.43,0,0,0-.43,2.21v.45a4.46,4.46,0,0,0,.43,2.21A1.54,1.54,0,0,0,46.94,553.62Z" transform="translate(0 -415.33)"/><path class="cls-4" d="M62,556.4a5.56,5.56,0,0,1-3.88-1.23,4.71,4.71,0,0,1-1.36-3.69v-6.73h3.62v6.58a5.7,5.7,0,0,0,.07,1,1.87,1.87,0,0,0,.25.69,1,1,0,0,0,.5.42,2,2,0,0,0,.8.14,1.36,1.36,0,0,0,1.28-.56,3.47,3.47,0,0,0,.32-1.68v-6.57h3.64v6.69a6.26,6.26,0,0,1-.36,2.24,4,4,0,0,1-1.06,1.54,4.35,4.35,0,0,1-1.66.89A7.24,7.24,0,0,1,62,556.4Z" transform="translate(0 -415.33)"/><path class="cls-4" d="M69,544.19h3.15v5a3,3,0,0,1,1-1.12,3.08,3.08,0,0,1,1.74-.45,3.14,3.14,0,0,1,1.08.19,2.19,2.19,0,0,1,.85.58,2.66,2.66,0,0,1,.55,1,4,4,0,0,1,.2,1.36v5.5H74.41V551.4a1.51,1.51,0,0,0-.25-1,.93.93,0,0,0-.8-.33,1.16,1.16,0,0,0-.92.36,1.56,1.56,0,0,0-.33,1.1v4.62H69Z" transform="translate(0 -415.33)"/><path class="cls-4" d="M79,547.83h3.15v1.69a3,3,0,0,1,1.07-1.4,2.92,2.92,0,0,1,1.62-.41v2.95a3.5,3.5,0,0,0-2,.34,1.47,1.47,0,0,0-.69,1.34v3.85H79Z" transform="translate(0 -415.33)"/><path class="cls-4" d="M10.49,560.61h1.83l3.87,11.44H14.81l-1.12-3.28H9l-1.1,3.28H6.56Zm-1.13,7h4l-2-5.89Z" transform="translate(0 -415.33)"/><path class="cls-4" d="M22.46,572.19a3.22,3.22,0,0,1-1.74-.45,3.11,3.11,0,0,1-1.09-1.07v1.38H18.3V559.68h1.33v5.41a2.54,2.54,0,0,1,.47-.59,4,4,0,0,1,.66-.49,3.81,3.81,0,0,1,.8-.35,3.38,3.38,0,0,1,.9-.13,4,4,0,0,1,1.52.29,3.4,3.4,0,0,1,1.21.83A4.08,4.08,0,0,1,26,566a5.16,5.16,0,0,1,.29,1.76v.13a5.4,5.4,0,0,1-.27,1.75,4.24,4.24,0,0,1-.77,1.37,3.42,3.42,0,0,1-1.2.89A3.79,3.79,0,0,1,22.46,572.19Zm-.13-1.12a2.35,2.35,0,0,0,1.91-.8,3.68,3.68,0,0,0,.65-2.34v-.12a4.17,4.17,0,0,0-.21-1.38,2.77,2.77,0,0,0-.55-1,2.35,2.35,0,0,0-.81-.59,2.62,2.62,0,0,0-1-.2,2.92,2.92,0,0,0-1.08.2,2.26,2.26,0,0,0-.88.58,2.85,2.85,0,0,0-.57,1,4.25,4.25,0,0,0-.21,1.4v.12a4.39,4.39,0,0,0,.2,1.39,2.68,2.68,0,0,0,.56,1,2.26,2.26,0,0,0,.87.58A3.14,3.14,0,0,0,22.33,571.07Z" transform="translate(0 -415.33)"/><path class="cls-4" d="M32,572.19a4.26,4.26,0,0,1-1.63-.3A3.9,3.9,0,0,1,29,571a3.55,3.55,0,0,1-.84-1.34,4.81,4.81,0,0,1-.3-1.74v-.13a5,5,0,0,1,.29-1.73,3.94,3.94,0,0,1,.81-1.36,3.43,3.43,0,0,1,1.24-.88,3.88,3.88,0,0,1,1.58-.32,4.16,4.16,0,0,1,1.4.24,3.27,3.27,0,0,1,1.21.73,3.57,3.57,0,0,1,.84,1.3,5.22,5.22,0,0,1,.31,1.92v.44h-6.3a3.29,3.29,0,0,0,.72,2.16,2.48,2.48,0,0,0,2,.75c1.32,0,2.06-.47,2.23-1.42h1.33a2.79,2.79,0,0,1-1.19,1.9A4.16,4.16,0,0,1,32,572.19Zm2.27-5.14a2.62,2.62,0,0,0-.73-1.84,2.44,2.44,0,0,0-1.67-.56,2.27,2.27,0,0,0-1.67.65,3.1,3.1,0,0,0-.83,1.75Z" transform="translate(0 -415.33)"/><path class="cls-4" d="M37.8,563.68h1.33V565a2.65,2.65,0,0,1,1-1,3.14,3.14,0,0,1,1.72-.44,3.69,3.69,0,0,1,1.18.19,2.25,2.25,0,0,1,.94.59,2.83,2.83,0,0,1,.61,1.05,5,5,0,0,1,.21,1.55v5.14H43.44v-5.26a2.31,2.31,0,0,0-.48-1.62,2,2,0,0,0-1.49-.52,2.64,2.64,0,0,0-.89.15,2.18,2.18,0,0,0-.74.43,2.16,2.16,0,0,0-.52.73,2.57,2.57,0,0,0-.19,1v5.1H37.8Z" transform="translate(0 -415.33)"/><path class="cls-4" d="M50.72,572.19a4,4,0,0,1-1.52-.28,3.42,3.42,0,0,1-1.2-.82,3.77,3.77,0,0,1-.78-1.31,5,5,0,0,1-.28-1.75v-.13a5.24,5.24,0,0,1,.29-1.76,4.28,4.28,0,0,1,.8-1.38,3.59,3.59,0,0,1,1.23-.91,3.91,3.91,0,0,1,1.58-.32,3.07,3.07,0,0,1,1.72.44,3.63,3.63,0,0,1,1,1v-5.34h1.33v12.37H53.58v-1.44a2.83,2.83,0,0,1-.48.59,3.41,3.41,0,0,1-.68.5,3.55,3.55,0,0,1-.82.35A2.7,2.7,0,0,1,50.72,572.19Zm.14-1.12a3,3,0,0,0,1.09-.19,2.37,2.37,0,0,0,.88-.58,2.82,2.82,0,0,0,.58-1,3.94,3.94,0,0,0,.22-1.39v-.13a3.41,3.41,0,0,0-.71-2.37,2.55,2.55,0,0,0-2-.77,2.43,2.43,0,0,0-1.95.83,3.54,3.54,0,0,0-.7,2.36V568a4,4,0,0,0,.2,1.37,2.75,2.75,0,0,0,.54,1,2.3,2.3,0,0,0,.81.57A2.53,2.53,0,0,0,50.86,571.07Z" transform="translate(0 -415.33)"/><path class="cls-4" d="M61.21,572.19a4.26,4.26,0,0,1-1.63-.3A3.9,3.9,0,0,1,58.3,571a3.82,3.82,0,0,1-.84-1.34,4.81,4.81,0,0,1-.3-1.74v-.13a5,5,0,0,1,.29-1.73,3.94,3.94,0,0,1,.81-1.36,3.51,3.51,0,0,1,1.24-.88,3.91,3.91,0,0,1,1.58-.32,4.16,4.16,0,0,1,1.4.24,3.2,3.2,0,0,1,1.21.73,3.57,3.57,0,0,1,.84,1.3,5.22,5.22,0,0,1,.31,1.92v.44h-6.3a3.29,3.29,0,0,0,.72,2.16,2.5,2.5,0,0,0,2,.75c1.31,0,2.05-.47,2.22-1.42h1.33a2.77,2.77,0,0,1-1.18,1.9A4.2,4.2,0,0,1,61.21,572.19Zm2.27-5.14a2.61,2.61,0,0,0-.72-1.84,2.47,2.47,0,0,0-1.68-.56,2.27,2.27,0,0,0-1.67.65,3.09,3.09,0,0,0-.82,1.75Z" transform="translate(0 -415.33)"/><path class="cls-4" d="M69.74,572.19a3.56,3.56,0,0,1-2.36-.72,2.65,2.65,0,0,1-.92-2h1.29a1.93,1.93,0,0,0,.52,1.19,2,2,0,0,0,1.45.43,2.35,2.35,0,0,0,1.4-.33,1.18,1.18,0,0,0,.43-1,1,1,0,0,0-.49-.94,4.73,4.73,0,0,0-1.46-.46,8.09,8.09,0,0,1-1.38-.35,2.93,2.93,0,0,1-.9-.48,1.86,1.86,0,0,1-.49-.69,2.69,2.69,0,0,1-.15-.94,2,2,0,0,1,.26-1,2.46,2.46,0,0,1,.66-.74,3.13,3.13,0,0,1,.92-.44,3.43,3.43,0,0,1,1-.16,4.68,4.68,0,0,1,1.07.12,2.75,2.75,0,0,1,.92.42,2.35,2.35,0,0,1,.68.75,2.94,2.94,0,0,1,.35,1.15H71.26a1.62,1.62,0,0,0-.55-1,2,2,0,0,0-1.21-.32,1.85,1.85,0,0,0-1.15.33,1,1,0,0,0-.43.87,1.15,1.15,0,0,0,.08.48.86.86,0,0,0,.31.35,2,2,0,0,0,.61.28,7.81,7.81,0,0,0,1,.21c.42.09.82.18,1.18.28a3.12,3.12,0,0,1,.94.42,1.82,1.82,0,0,1,.61.68,2.51,2.51,0,0,1,.21,1.1,2.32,2.32,0,0,1-.77,1.84A3.3,3.3,0,0,1,69.74,572.19Z" transform="translate(0 -415.33)"/><path class="cls-4" d="M77.61,572.19a3.56,3.56,0,0,1-2.36-.72,2.65,2.65,0,0,1-.92-2h1.3a1.83,1.83,0,0,0,.52,1.19,2,2,0,0,0,1.45.43,2.33,2.33,0,0,0,1.39-.33,1.18,1.18,0,0,0,.43-1,1,1,0,0,0-.49-.94,4.64,4.64,0,0,0-1.46-.46,8.09,8.09,0,0,1-1.38-.35,2.76,2.76,0,0,1-.89-.48,1.66,1.66,0,0,1-.49-.69,2.69,2.69,0,0,1-.15-.94,2,2,0,0,1,.25-1,2.37,2.37,0,0,1,.67-.74,3.07,3.07,0,0,1,.91-.44,3.48,3.48,0,0,1,1-.16,4.68,4.68,0,0,1,1.07.12,2.66,2.66,0,0,1,.92.42,2.35,2.35,0,0,1,.68.75,2.94,2.94,0,0,1,.35,1.15H79.13a1.57,1.57,0,0,0-.55-1,2,2,0,0,0-1.21-.32,1.85,1.85,0,0,0-1.15.33,1,1,0,0,0-.43.87,1.34,1.34,0,0,0,.08.48.82.82,0,0,0,.32.35,2.1,2.1,0,0,0,.6.28,7.81,7.81,0,0,0,.95.21c.43.09.82.18,1.18.28a3,3,0,0,1,.94.42,1.82,1.82,0,0,1,.61.68,2.51,2.51,0,0,1,.21,1.1,2.35,2.35,0,0,1-.76,1.84A3.33,3.33,0,0,1,77.61,572.19Z" transform="translate(0 -415.33)"/><path class="cls-4" d="M86.31,572.19a4.3,4.3,0,0,1-1.63-.3A4,4,0,0,1,83.4,571a3.82,3.82,0,0,1-.84-1.34,5,5,0,0,1-.29-1.74v-.13a4.8,4.8,0,0,1,.29-1.73,4.08,4.08,0,0,1,.8-1.36,3.51,3.51,0,0,1,1.24-.88,3.93,3.93,0,0,1,1.59-.32,4.21,4.21,0,0,1,1.4.24,3.36,3.36,0,0,1,1.21.73,3.57,3.57,0,0,1,.84,1.3,5.44,5.44,0,0,1,.31,1.92v.44H83.64a3.4,3.4,0,0,0,.72,2.16,2.52,2.52,0,0,0,2,.75c1.31,0,2-.47,2.23-1.42h1.32a2.77,2.77,0,0,1-1.18,1.9A4.2,4.2,0,0,1,86.31,572.19Zm2.28-5.14a2.66,2.66,0,0,0-.73-1.84,2.44,2.44,0,0,0-1.67-.56,2.25,2.25,0,0,0-1.67.65,3,3,0,0,0-.83,1.75Z" transform="translate(0 -415.33)"/><path class="cls-4" d="M92.17,563.68H93.5V565a2.58,2.58,0,0,1,1-1,3.11,3.11,0,0,1,1.72-.44,3.74,3.74,0,0,1,1.18.19,2.38,2.38,0,0,1,.94.59,2.68,2.68,0,0,1,.6,1.05,4.67,4.67,0,0,1,.22,1.55v5.14H97.8v-5.26a2.31,2.31,0,0,0-.48-1.62,2,2,0,0,0-1.49-.52,2.58,2.58,0,0,0-.88.15,2.23,2.23,0,0,0-.75.43,2.28,2.28,0,0,0-.51.73,2.4,2.4,0,0,0-.19,1v5.1H92.17Z" transform="translate(0 -415.33)"/><circle class="cls-5" cx="53.91" cy="62.96" r="49.59"/><g class="cls-6"><path class="cls-7" d="M15.6,428s-2.89,37.71-.64,55.44,2.4,46.78,2.4,46.78l2.57-1.12s-1.44-41.51-2.09-52.61.65-46.77.65-46.77Z" transform="translate(0 -415.33)"/><path class="cls-7" d="M29.73,425.13s-5.15,48.32-4.34,61.71,6.74,40.51,6.9,45S34.37,533,34.37,533s-3-20.86-3.53-31.13-1.78-19.56.16-26.21,7.54-43.92,5.78-50.5S29.73,425.13,29.73,425.13Z" transform="translate(0 -415.33)"/><path class="cls-7" d="M42.24,533s-2-34.6,0-47.77,8.25-54.29,7.33-61,3.43,0,3.43,0S55,447,50.29,469s-.72,63.19-.72,63.19Z" transform="translate(0 -415.33)"/><path class="cls-7" d="M95,530.07s2.89-37.71.64-55.44-2.41-46.78-2.41-46.78L90.63,429s1.44,41.51,2.08,52.61-.64,46.77-.64,46.77Z" transform="translate(0 -415.33)"/><path class="cls-7" d="M80.83,533s5.14-48.32,4.34-61.71-6.74-40.51-6.9-45-2.09-1.12-2.09-1.12,3,20.86,3.53,31.13,1.78,19.56-.16,26.2S72,526.38,73.78,533,80.83,533,80.83,533Z" transform="translate(0 -415.33)"/><path class="cls-7" d="M68.32,425.13s2,34.59,0,47.77-8.26,54.28-7.34,61-3.43,0-3.43,0-2-22.87,2.72-44.81.71-63.18.71-63.18Z" transform="translate(0 -415.33)"/></g><circle class="cls-8" cx="58.92" cy="64.79" r="36.07"/><circle class="cls-9" cx="58.92" cy="64.79" r="28.49"/><circle class="cls-8" cx="58.92" cy="64.79" r="25.01"/><path class="cls-10" d="M67.48,460.45s-4.25-1.17-4.25,3.7-.07,6.69-1,7-1.72.38-2.27,2.48-3,2.17-1.58,3.54,4,3.68,3.34,4.39-4.44,3-3.34,5.49-2,5.13-1,6.19,3.09,1.5,3.09,4,3,4.94,3.84,4.05,4.19-.76,6-.76,7.89,1.71,9.75-3.74a25.43,25.43,0,0,1,6-9.78c1.06-1.06,3.49-9.41,1.37-11.53s-4.92-4.71-4.92-5.92S79,465,77.22,465s-3.84-3.68-5.14-4S69.68,459.28,67.48,460.45Z" transform="translate(0 -415.33)"/><path class="cls-11" d="M67.72,461.37s-4.06-1.12-4.06,3.54-.07,6.38-.92,6.7S61.1,472,60.58,474s-2.82,2.07-1.51,3.38,3.87,3.52,3.19,4.2-4.23,2.88-3.19,5.24-1.92,4.89-.91,5.9,2.94,1.43,2.94,3.86,2.82,4.71,3.67,3.86,4-.72,5.7-.72,7.53,1.63,9.3-3.57a24.26,24.26,0,0,1,5.7-9.33c1-1,3.34-9,1.31-11s-4.69-4.49-4.69-5.64-3.36-4.39-5.07-4.39-3.67-3.52-4.91-3.81S69.82,460.26,67.72,461.37Z" transform="translate(0 -415.33)"/><path class="cls-12" d="M44.18,488.93s-3,5.34-4,4.33-2.39,1.08-1.68,1.79-.76,1.42-.76,2.32,1.09-.07,1.09,1.64-.26,2.06.63,2.95,3.09.67,2.58,3,.51,2.85,1.88,2.54.74-2.5,2.84-1.33,3.85,2,3.85.75.54-.77,1.72-1.37-1-1.44.77-1.85,1.85,1.42,2.93.34,2.12-2.6.74-3.43-1.66-1.92-.43-2.47,2.25-.62,1.09-1.78,1.24-.34,1-2-.07-1.79-.76-3-3.08-1-1.78-2.4,1.74-1.78.48-3-.72-2.66-3.24-2S44.18,488.93,44.18,488.93Z" transform="translate(0 -415.33)"/><path class="cls-13" d="M55.19,500.33s3.84.75,4.39,3,1.67,2.26,2.24.89a2.16,2.16,0,0,1,2.12-1.49c.51,0,1.76,1.28,1.17-.57s-1-1.78,0-2.19,1-.38,1-1.94,2.1-2,0-2.39-3-.48-2.65-1.85,1.58-2.68,0-2.68-1.6.21-1.6-1,.71-3.43-.7-3.09-2.64.42-2.64-.48.52-1.67-1.18-1.67-4.12.78-4.12,1.88-2.49.31-2.49,1.77S52,492.47,52,492.76s-4.28,1.5-2.73,3,3.19,2.95,3.19,2.95,0,2.4,1.36,2.4S55.19,500.33,55.19,500.33Z" transform="translate(0 -415.33)"/><path class="cls-14" d="M42.72,475.63s-1.81,1.54-3.24,1-3.06-.35-2.38,1-3.06,1-2,2.12,1.82,1.7.71,2.81-4.39,3.84-2.34,4.6,2.4,1,2.84,2.06,1.35,2.72,2.49,1.58,2.85-2.28,3.21-1.92,1.16,2.71,1.88,2,2.33-2.14,3.23-1.25,2.25,2,2.66,1.57,1.85-1,1.85-1.57.67-1,1.44-1,.77-1,.77-1.88.28-1.65,1.65-.88,1.2,2,1.65,1.59,1.77-.18,1.77-1,2.1,1.1,2.1-1-1.06-1.53-.51-2.88,1.78-1.49,1.78-2.14a3.85,3.85,0,0,0-.34-2c-.41-1,1.53-1.08-.23-2.24s-1.59.08-2.72-1.05-.57-1.41-1.58-1.85-1.1-.69-2.33,0a1.74,1.74,0,0,1-2.54-.43c-.78-.79-2.76-.8-2.76-.19s0,1.78-1.37,1.78-2-.86-3-.86S42.72,473.93,42.72,475.63Z" transform="translate(0 -415.33)"/><path class="cls-15" d="M47.92,452.29s-9.46,0-12.31,11.24,8.16,14.13,11.25,12.86,17.16,0,14.59-13.34S53.05,451.75,47.92,452.29Z" transform="translate(0 -415.33)"/><path class="cls-16" d="M48,453.39s-8.6,0-11.18,10.21,7.4,12.83,10.22,11.68,15.59,0,13.26-12.12S52.63,452.89,48,453.39Z" transform="translate(0 -415.33)"/><polygon class="cls-17" points="43.74 39.61 44.44 38.32 46.23 38.28 47.43 37.66 48.46 37.66 50.72 37.73 51.7 37.56 53.6 37.56 54.89 37.66 55.89 38.73 57.05 38.74 58.5 39.61 60.14 41.05 60.55 41.98 60.34 42.66 60.14 44.29 60.81 46.25 61.06 48.36 60.55 49.69 60.55 51.24 60.55 52.32 60.55 53.35 59.93 54.29 59.52 55.3 58.7 56.85 56.46 57.57 54.54 58.38 53.19 59.48 52.4 60.03 50.82 60.21 49.69 59.99 49.1 59.5 46.65 59.73 46.65 60.66 45.06 60.92 43.51 60.61 42.48 60.21 40.99 59.78 38.11 58.32 38.11 57.98 38.32 57.4 38.52 56.49 37.76 55.1 36.93 54.68 36.36 54.12 36.36 52.86 36.1 51.34 36.1 48.94 35.86 47.3 35.86 45.48 37.08 45.12 38.52 42.66 39.86 41.82 40.79 40.34 42.18 39.77 43.74 39.61"/><polygon class="cls-18" points="52.4 60.03 53.19 59.48 54.54 58.38 56.46 57.57 58.7 56.85 59.52 55.3 59.93 54.29 60.55 53.35 60.55 52.32 60.55 51.24 60.55 49.69 61.06 48.36 60.81 46.25 60.14 44.29 60.34 42.66 60.55 41.98 60.14 41.05 58.5 39.61 58 39.31 57.19 41.09 57.94 42.66 57.8 43.9 56.62 44.77 55.88 45.12 55.88 47.14 56.05 48.46 54.84 50.54 52.62 48.94 50.15 47.95 49.48 49.95 48.18 50.88 46.4 52.03 46.78 54.11 46.65 55.84 44.73 57.57 42.91 57.83 42.91 59.53 42.72 60.3 43.51 60.61 45.06 60.92 46.65 60.66 46.65 59.73 49.1 59.5 49.69 59.99 50.82 60.21 52.4 60.03"/><polygon class="cls-19" points="46.4 47.95 46.4 49.69 47.17 49.69 47.17 48.46 46.4 47.95"/><path class="cls-19" d="M41.4,465.28s-1.39,1.34-1.18,1.34.72.52.72.52l.66-.93Z" transform="translate(0 -415.33)"/><polygon class="cls-19" points="49.74 56.58 47.34 56.95 47.65 57.4 48.16 57.57 49.74 56.58"/><polygon class="cls-19" points="49.16 53.11 50.5 52.03 50.5 52.57 49.83 53.11 49.16 53.11"/><polygon class="cls-19" points="48.81 41.76 46.65 41.76 46.78 42.27 47.73 42.27 48.81 41.76"/><polygon class="cls-19" points="54.37 42.01 54.37 42.96 55.23 43.71 55.88 43.71 54.37 42.01"/><polygon class="cls-19" points="52.35 44.77 53.31 45.46 53.89 45.12 53.89 44.77 52.35 44.77"/><polygon class="cls-19" points="57.46 51.81 57.77 53.11 58.22 53.11 58.42 52.57 57.46 51.81"/><polygon class="cls-19" points="41.13 55.1 41.13 56.26 41.78 56.58 41.78 56.26 41.13 55.1"/><polygon class="cls-19" points="40.2 45.91 40.2 43.9 40.62 44.29 40.62 45.12 40.2 45.91"/><polygon class="cls-19" points="36.77 46.56 37.42 47.54 36.94 47.73 36.77 47.14 36.77 46.56"/><polygon class="cls-19" points="50.63 38.77 51.59 39.56 52.35 39.16 51.73 38.77 50.63 38.77"/><polygon class="cls-20" points="44.46 40.69 42.47 41.05 42.98 42.01 43.15 42.27 43.98 41.35 44.46 40.69"/><path class="cls-20" d="M44.46,458.19s-.41.3-.24.3.65.38.65.38l.24-.34V458Z" transform="translate(0 -415.33)"/><polygon class="cls-20" points="41.78 45.7 40.62 46.94 40.9 47.54 41.45 47.54 42.06 46.56 41.78 45.7"/><polygon class="cls-20" points="38.21 48.82 38.52 49.44 39.17 49.69 39.48 48.94 38.21 48.82"/><polygon class="cls-20" points="47.55 44.77 48.09 45.46 48.54 45.46 48.81 44.43 47.55 44.77"/><polygon class="cls-20" points="56.05 50.13 56.74 50.54 57.19 49.95 56.95 49.48 56.36 49.24 56.05 50.13"/><polygon class="cls-20" points="52.35 54.76 51.49 55.84 51.01 55.1 51.32 54.11 52.35 54.76"/><polygon class="cls-20" points="45.56 54.83 43.74 55.3 43.74 54.29 44.46 54.42 45.56 54.83"/><polygon class="cls-20" points="42.91 58.32 43.46 59.19 43.94 59.19 43.94 58.75 42.91 58.32"/><polygon class="cls-20" points="51.18 40.69 51.9 41.48 52.35 41.05 52.35 40.69 51.18 40.69"/><path class="cls-21" d="M56.05,451.86s1.27,14.56-5.42,27.94l1.26-.28s6-15.45,4.73-27.66Z" transform="translate(0 -415.33)"/><path class="cls-21" d="M59.38,451.29a65.48,65.48,0,0,1-15.44,30.77h1.17S57.67,466.32,60,451.55Z" transform="translate(0 -415.33)"/><path class="cls-21" d="M43.43,451.29s6.72,18,4.3,34.18l-.95.58s2.82-19-4.06-34.5Z" transform="translate(0 -415.33)"/><ellipse class="cls-22" cx="75.5" cy="476.67" rx="4.19" ry="4.84" transform="translate(-65.99 -400.07) rotate(-8.05)"/><ellipse class="cls-22" cx="69.94" cy="490.49" rx="4.19" ry="4.84" transform="translate(-361.54 -168.36) rotate(-52.44)"/><ellipse class="cls-23" cx="74.77" cy="476.25" rx="3.06" ry="3.54" transform="matrix(0.99, -0.14, 0.14, 0.99, -65.94, -400.17)"/><ellipse class="cls-23" cx="69.08" cy="490.49" rx="3.06" ry="3.54" transform="translate(-193.8 -344.65) rotate(-24.04)"/><polygon class="cls-24" points="63.36 64.19 63.84 66.05 64.39 65.44 63.88 64.19 63.36 64.19"/><polygon class="cls-24" points="67.28 58.81 67.28 60.38 67.75 60.38 68.03 59.19 67.28 58.81"/><polygon class="cls-24" points="67.28 47.95 69.08 49.89 69.08 49.26 67.65 47.54 67.28 47.95"/><polygon class="cls-24" points="81.69 60.92 81.69 62.35 82.23 63.16 82.23 62.04 81.69 60.92"/><polygon class="cls-24" points="78.8 71.44 77.77 71.74 77.77 72.32 78.8 72.16 78.8 71.44"/><polygon class="cls-24" points="60 75.17 59.04 76.2 59.52 77.28 60 76.22 60 75.17"/><polygon class="cls-24" points="68.03 77.28 68.03 78.91 68.8 79.27 68.8 77.93 68.03 77.28"/><polygon class="cls-24" points="69.62 65.44 70.84 66.32 70.84 65.88 70.23 65.12 69.62 65.44"/><polygon class="cls-24" points="74.14 82.79 74.14 84.16 74.77 84.16 74.77 83.48 74.14 82.79"/><polygon class="cls-24" points="78.29 53.63 77.16 54.8 77.77 55.3 78.29 54.46 78.29 53.63"/><polygon class="cls-23" points="51.01 70.56 49.43 71.88 50.5 72.74 51.68 72.16 51.01 70.56"/><polygon class="cls-15" points="39.48 71.65 40.62 73.6 42.06 73.11 42.06 72.32 39.48 71.65"/><polygon class="cls-15" points="46.4 81.01 47.34 83.48 48.88 84.51 50.19 83.48 46.4 81.01"/><polygon class="cls-23" points="57.46 64.86 56.62 67.83 57.24 68.41 58.42 67.76 57.46 64.86"/><polygon class="cls-15" points="53.89 62.35 55.54 64.19 56.62 63.71 56.79 62.04 53.89 62.35"/><polygon class="cls-23" points="55.88 82.65 55.67 84.16 55.78 85.81 57.94 85.26 55.88 82.65"/><polygon class="cls-23" points="42.72 63.78 43.94 66.05 45.11 66.73 46 64.86 44.18 63.78 42.72 63.78"/><polygon class="cls-15" points="55.88 76.41 55.13 77.45 56.05 79.45 57.19 78.65 57.46 76.86 55.88 76.41"/><path class="cls-25" d="M47,446.08a35.83,35.83,0,0,1,20.83-1,16.13,16.13,0,0,1,2.55.73c.83.3,1.67.57,2.49.9l2.4,1.12.6.28.58.33,1.14.68,1.14.67c.37.24.72.52,1.08.77.71.53,1.45,1,2.12,1.59l2,1.76c.67.58,1.22,1.27,1.84,1.91a36,36,0,0,1,9,18.88L95,476l.09,1.33c0,.88.13,1.76.15,2.65a40.82,40.82,0,0,1-.39,5.3,38.72,38.72,0,0,1-1.08,5.2,39.67,39.67,0,0,1-1.91,5,39,39,0,0,1-2.57,4.65A38,38,0,0,1,86,504.28,40.34,40.34,0,0,1,82.21,508a40.88,40.88,0,0,1-4.34,3.06,18.72,18.72,0,0,1-2.31,1.3c-.8.38-1.58.8-2.4,1.15l-2.48.94-.63.23-.64.17-1.28.34a40.21,40.21,0,0,1-5.21,1,44.69,44.69,0,0,1-5.3.16A35.93,35.93,0,0,1,25.2,493a36.19,36.19,0,0,0,32.43,23,43.63,43.63,0,0,0,5.24-.18,38.72,38.72,0,0,0,5.15-1l1.27-.34.63-.17.61-.24L73,513.1c.8-.35,1.57-.77,2.36-1.15a18.16,18.16,0,0,0,2.27-1.29,38.85,38.85,0,0,0,4.27-3,40.51,40.51,0,0,0,3.73-3.68,39.11,39.11,0,0,0,3.21-4.14,40.56,40.56,0,0,0,4.41-9.47,38.51,38.51,0,0,0,1.09-5.12,37.86,37.86,0,0,0,.4-5.22c0-.87-.09-1.74-.13-2.62l-.08-1.31-.21-1.29a35.51,35.51,0,0,0-8.83-18.7c-.61-.63-1.15-1.32-1.81-1.9l-2-1.75c-.67-.57-1.4-1.05-2.1-1.58-.35-.25-.69-.54-1.06-.77l-1.13-.67-1.13-.67-.57-.34-.59-.28L72.75,447c-.81-.34-1.64-.6-2.46-.91-.42-.13-.82-.31-1.25-.42l-1.27-.32A35.79,35.79,0,0,0,47,446.08Z" transform="translate(0 -415.33)"/><g class="cls-26"><circle class="cls-20" cx="17.04" cy="34.49" r="13.31"/><circle class="cls-27" cx="17.04" cy="34.49" r="12.11"/><circle class="cls-28" cx="17.04" cy="34.49" r="9.76"/><circle class="cls-20" cx="15.7" cy="28.37" r="0.34"/><circle class="cls-20" cx="9.85" cy="35.87" r="0.37"/><circle class="cls-20" cx="13.28" cy="36.69" r="0.11"/><circle class="cls-20" cx="17.08" cy="34.54" r="0.27"/><circle class="cls-20" cx="21.12" cy="37.68" r="0.26"/><circle class="cls-20" cx="23.63" cy="34.4" r="0.14"/><circle class="cls-20" cx="17.08" cy="39.71" r="0.27"/><circle class="cls-20" cx="15.53" cy="41.92" r="0.17"/><circle class="cls-20" cx="21.9" cy="28.54" r="0.17"/><circle class="cls-20" cx="11.21" cy="28.43" r="0.4"/><circle class="cls-20" cx="11.8" cy="30.28" r="0.19"/></g></g></g></svg>