<svg xmlns="http://www.w3.org/2000/svg" xmlns:xlink="http://www.w3.org/1999/xlink" viewBox="0 0 228 117.61"><defs><style>.cls-1{fill:none;}.cls-2{fill:#3f65b6;}.cls-3{fill:#e9f4f4;}.cls-4{clip-path:url(#clip-path);}.cls-5{fill:#5b3225;}.cls-6{fill:#7c432c;}.cls-7{fill:#35383f;}.cls-8{fill:#2c2e33;}.cls-9{fill:#494949;}.cls-10,.cls-21{fill:#fff;}.cls-10{opacity:0.15;}.cls-11{fill:#ed6418;}.cls-12{fill:#603c2b;}.cls-13{fill:#ffc1a9;}.cls-14{fill:#ea916e;}.cls-15{fill:#6d6260;}.cls-16{fill:#aa9d9b;}.cls-17{fill:#423f3f;}.cls-18{fill:#2f6eb2;}.cls-19{fill:#4f93e8;}.cls-20{fill:#e0e0df;}.cls-22{fill:#9aa6ad;}.cls-23{fill:#6f8393;}.cls-24{fill:#963fba;}.cls-25{fill:#ede112;}.cls-26{fill:#ea6729;}.cls-27{fill:#ffaf3b;}.cls-28{fill:#0184ab;}.cls-29{fill:#db3e00;}.cls-30{fill:#7de4ea;}.cls-31{fill:#44bac6;}.cls-32{fill:#58cfd6;}.cls-33{fill:#ef581d;}.cls-34{fill:#5ad1e5;}.cls-35{fill:#3fd1b8;}.cls-36{fill:#4aedcd;}.cls-37{fill:#6b2b0f;}.cls-38{clip-path:url(#clip-path-2);}.cls-39{fill:#2b3f3b;}.cls-40{fill:#ce1800;}.cls-41{fill:#f72300;}.cls-42{fill:#1f5699;}.cls-43{fill:#db4f09;}.cls-44{fill:#105649;}.cls-45{fill:#3163aa;}.cls-46{fill:#3d4949;}.cls-47{fill:#505046;}</style><clipPath id="clip-path" transform="translate(-22.65)"><circle class="cls-1" cx="191.51" cy="53.66" r="49.27"/></clipPath><clipPath id="clip-path-2" transform="translate(-22.65)"><path class="cls-1" d="M196.76,35.45a2.6,2.6,0,0,0,.48,2,5.7,5.7,0,0,0,3.38-1.73S198.23,34.46,196.76,35.45Z"/></clipPath></defs><title>2030Uhr</title><g id="Ebene_2" data-name="Ebene 2"><g id="_20:30" data-name="20:30"><path class="cls-2" d="M250.65,12.6l-19.34,5a53.66,53.66,0,1,0,11.16,19.1,55.28,55.28,0,0,0-2.82-6.85Z" transform="translate(-22.65)"/><circle class="cls-3" cx="168.86" cy="53.66" r="49.27"/><g class="cls-4"><rect class="cls-5" x="65.47" y="75.07" width="161.51" height="42.54"/><rect class="cls-6" x="65.47" y="75.07" width="161.51" height="3.98"/><rect class="cls-7" x="86.43" y="13.55" width="81.39" height="53.63"/><rect class="cls-8" x="89.08" y="15.97" width="76.09" height="48.79"/><rect class="cls-8" x="118.35" y="67.18" width="17.54" height="5.72"/><rect class="cls-9" x="113.23" y="72.9" width="27.79" height="2.17"/><polygon class="cls-10" points="89.08 15.97 104.27 15.97 165.17 64.77 89.08 64.77 89.08 15.97"/><path class="cls-11" d="M200.41,19.57S198.7,17.11,197.2,18s-1.44,3.52-2.86,4.27c-3.92,2-5.59,6.13-3.06,8s5.27,5.54,4.34,9.05c-.86,3.28-1.32,4.6,1,7.62,1.72,2.21.46,5.56-.19,6.26,0,0,4-3,1.94-6.68-2.3-4.1-.14-5.54.78-7.47C202.45,32.24,203.06,23,200.41,19.57Z" transform="translate(-22.65)"/><path class="cls-12" d="M195.77,24.79a4.54,4.54,0,0,0-2.16,1.9,2.94,2.94,0,0,0-.3,1.33,6,6,0,0,0,.3,1.39c.47,1.92,2.13,3.48,2.37,5.62a16.62,16.62,0,0,1-.45,6.17,6,6,0,0,0-.23,2.86,9.46,9.46,0,0,0,1.25,2.71l-.06,0a7.32,7.32,0,0,1-1.73-2.6,5.88,5.88,0,0,1,0-3.17,24.79,24.79,0,0,0,.8-6,5.3,5.3,0,0,0-.91-2.81,15.05,15.05,0,0,1-1.63-2.65,4.35,4.35,0,0,1-.36-1.58,3,3,0,0,1,.44-1.61,4,4,0,0,1,2.62-1.7Z" transform="translate(-22.65)"/><path class="cls-13" d="M196.07,23.88s-.91,2.74-.18,9.89c.57,5.64,2.33,12.77,6.36,18.37,0,0,12.44-4.38,14-13.06,1.91-10.93.31-18.12-7.67-18.7C200.29,19.78,196.07,23.88,196.07,23.88Z" transform="translate(-22.65)"/><path class="cls-14" d="M214.59,34.28h-.19s-1.21,13.21-12.15,17.86c0,0,12.44-4.38,14-13.06.21-1.2.37-2.36.49-3.47Z" transform="translate(-22.65)"/><path class="cls-14" d="M164.4,59.49s-2.21,7-3.53,9a3.05,3.05,0,0,0-.37,2.36c.32,1.46.78,10,1.64,12s2.6,3,4.32,1.18,1.63-5.86,1.27-7.59-1.55-3.87-1.61-4.91,1.43-3.39,1.52-5.76S165.93,58.62,164.4,59.49Z" transform="translate(-22.65)"/><path class="cls-15" d="M200.54,67,170,79.06a1.37,1.37,0,0,1-1.68-.69l-11-22.74a1,1,0,0,1,.63-1.49L190,44.9a1.27,1.27,0,0,1,1.4.75l9.5,20A1,1,0,0,1,200.54,67Z" transform="translate(-22.65)"/><path class="cls-16" d="M200.2,66.26l-30,11.68a1.31,1.31,0,0,1-1.63-.67L158,55.39a1,1,0,0,1,.61-1.45l31.49-9a1.26,1.26,0,0,1,1.37.73L200.59,65A.92.92,0,0,1,200.2,66.26Z" transform="translate(-22.65)"/><path class="cls-17" d="M164.64,65.9a.42.42,0,0,1-.24.6.57.57,0,0,1-.68-.29.43.43,0,0,1,.25-.61A.57.57,0,0,1,164.64,65.9Z" transform="translate(-22.65)"/><path class="cls-17" d="M195.79,55.39a.48.48,0,0,1-.23.7.64.64,0,0,1-.74-.37.49.49,0,0,1,.23-.71A.64.64,0,0,1,195.79,55.39Z" transform="translate(-22.65)"/><polygon class="cls-18" points="176.54 65.4 147.59 76.51 137.01 54.62 167.25 45.82 176.54 65.4"/><polygon class="cls-7" points="167.77 46.92 137.6 55.85 137.01 54.62 167.25 45.82 167.77 46.92"/><polygon class="cls-19" points="176.68 65.69 147.75 76.84 138.79 58.3 168.81 49.11 176.68 65.69"/><path class="cls-20" d="M173.15,59.38,165,62a.29.29,0,0,1-.34-.16l-2.39-4.94a.2.2,0,0,1,.13-.3l8.25-2.49a.29.29,0,0,1,.33.16l2.3,4.79A.2.2,0,0,1,173.15,59.38Z" transform="translate(-22.65)"/><path class="cls-21" d="M176.2,65.72l-8.06,2.83a.29.29,0,0,1-.35-.15l-2.69-5.57a.21.21,0,0,1,.12-.31l8.16-2.66a.28.28,0,0,1,.33.16l2.6,5.4A.21.21,0,0,1,176.2,65.72Z" transform="translate(-22.65)"/><path class="cls-21" d="M179.23,72l-7.95,3a.27.27,0,0,1-.34-.15l-2.69-5.55a.22.22,0,0,1,.13-.31l8.05-2.85a.27.27,0,0,1,.32.15l2.59,5.38A.22.22,0,0,1,179.23,72Z" transform="translate(-22.65)"/><path class="cls-21" d="M171.12,56l-7.49,2.31a.3.3,0,0,1-.35-.16l-.46-.95a.22.22,0,0,1,.13-.31l7.5-2.27a.29.29,0,0,1,.34.16l.44.92A.21.21,0,0,1,171.12,56Z" transform="translate(-22.65)"/><path class="cls-21" d="M171.86,57.56l-7.46,2.36a.29.29,0,0,1-.34-.16l-.46-.95a.21.21,0,0,1,.12-.31l7.48-2.31a.29.29,0,0,1,.33.15l.45.93A.2.2,0,0,1,171.86,57.56Z" transform="translate(-22.65)"/><path class="cls-21" d="M172.61,59.12l-7.44,2.39a.3.3,0,0,1-.34-.15l-.46-1a.21.21,0,0,1,.12-.3L172,57.74a.28.28,0,0,1,.33.16l.44.92A.21.21,0,0,1,172.61,59.12Z" transform="translate(-22.65)"/><polygon class="cls-20" points="146.63 64.51 144.21 65.33 143.04 62.9 145.47 62.1 146.63 64.51"/><polygon class="cls-22" points="149.27 63.62 146.89 64.42 145.73 62.02 148.12 61.23 149.27 63.62"/><polygon class="cls-20" points="151.85 62.75 149.52 63.53 148.37 61.15 150.71 60.38 151.85 62.75"/><polygon class="cls-22" points="147.92 67.17 145.51 68.01 144.33 65.59 146.76 64.77 147.92 67.17"/><polygon class="cls-23" points="150.53 66.26 148.17 67.08 147.01 64.68 149.39 63.87 150.53 66.26"/><polygon class="cls-20" points="153.1 65.36 150.79 66.17 149.64 63.79 151.97 63 153.1 65.36"/><path class="cls-24" d="M192.56,53.46l-18.22,5.92-2.56-5.33a.2.2,0,0,1,.11-.29l18-5.42a.28.28,0,0,1,.3.15Z" transform="translate(-22.65)"/><path class="cls-21" d="M192.89,54.62l-17.77,5.87a.28.28,0,0,1-.32-.15l-.8-1.67,18.24-5.87.74,1.55A.19.19,0,0,1,192.89,54.62Z" transform="translate(-22.65)"/><path class="cls-21" d="M197.8,65l-17.35,6.59a.25.25,0,0,1-.32-.14L175.3,61.37a.2.2,0,0,1,.11-.29l17.74-5.91a.26.26,0,0,1,.29.15l4.45,9.38A.19.19,0,0,1,197.8,65Z" transform="translate(-22.65)"/><path class="cls-20" d="M177.12,67.12l-8.48,3-.39-.8a.22.22,0,0,1,.13-.31l8.05-2.85a.27.27,0,0,1,.32.15Z" transform="translate(-22.65)"/><polygon class="cls-21" points="161.34 53.67 158.74 54.48 157.43 51.72 160.04 50.93 161.34 53.67"/><polygon class="cls-21" points="162.81 54.11 158 55.64 157.86 55.34 162.67 53.82 162.81 54.11"/><polygon class="cls-25" points="157.16 64.28 155.11 65 154.08 62.86 156.14 62.16 157.16 64.28"/><polygon class="cls-25" points="161.15 53.57 158.81 54.31 157.62 51.82 159.97 51.1 161.15 53.57"/><path class="cls-20" d="M193.86,56.2l-18.11,6.12-.45-1a.2.2,0,0,1,.11-.29l17.74-5.91a.26.26,0,0,1,.29.15Z" transform="translate(-22.65)"/><polygon class="cls-26" points="158.49 67.07 156.46 67.81 155.43 65.67 157.48 64.95 158.49 67.07"/><polygon class="cls-25" points="159.83 69.85 157.8 70.61 156.78 68.48 158.81 67.74 159.83 69.85"/><polygon class="cls-22" points="161.03 61.04 157.04 62.41 156.91 62.12 160.89 60.76 161.03 61.04"/><polygon class="cls-22" points="162.34 63.78 158.38 65.19 158.24 64.91 162.2 63.5 162.34 63.78"/><polygon class="cls-22" points="163.64 66.52 159.71 67.97 159.57 67.69 163.51 66.24 163.64 66.52"/><polygon class="cls-20" points="167.82 59.4 157.34 63.03 157.23 62.8 167.72 59.18 167.82 59.4"/><polygon class="cls-20" points="168.02 59.81 157.55 63.46 157.44 63.23 167.91 59.59 168.02 59.81"/><polygon class="cls-20" points="166.06 63.18 158.68 65.83 158.57 65.6 165.95 62.96 166.06 63.18"/><polygon class="cls-20" points="165.17 66.51 159.94 68.45 159.83 68.22 165.06 66.28 165.17 66.51"/><polygon class="cls-20" points="166.68 66.43 160.14 68.87 160.03 68.64 166.57 66.21 166.68 66.43"/><polygon class="cls-27" points="161.15 53.57 158.81 54.31 158.21 53.06 160.56 52.34 161.15 53.57"/><path class="cls-28" d="M181.8,52.75l-1-1.1.53-.16a1.74,1.74,0,0,1,.29.5,3.85,3.85,0,0,0,.54.73c.05.08.17.57-.07.5S181.8,52.75,181.8,52.75Z" transform="translate(-22.65)"/><path class="cls-29" d="M181.76,52.79a.88.88,0,0,1,.2.46c0,.24,0,.36.09.41s.28-.1.27-.39a2.94,2.94,0,0,0,0-.56c-.05-.09-.17-.08-.27-.2s-.07,0,0,.06,0,.16-.11.06-.14-.11-.14-.11a.18.18,0,0,0-.14.19l0,0S181.71,52.75,181.76,52.79Z" transform="translate(-22.65)"/><path class="cls-30" d="M181.88,53a1,1,0,0,1,.21-.09l0,0a1.08,1.08,0,0,0-.21.11Z" transform="translate(-22.65)"/><path class="cls-30" d="M181.84,52.93a.78.78,0,0,1,.21-.1l0,0s-.19.08-.2.11Z" transform="translate(-22.65)"/><path class="cls-31" d="M182.32,53.17s-.11,0-.18.18-.16.1-.16.1,0,.18.07.21a.11.11,0,0,0,.15,0l0,0a.56.56,0,0,0,.08-.32Z" transform="translate(-22.65)"/><path class="cls-32" d="M182.07,53.68l.07,0a.4.4,0,0,0,.22-.38,2.1,2.1,0,0,1,0-.28h0a.58.58,0,0,0,0-.37l-.1,0h0a2.36,2.36,0,0,1,.05.71.34.34,0,0,1-.23.31Z" transform="translate(-22.65)"/><path class="cls-28" d="M182.25,52.81l-.78-1.36.52-.15a3.37,3.37,0,0,1,.2.6,7,7,0,0,0,.46,1c0,.09,0,.57-.21.44S182.25,52.81,182.25,52.81Z" transform="translate(-22.65)"/><path class="cls-33" d="M182.2,52.84a.88.88,0,0,1,.07.48c0,.23-.09.33,0,.4s.31,0,.38-.29a1.86,1.86,0,0,0,.13-.52c0-.1-.14-.12-.21-.26s-.08,0,0,.06-.06.14-.13,0-.11-.13-.11-.13a.18.18,0,0,0-.19.13v0Z" transform="translate(-22.65)"/><path class="cls-30" d="M182.26,53.07a1,1,0,0,1,.23,0v0s-.21,0-.23.05Z" transform="translate(-22.65)"/><path class="cls-30" d="M182.24,53l.24,0v0a1.11,1.11,0,0,0-.23,0Z" transform="translate(-22.65)"/><path class="cls-34" d="M182.66,53.33s-.11,0-.23.13-.19,0-.19,0,0,.16,0,.21a.15.15,0,0,0,.17,0l0,0a.45.45,0,0,0,.17-.27Z" transform="translate(-22.65)"/><path class="cls-30" d="M182.27,53.74l.06,0a.41.41,0,0,0,.33-.29,1.36,1.36,0,0,1,.06-.27h0a.52.52,0,0,0,.08-.34l-.09-.07s0,0,0,0-.08.42-.13.67a.34.34,0,0,1-.32.22Z" transform="translate(-22.65)"/><polygon class="cls-27" points="157.16 64.28 155.11 65 154.59 63.93 156.65 63.22 157.16 64.28"/><path class="cls-28" d="M178.07,63.62l-.85-.93.47-.16a2.32,2.32,0,0,1,.25.43,3.22,3.22,0,0,0,.46.62c0,.07.15.5-.06.45S178.07,63.62,178.07,63.62Z" transform="translate(-22.65)"/><path class="cls-29" d="M178,63.66a.74.74,0,0,1,.17.4c0,.2,0,.31.08.35s.24-.1.23-.35a1.73,1.73,0,0,0,0-.49c0-.08-.14-.06-.22-.17s-.07,0,0,.06,0,.14-.09.06-.12-.09-.12-.09-.11,0-.12.16,0,0,0,0Z" transform="translate(-22.65)"/><path class="cls-30" d="M178.13,63.84l.18-.09,0,0a.85.85,0,0,0-.18.1Z" transform="translate(-22.65)"/><path class="cls-30" d="M178.1,63.78a1.41,1.41,0,0,1,.18-.1l0,0s-.17.07-.18.1Z" transform="translate(-22.65)"/><path class="cls-31" d="M178.51,64s-.09,0-.15.17-.15.09-.15.09,0,.15.07.18.09,0,.13,0l0,0a.5.5,0,0,0,.07-.29Z" transform="translate(-22.65)"/><path class="cls-32" d="M178.29,64.43l.06,0a.35.35,0,0,0,.2-.33,1.7,1.7,0,0,1,0-.25h0a.55.55,0,0,0,0-.32l-.09,0a0,0,0,0,0,0,0,1.81,1.81,0,0,1,.05.62.31.31,0,0,1-.21.28Z" transform="translate(-22.65)"/><path class="cls-28" d="M178.45,63.67l-.67-1.17.45-.15a2.78,2.78,0,0,1,.18.52,7.59,7.59,0,0,0,.39.85c0,.07,0,.49-.18.39S178.45,63.67,178.45,63.67Z" transform="translate(-22.65)"/><path class="cls-33" d="M178.41,63.69a.74.74,0,0,1,.06.42c0,.2-.08.29,0,.34s.27,0,.33-.26.14-.37.12-.46-.12-.1-.18-.21-.07,0,0,0-.05.13-.11,0a.33.33,0,0,0-.1-.11.17.17,0,0,0-.16.13h0Z" transform="translate(-22.65)"/><path class="cls-30" d="M178.46,63.89a1.21,1.21,0,0,1,.21,0v0a1,1,0,0,0-.2,0Z" transform="translate(-22.65)"/><path class="cls-30" d="M178.44,63.82l.21,0v0a1,1,0,0,0-.21,0Z" transform="translate(-22.65)"/><path class="cls-34" d="M178.81,64.11s-.1,0-.2.11-.17,0-.17,0,0,.15,0,.18a.12.12,0,0,0,.15,0l0,0a.44.44,0,0,0,.15-.25Z" transform="translate(-22.65)"/><path class="cls-30" d="M178.46,64.47l.06,0a.36.36,0,0,0,.29-.26,2.08,2.08,0,0,1,.05-.24l0,0a.47.47,0,0,0,.07-.31l-.08-.06h0a1.73,1.73,0,0,1-.11.59.34.34,0,0,1-.28.21Z" transform="translate(-22.65)"/><polygon class="cls-27" points="159.83 69.85 157.81 70.61 157.3 69.54 159.33 68.79 159.83 69.85"/><path class="cls-28" d="M180.76,69.22l-.84-.92.46-.17a1.76,1.76,0,0,1,.25.43,2.67,2.67,0,0,0,.47.61c0,.08.14.5-.07.45S180.76,69.22,180.76,69.22Z" transform="translate(-22.65)"/><path class="cls-29" d="M180.73,69.26a.7.7,0,0,1,.16.4c0,.2,0,.31.08.35s.24-.1.24-.35a3.34,3.34,0,0,0,0-.5c0-.08-.15-.06-.23-.16s-.07,0,0,0,0,.15-.1.06a.33.33,0,0,0-.12-.09.17.17,0,0,0-.12.17,0,0,0,0,0,0,0Z" transform="translate(-22.65)"/><path class="cls-30" d="M180.83,69.44a.65.65,0,0,1,.18-.09l0,0s-.17.08-.18.11Z" transform="translate(-22.65)"/><path class="cls-30" d="M180.79,69.37a.89.89,0,0,1,.18-.09l0,0a1,1,0,0,0-.18.11Z" transform="translate(-22.65)"/><path class="cls-31" d="M181.2,69.56s-.09,0-.15.18-.14.09-.14.09,0,.15.06.18a.11.11,0,0,0,.13,0l0,0a.44.44,0,0,0,.08-.28A.38.38,0,0,1,181.2,69.56Z" transform="translate(-22.65)"/><path class="cls-32" d="M181,70l.06,0a.37.37,0,0,0,.19-.34,1.7,1.7,0,0,1,0-.25h0a.55.55,0,0,0,0-.32l-.09,0a0,0,0,0,0,0,0,1.81,1.81,0,0,1,.05.62.32.32,0,0,1-.2.29Z" transform="translate(-22.65)"/><path class="cls-28" d="M181.14,69.26l-.67-1.16.45-.16a4.1,4.1,0,0,1,.18.52,7.24,7.24,0,0,0,.39.84c0,.08,0,.5-.18.4S181.14,69.26,181.14,69.26Z" transform="translate(-22.65)"/><path class="cls-33" d="M181.1,69.28a.74.74,0,0,1,.06.42c0,.2-.08.29,0,.35s.26,0,.32-.27.14-.38.12-.46-.13-.1-.18-.22-.07,0,0,.05,0,.13-.11,0-.1-.11-.1-.11a.17.17,0,0,0-.16.13v0Z" transform="translate(-22.65)"/><path class="cls-30" d="M181.15,69.48a1.21,1.21,0,0,1,.21,0v0a1,1,0,0,0-.2,0Z" transform="translate(-22.65)"/><path class="cls-30" d="M181.14,69.41a1.23,1.23,0,0,1,.2,0v0a1.23,1.23,0,0,0-.21,0Z" transform="translate(-22.65)"/><path class="cls-34" d="M181.5,69.69s-.1,0-.2.12-.17.06-.17.06,0,.14,0,.18a.12.12,0,0,0,.14,0l0,0a.5.5,0,0,0,.14-.25Z" transform="translate(-22.65)"/><path class="cls-30" d="M181.16,70.07l.05,0a.38.38,0,0,0,.29-.27,2.08,2.08,0,0,1,.05-.24h0a.53.53,0,0,0,.07-.3l-.08-.07a0,0,0,0,0,0,0,1.78,1.78,0,0,1-.11.6.33.33,0,0,1-.28.21Z" transform="translate(-22.65)"/><polygon class="cls-10" points="175.29 62.77 140.09 53.72 137.01 54.62 147.75 76.84 176.68 65.69 175.29 62.77"/><path class="cls-13" d="M163.88,84.31s-2.06-2-2-6.32-.09-5.62.37-6.83,2.82-5.31,3.52-7.57,1.48,0,1.22,2.15S164.6,70,165.1,72.27s2.21,5.59,1.92,9S165.07,85.4,163.88,84.31Z" transform="translate(-22.65)"/><path class="cls-13" d="M204.45,63.9s-3.57-4.23-5.09-6.07a2.2,2.2,0,0,0-.7-.6c-2.07-1.73-3.41-1.51-4.69-.93a21.38,21.38,0,0,1-4.28.93,20.53,20.53,0,0,1-3.41-.64c-1.07-.39-2.84-1.84-2.41-.48s2.38,2.4,3.39,2.76,4.8,2.33,4.8,2.33h0c.93,1.22,2.56,2.54,3,3.15-2.09-.23-4.1-.42-4.81-1.07s-2.25-1.37-3.09-.84,1.47,1.31,3.14,2.93A12.08,12.08,0,0,0,199.75,68a15.2,15.2,0,0,0,3.2-1.22C205.59,65.05,204.91,64.73,204.45,63.9Z" transform="translate(-22.65)"/><path class="cls-13" d="M211.1,41.27s2.21,13.89-.28,24.67l11.56-1.76S217.71,56.8,216.15,43Z" transform="translate(-22.65)"/><path class="cls-13" d="M196.78,38.87s.17,2.94-.83,4.22l2.56.37Z" transform="translate(-22.65)"/><path class="cls-35" d="M211.6,61.58s-9.74,2.55-16.3,4c0,0-2.13.08-1.44,4.58S197,90.6,197,90.6h39s2.2-22,1.1-23.52S226.52,64.3,221.21,62Z" transform="translate(-22.65)"/><path class="cls-36" d="M194.28,66s-.82.14-3.15,4.59-15.37,29-15.37,29-4.56,7.44-2,11.73c0,0,2.16,3.91,6.29-1.88S195.69,86,197,79,197.25,64.94,194.28,66Z" transform="translate(-22.65)"/><path class="cls-13" d="M221.21,62l-9.61-.38s-2.75.72-6.32,1.61c1.19,2.37,4.51,6.44,13.12,5.86,5.88-.4,8.38-2.71,9.4-5A45.66,45.66,0,0,1,221.21,62Z" transform="translate(-22.65)"/><path class="cls-21" d="M196.76,35.45a2.6,2.6,0,0,0,.48,2,5.7,5.7,0,0,0,3.38-1.73S198.23,34.46,196.76,35.45Z" transform="translate(-22.65)"/><path class="cls-35" d="M196.68,35.88a2.24,2.24,0,0,1,.16-1.22c.34-.54,2.76-.76,3.78,1C200.62,35.7,197.3,34.51,196.68,35.88Z" transform="translate(-22.65)"/><path d="M195.3,36.41a.87.87,0,0,0,.71-.08c.22-.11.24-.33.38-.6a1.14,1.14,0,0,1,.67-.6,4.08,4.08,0,0,1,.82-.2,4,4,0,0,1,1.66.08,2.73,2.73,0,0,1,1.41.86l0,.05a7.59,7.59,0,0,0-1.49-.34,12.48,12.48,0,0,0-1.5-.14c-.5,0-1,0-1.25.45-.12.18-.27.52-.57.62a1,1,0,0,1-.82,0Z" transform="translate(-22.65)"/><path class="cls-37" d="M194.9,33.27a2,2,0,0,1,.68-1.62,2.52,2.52,0,0,1,1.76-.51,5.09,5.09,0,0,1,1.7.45,6.58,6.58,0,0,1,1.48.9c-.57-.13-1.09-.33-1.63-.46a8.93,8.93,0,0,0-1.58-.29,2.68,2.68,0,0,0-1.46.28A2.45,2.45,0,0,0,194.9,33.27Z" transform="translate(-22.65)"/><g class="cls-38"><circle class="cls-35" cx="175.16" cy="36.51" r="0.96"/><circle class="cls-39" cx="175.16" cy="36.51" r="0.52"/></g><path class="cls-40" d="M198.45,45.18s0-.35.6,0a2.85,2.85,0,0,0,2.48.16s-.18,1-2.2,1c0,0-.43-.13-.43.12A1.58,1.58,0,0,1,198.45,45.18Z" transform="translate(-22.65)"/><path class="cls-41" d="M199.08,46.25s-.14.15,0,.5.35.59.57.56a2.23,2.23,0,0,0,1.88-2S201.15,46.3,199.08,46.25Z" transform="translate(-22.65)"/><path class="cls-42" d="M167.82,117.61V86.1s-1-7.4-43.68-7.43c-20.56,0-30.74,3.58-35.08,5.82a4.9,4.9,0,0,0-2.76,4.3L86,117.61Z" transform="translate(-22.65)"/><path class="cls-43" d="M213,16.12a3.65,3.65,0,0,0-.55,0h0s-7.75-.87-13.3,2.24,6.48,10.82,6.48,10.82l1.68,6.36,7.92,15.21a25,25,0,0,1,3.19-7.25c2-2.68,4.13-5.21,3.92-7.19a5.77,5.77,0,0,1-.52,3.65,9.61,9.61,0,0,0,3.51-7.84S225.9,17.83,213,16.12Z" transform="translate(-22.65)"/><path class="cls-12" d="M222.9,27.86a15.9,15.9,0,0,1,1,3,16.36,16.36,0,0,1,.38,3.2,8.52,8.52,0,0,1-.46,3.24A6.3,6.3,0,0,1,221.9,40l-.08-.07a24.37,24.37,0,0,0,1-2.9,20.46,20.46,0,0,0,.62-2.94,17.82,17.82,0,0,0-.64-6.14Z" transform="translate(-22.65)"/><path class="cls-13" d="M207.37,36.33s1.49-4.06,2.26-3.9,1.57,1.78,1.85,2.81-1.4,4.4-2,4.93S207.16,39.68,207.37,36.33Z" transform="translate(-22.65)"/><path class="cls-11" d="M196.36,20.77a5.68,5.68,0,0,0,1.21,7.79c4.26,3.49,9.18,3.27,7.87,6.78s-4.11,7.11-1.85,10.48,3.16,6,1.6,7.24c0,0,3-.91.15-6.62a5.16,5.16,0,0,1,0-5.83c2.08-3,4.31-5.55,5.37-8.63s.5-5-.7-6.4-4.42-3.28-5.17-4.6S199.13,17,196.36,20.77Z" transform="translate(-22.65)"/><path class="cls-12" d="M196.26,21a5.41,5.41,0,0,0,.12,4,4.06,4.06,0,0,0,1.28,1.51,8.29,8.29,0,0,0,1.8.93c1.27.52,2.59.93,3.89,1.4a15.65,15.65,0,0,1,1.94.82,4.25,4.25,0,0,1,1.7,1.41,2.62,2.62,0,0,1,.19,2.26,7.26,7.26,0,0,1-1,1.95c-.81,1.18-1.79,2.17-2.57,3.26a6.46,6.46,0,0,0-.91,1.69,3,3,0,0,0-.11,1.74,7.13,7.13,0,0,0,.95,1.69,5.53,5.53,0,0,1,.47,1,3.1,3.1,0,0,1,.12,1.08h-.09a3.92,3.92,0,0,0-1-1.7,6.64,6.64,0,0,1-1.29-1.77,3.11,3.11,0,0,1-.16-1.21,3.93,3.93,0,0,1,.24-1.12A7.34,7.34,0,0,1,202.93,38c.88-1.13,1.88-2.08,2.67-3.16a6.4,6.4,0,0,0,.93-1.72,2,2,0,0,0-.07-1.73A3.79,3.79,0,0,0,205,30.15a15.6,15.6,0,0,0-1.85-.85c-1.28-.5-2.59-.94-3.86-1.52a8.6,8.6,0,0,1-1.84-1,4.35,4.35,0,0,1-1.31-1.66,5.61,5.61,0,0,1,0-4.11Z" transform="translate(-22.65)"/><path class="cls-12" d="M205.18,53a2.06,2.06,0,0,0,1.06-1.34,4.08,4.08,0,0,0,0-1.74,10.4,10.4,0,0,0-.49-1.71c-.21-.57-.48-1.11-.74-1.65l0,0a5.24,5.24,0,0,1-.85-3.79A7.89,7.89,0,0,1,206,39.46a35.79,35.79,0,0,0,3.89-6.36,11,11,0,0,0,1-3.51,4.9,4.9,0,0,0-.79-3.34c-1.34-1.94-3.88-3.07-5.26-5.25l.06,0c1.64,1.89,4.1,2.77,5.78,4.88a5.58,5.58,0,0,1,1,3.81,11.76,11.76,0,0,1-1.12,3.7c-1.12,2.32-2.86,4.18-4.3,6.23-.34.52-.72,1-1,1.56a4.89,4.89,0,0,0-.5,1.74,5.43,5.43,0,0,0,.92,3.36l0,0h0a11.85,11.85,0,0,1,1.14,3.59,4.43,4.43,0,0,1-.22,1.91,2.17,2.17,0,0,1-1.35,1.3Z" transform="translate(-22.65)"/><path class="cls-44" d="M209,67.17a14.83,14.83,0,0,0,4.95,1.45,24,24,0,0,0,5.15,0,15.81,15.81,0,0,0,5-1.2,7.88,7.88,0,0,0,3.77-3.36,6.53,6.53,0,0,1-1.38,2.26,8.92,8.92,0,0,1-2.15,1.6,13.78,13.78,0,0,1-5.13,1.41,19.22,19.22,0,0,1-5.3-.17A11.88,11.88,0,0,1,209,67.17Z" transform="translate(-22.65)"/><path class="cls-44" d="M236.05,90.6l.6-10.09c.19-3.36.44-6.72.45-10.07A22.51,22.51,0,0,0,237,68a3,3,0,0,0-.1-.56c0-.11-.15-.21-.26-.32a6,6,0,0,0-1-.54c-1.54-.58-3.19-1-4.81-1.42a56.78,56.78,0,0,1-9.6-3.16A42.63,42.63,0,0,0,226,63.42c1.62.42,3.26.79,4.91,1.16a43.56,43.56,0,0,1,4.9,1.36,5.92,5.92,0,0,1,1.21.6,1.53,1.53,0,0,1,.51.65,4.75,4.75,0,0,1,.13.68,20.33,20.33,0,0,1,.11,2.57c-.07,3.39-.3,6.75-.61,10.11S236.52,87.26,236.05,90.6Z" transform="translate(-22.65)"/><path class="cls-45" d="M167.82,117.61V86.1s1.05-7.4,43.69-7.43c20.56,0,30.74,3.58,35.08,5.82a4.9,4.9,0,0,1,2.76,4.3l.29,28.82Z" transform="translate(-22.65)"/><path class="cls-46" d="M167.75,86.09a3.14,3.14,0,0,1,1.13-1.45,12.81,12.81,0,0,1,1.51-1c.55-.25,1.08-.55,1.64-.77l1.7-.64c1.15-.35,2.3-.73,3.47-1l1.76-.42,1.78-.34a127.91,127.91,0,0,1,14.33-1.72c4.8-.34,9.61-.49,14.42-.57s9.64,0,14.46.36a87.53,87.53,0,0,1,14.35,2.14A45.58,45.58,0,0,1,245.25,83c.57.24,1.12.51,1.68.79A6.13,6.13,0,0,1,248.57,85a5.59,5.59,0,0,1,1.55,3.78c0,9.61-.06,19.22-.4,28.83h-.16c-.53-9.6-.74-19.2-1-28.81a4.06,4.06,0,0,0-1.15-2.72,4.64,4.64,0,0,0-1.24-.9c-.52-.26-1-.51-1.58-.74a46.77,46.77,0,0,0-6.7-2.28,86.47,86.47,0,0,0-14.08-2.39c-4.76-.44-9.54-.6-14.34-.58s-9.59.07-14.38.33a126.79,126.79,0,0,0-14.3,1.41l-1.77.3-1.76.38c-1.17.23-2.32.58-3.47.9l-1.69.6c-.56.21-1.08.49-1.63.73a10.56,10.56,0,0,0-1.5,1,3.1,3.1,0,0,0-1.1,1.32Z" transform="translate(-22.65)"/><path class="cls-46" d="M167.82,86.1a4.06,4.06,0,0,0-1.76-1.72,17.33,17.33,0,0,0-2.26-1.08A35.1,35.1,0,0,0,159,81.94a85.14,85.14,0,0,0-10-1.5c-6.69-.64-13.43-.86-20.17-1-3.38-.06-6.74-.11-10.1,0s-6.72.27-10.07.57a85.85,85.85,0,0,0-10,1.46,46.65,46.65,0,0,0-9.63,3,41.69,41.69,0,0,1,9.46-3.7,87,87,0,0,1,10-1.91A134.05,134.05,0,0,1,128.85,78a174.37,174.37,0,0,1,20.29,1.31,85.43,85.43,0,0,1,10,1.94A37.69,37.69,0,0,1,164,82.92a17.55,17.55,0,0,1,2.23,1.27A4.19,4.19,0,0,1,167.82,86.1Z" transform="translate(-22.65)"/><circle class="cls-35" cx="186.31" cy="40.47" r="1.12"/></g><path class="cls-47" d="M53.42,38.13,57.31,34a18.2,18.2,0,0,0,1.39-1.67,2.57,2.57,0,0,0,.53-1.47,1.3,1.3,0,0,0-.25-.81.93.93,0,0,0-.79-.32,1.12,1.12,0,0,0-.89.38,2.56,2.56,0,0,0-.44,1.35H53.6a4.43,4.43,0,0,1,1.34-3.35A5,5,0,0,1,58.36,27a5.89,5.89,0,0,1,1.92.28,4.08,4.08,0,0,1,1.4.76,3.24,3.24,0,0,1,.84,1.17,4,4,0,0,1,.28,1.48,4.06,4.06,0,0,1-.16,1.13,4.2,4.2,0,0,1-.43,1,7.08,7.08,0,0,1-.67.94,12.11,12.11,0,0,1-.87.9l-1.31,1.26h3.53v2.69H53.42Z" transform="translate(-22.65)"/><path class="cls-47" d="M69.1,38.83a6.32,6.32,0,0,1-2.23-.37,4.53,4.53,0,0,1-1.68-1.11,4.82,4.82,0,0,1-1.07-1.78,7.57,7.57,0,0,1-.36-2.43v-.45a6.52,6.52,0,0,1,.41-2.43,5.14,5.14,0,0,1,1.14-1.78A4.92,4.92,0,0,1,67,27.38,5.88,5.88,0,0,1,69.16,27a6.43,6.43,0,0,1,2.13.34,4.7,4.7,0,0,1,1.72,1,4.9,4.9,0,0,1,1.15,1.75,6.38,6.38,0,0,1,.43,2.47V33a7.22,7.22,0,0,1-.39,2.46,4.91,4.91,0,0,1-1.1,1.82,4.68,4.68,0,0,1-1.74,1.13A6.45,6.45,0,0,1,69.1,38.83Zm.11-2.78a1.45,1.45,0,0,0,1.37-.72A4.62,4.62,0,0,0,71,33.11v-.42a4.42,4.42,0,0,0-.43-2.22,1.72,1.72,0,0,0-2.78,0,4.43,4.43,0,0,0-.43,2.21v.45a4.46,4.46,0,0,0,.43,2.21A1.54,1.54,0,0,0,69.21,36.05Z" transform="translate(-22.65)"/><path class="cls-47" d="M77.53,34.27a1.78,1.78,0,0,1-.7-.13,1.64,1.64,0,0,1-.55-.36,1.42,1.42,0,0,1-.36-.54,1.72,1.72,0,0,1-.13-.68,1.67,1.67,0,0,1,.13-.67,1.39,1.39,0,0,1,.36-.55,1.53,1.53,0,0,1,.55-.37,1.78,1.78,0,0,1,.7-.14,1.89,1.89,0,0,1,.72.14,1.65,1.65,0,0,1,.58.37,1.53,1.53,0,0,1,.37.55,1.67,1.67,0,0,1,.14.67,1.72,1.72,0,0,1-.14.68,1.58,1.58,0,0,1-.37.54,1.78,1.78,0,0,1-.58.36A1.88,1.88,0,0,1,77.53,34.27Zm0,4.55a1.72,1.72,0,1,1,0-3.44,1.88,1.88,0,0,1,.72.13,1.65,1.65,0,0,1,.58.37,1.71,1.71,0,0,1,.51,1.21,1.64,1.64,0,0,1-.51,1.23A1.8,1.8,0,0,1,77.53,38.82Z" transform="translate(-22.65)"/><path class="cls-47" d="M85.2,38.83a5.37,5.37,0,0,1-3.66-1,4.13,4.13,0,0,1-1.26-3H83.5a2,2,0,0,0,.38,1.07,1.35,1.35,0,0,0,1.09.39,1.4,1.4,0,0,0,1-.3,1.13,1.13,0,0,0,.31-.85,1.12,1.12,0,0,0-.32-.87,1.49,1.49,0,0,0-1-.3H84V31.73h.87a1.53,1.53,0,0,0,1.05-.3,1.06,1.06,0,0,0,.34-.85,1,1,0,0,0-.29-.72,1.17,1.17,0,0,0-.86-.28,1.19,1.19,0,0,0-.92.35,1.82,1.82,0,0,0-.43,1h-3.2a4.76,4.76,0,0,1,.38-1.6,3.45,3.45,0,0,1,.89-1.24,3.74,3.74,0,0,1,1.41-.8,6.1,6.1,0,0,1,2-.28,5.46,5.46,0,0,1,3.27.85,2.68,2.68,0,0,1,1.18,2.32,2.32,2.32,0,0,1-.52,1.57,2.92,2.92,0,0,1-1.45.89,2.83,2.83,0,0,1,1.63.85,2.39,2.39,0,0,1,.61,1.69,3.61,3.61,0,0,1-.3,1.49,3.14,3.14,0,0,1-.9,1.15,4.29,4.29,0,0,1-1.48.75A7.45,7.45,0,0,1,85.2,38.83Z" transform="translate(-22.65)"/><path class="cls-47" d="M96.22,38.83A6.23,6.23,0,0,1,94,38.46a4.49,4.49,0,0,1-1.69-1.11,4.82,4.82,0,0,1-1.07-1.78,7.57,7.57,0,0,1-.36-2.43v-.45a6.52,6.52,0,0,1,.41-2.43,5,5,0,0,1,1.15-1.78,4.79,4.79,0,0,1,1.71-1.1A5.92,5.92,0,0,1,96.28,27a6.43,6.43,0,0,1,2.13.34,4.7,4.7,0,0,1,1.72,1,4.9,4.9,0,0,1,1.15,1.75,6.38,6.38,0,0,1,.43,2.47V33a7.22,7.22,0,0,1-.39,2.46,4.91,4.91,0,0,1-1.1,1.82,4.68,4.68,0,0,1-1.74,1.13A6.45,6.45,0,0,1,96.22,38.83Zm.11-2.78a1.45,1.45,0,0,0,1.37-.72,4.62,4.62,0,0,0,.41-2.22v-.42a4.42,4.42,0,0,0-.43-2.22,1.72,1.72,0,0,0-2.78,0,4.45,4.45,0,0,0-.42,2.21v.45a4.47,4.47,0,0,0,.42,2.21A1.54,1.54,0,0,0,96.33,36.05Z" transform="translate(-22.65)"/><path class="cls-47" d="M111.39,38.83a5.56,5.56,0,0,1-3.88-1.23,4.75,4.75,0,0,1-1.35-3.7V27.18h3.61v6.58a6.93,6.93,0,0,0,.07,1,1.94,1.94,0,0,0,.25.69,1,1,0,0,0,.5.42,2.06,2.06,0,0,0,.8.13,1.36,1.36,0,0,0,1.28-.55,3.51,3.51,0,0,0,.32-1.69V27.18h3.65v6.69a6.16,6.16,0,0,1-.37,2.23,4,4,0,0,1-1.06,1.55,4.38,4.38,0,0,1-1.65.89A7.35,7.35,0,0,1,111.39,38.83Z" transform="translate(-22.65)"/><path class="cls-47" d="M118.35,26.62h3.15v5a3,3,0,0,1,1-1.12,3.08,3.08,0,0,1,1.74-.45,3,3,0,0,1,1.09.19,2.15,2.15,0,0,1,.84.58,2.73,2.73,0,0,1,.56,1,4.24,4.24,0,0,1,.2,1.36v5.5H123.8v-4.8a1.62,1.62,0,0,0-.24-1,1,1,0,0,0-.81-.32,1.18,1.18,0,0,0-.92.36,1.56,1.56,0,0,0-.33,1.1v4.62h-3.15Z" transform="translate(-22.65)"/><path class="cls-47" d="M128.41,30.26h3.15V32a2.61,2.61,0,0,1,2.69-1.81v3a3.42,3.42,0,0,0-2,.34,1.46,1.46,0,0,0-.69,1.34v3.85h-3.15Z" transform="translate(-22.65)"/><path class="cls-47" d="M26,44.15H22.65V43H30.7v1.12H27.37V54.47H26Z" transform="translate(-22.65)"/><path class="cls-47" d="M32,43h1.37l3.41,10.1L40.19,43H41.5l-4,11.44H35.88Z" transform="translate(-22.65)"/><path class="cls-47" d="M50.59,54.62a3.62,3.62,0,0,1-1.16-.18,2.12,2.12,0,0,1-.92-.56,2.86,2.86,0,0,1-.61-1,4.31,4.31,0,0,1-.22-1.48V46.11H49v5.25A2.31,2.31,0,0,0,49.48,53a1.86,1.86,0,0,0,1.46.52,2.47,2.47,0,0,0,.86-.15,2,2,0,0,0,.74-.43,2.13,2.13,0,0,0,.51-.72,2.41,2.41,0,0,0,.19-1V46.11h1.33v8.36H53.24V53.15a2.6,2.6,0,0,1-1,1A3.1,3.1,0,0,1,50.59,54.62Z" transform="translate(-22.65)"/><path class="cls-47" d="M57.45,46.11h1.33v1.32a2.62,2.62,0,0,1,1-1A3.11,3.11,0,0,1,61.47,46a3.48,3.48,0,0,1,1.18.19,2.31,2.31,0,0,1,.94.59,2.83,2.83,0,0,1,.61,1,5,5,0,0,1,.21,1.55v5.13H63.08V49.22a2.31,2.31,0,0,0-.48-1.62,1.9,1.9,0,0,0-1.48-.52,2.64,2.64,0,0,0-.89.15A2,2,0,0,0,59,48.39a2.36,2.36,0,0,0-.19,1v5.09H57.45Z" transform="translate(-22.65)"/><path class="cls-47" d="M70.36,54.62a4,4,0,0,1-1.51-.28,3.42,3.42,0,0,1-1.2-.82,3.63,3.63,0,0,1-.78-1.31,5.06,5.06,0,0,1-.28-1.75v-.13a5,5,0,0,1,.29-1.76,4.26,4.26,0,0,1,.79-1.38,3.73,3.73,0,0,1,1.24-.91A3.91,3.91,0,0,1,70.49,46a3,3,0,0,1,1.71.44,3.54,3.54,0,0,1,1,1.05V42.11h1.33V54.47H73.23V53a2.87,2.87,0,0,1-.48.6,3.72,3.72,0,0,1-.68.5,4.31,4.31,0,0,1-.82.35A3,3,0,0,1,70.36,54.62Zm.15-1.12a3.09,3.09,0,0,0,1.09-.19,2.37,2.37,0,0,0,.88-.58,2.82,2.82,0,0,0,.58-1,4.18,4.18,0,0,0,.22-1.39v-.13a3.36,3.36,0,0,0-.72-2.37,2.52,2.52,0,0,0-1.94-.77,2.43,2.43,0,0,0-2,.83A3.54,3.54,0,0,0,68,50.27v.12a4.32,4.32,0,0,0,.2,1.38,2.78,2.78,0,0,0,.55,1,2.2,2.2,0,0,0,.81.58A2.46,2.46,0,0,0,70.51,53.5Z" transform="translate(-22.65)"/><path class="cls-47" d="M85.47,54.62a5.55,5.55,0,0,1-2-.3,3.65,3.65,0,0,1-1.3-.79,3.35,3.35,0,0,1-.78-1.15A5.34,5.34,0,0,1,81.1,51h1.34a5.08,5.08,0,0,0,.23,1,2.14,2.14,0,0,0,.49.8,2.44,2.44,0,0,0,.89.54,4.33,4.33,0,0,0,1.42.2,3.4,3.4,0,0,0,1-.15,2.44,2.44,0,0,0,.83-.44,2.08,2.08,0,0,0,.56-.69,2,2,0,0,0,.2-.88A2.65,2.65,0,0,0,88,50.5a1.42,1.42,0,0,0-.44-.62,2.69,2.69,0,0,0-.85-.43,8.11,8.11,0,0,0-1.35-.3,11.67,11.67,0,0,1-1.61-.37,4.26,4.26,0,0,1-1.21-.59,2.23,2.23,0,0,1-.75-.89A3,3,0,0,1,81.48,46a2.7,2.7,0,0,1,.28-1.22,2.79,2.79,0,0,1,.76-1,3.55,3.55,0,0,1,1.16-.66,4.33,4.33,0,0,1,1.48-.24,4.29,4.29,0,0,1,2.75.81A3.33,3.33,0,0,1,89.1,46H87.85A2.42,2.42,0,0,0,87,44.48,3.08,3.08,0,0,0,85.16,44a2.63,2.63,0,0,0-1.78.52,1.69,1.69,0,0,0-.6,1.34,2.45,2.45,0,0,0,.1.74,1.24,1.24,0,0,0,.4.57,2.73,2.73,0,0,0,.84.42,7.67,7.67,0,0,0,1.41.32,9.53,9.53,0,0,1,1.68.38,4.23,4.23,0,0,1,1.22.62,2.36,2.36,0,0,1,.74.95,3.29,3.29,0,0,1,.25,1.37,3,3,0,0,1-.3,1.34,3.16,3.16,0,0,1-.82,1.07,3.69,3.69,0,0,1-1.26.71A4.7,4.7,0,0,1,85.47,54.62Z" transform="translate(-22.65)"/><path class="cls-47" d="M95.37,54.62a4.22,4.22,0,0,1-1.65-.32,3.77,3.77,0,0,1-1.29-.89,4.08,4.08,0,0,1-.85-1.35,4.71,4.71,0,0,1-.3-1.7v-.13a4.58,4.58,0,0,1,.31-1.72,4.18,4.18,0,0,1,.85-1.36,4,4,0,0,1,1.3-.88A4.41,4.41,0,0,1,95.39,46a4.47,4.47,0,0,1,1.64.31,3.79,3.79,0,0,1,1.3.88,4.11,4.11,0,0,1,.86,1.34,4.59,4.59,0,0,1,.31,1.73v.13a4.63,4.63,0,0,1-.31,1.73,3.93,3.93,0,0,1-.87,1.35,3.79,3.79,0,0,1-1.3.88A4.41,4.41,0,0,1,95.37,54.62Zm0-1.12a2.78,2.78,0,0,0,1.13-.22,2.4,2.4,0,0,0,.87-.64,3.09,3.09,0,0,0,.54-1,4,4,0,0,0,.19-1.28v-.11a4.08,4.08,0,0,0-.19-1.3,2.89,2.89,0,0,0-.55-1,2.43,2.43,0,0,0-.86-.63,2.92,2.92,0,0,0-2.27,0,2.26,2.26,0,0,0-.86.63,2.93,2.93,0,0,0-.55,1,4.37,4.37,0,0,0-.19,1.29v.13a3.38,3.38,0,0,0,.73,2.29A2.48,2.48,0,0,0,95.39,53.5Z" transform="translate(-22.65)"/><path class="cls-47" d="M100.51,54.28l4.94-7.05H101V46.11h6.51v.24l-4.83,7h4.77v1.16h-6.93Z" transform="translate(-22.65)"/><path class="cls-47" d="M110.11,44.36a.87.87,0,1,1,.62-.25A.85.85,0,0,1,110.11,44.36Zm-.64,1.75h1.33v8.36h-1.33Z" transform="translate(-22.65)"/><path class="cls-47" d="M115.8,54.62a3.81,3.81,0,0,1-1.08-.15,2.32,2.32,0,0,1-.89-.44,2.15,2.15,0,0,1-.59-.77,2.53,2.53,0,0,1-.22-1.11,2.08,2.08,0,0,1,.35-1.21,2.62,2.62,0,0,1,.94-.8,4.69,4.69,0,0,1,1.34-.44,9,9,0,0,1,1.56-.14h1.2V49a2.08,2.08,0,0,0-.41-1.44,1.86,1.86,0,0,0-1.38-.44c-1.15,0-1.79.5-1.92,1.49h-1.33a2.82,2.82,0,0,1,.36-1.22,2.61,2.61,0,0,1,.75-.8,3.08,3.08,0,0,1,1-.45,5.06,5.06,0,0,1,1.17-.14,5,5,0,0,1,1.16.14,2.33,2.33,0,0,1,1.64,1.4,3.6,3.6,0,0,1,.26,1.46v5.51h-1.33v-1a3.21,3.21,0,0,1-1.07.89A3.35,3.35,0,0,1,115.8,54.62Zm.13-1.06a3.54,3.54,0,0,0,1-.13,2.22,2.22,0,0,0,.78-.4,1.87,1.87,0,0,0,.52-.63,1.8,1.8,0,0,0,.19-.85v-1h-1.15a8.34,8.34,0,0,0-1.16.08,3.28,3.28,0,0,0-.93.29,1.51,1.51,0,0,0-.61.5,1.36,1.36,0,0,0-.21.77,1.44,1.44,0,0,0,.35,1A1.63,1.63,0,0,0,115.93,53.56Z" transform="translate(-22.65)"/><path class="cls-47" d="M122.57,42.11h1.35V54.47h-1.35Z" transform="translate(-22.65)"/><path class="cls-47" d="M130.25,54.62a4.08,4.08,0,0,1-1.63-.31,3.73,3.73,0,0,1-1.28-.85,3.82,3.82,0,0,1-.84-1.34,4.81,4.81,0,0,1-.3-1.74v-.13a5.12,5.12,0,0,1,.29-1.74,4,4,0,0,1,.81-1.36,3.78,3.78,0,0,1,1.24-.88,4.08,4.08,0,0,1,1.58-.31,4.16,4.16,0,0,1,1.4.24,3.2,3.2,0,0,1,1.21.73,3.57,3.57,0,0,1,.84,1.3,5.22,5.22,0,0,1,.31,1.92v.44h-6.3a3.29,3.29,0,0,0,.72,2.16,2.5,2.5,0,0,0,2,.75c1.31,0,2-.48,2.22-1.43h1.33a2.73,2.73,0,0,1-1.18,1.9A4.2,4.2,0,0,1,130.25,54.62Zm2.27-5.14a2.59,2.59,0,0,0-.72-1.84,2.47,2.47,0,0,0-1.68-.56,2.27,2.27,0,0,0-1.67.65,3,3,0,0,0-.82,1.75Z" transform="translate(-22.65)"/><path class="cls-47" d="M79.5,58.89h1.94L85,67.8l3.43-8.91h1.92V70.33h-1.4V60.69l-3.79,9.64H84.7l-3.92-9.64v9.64H79.5Z" transform="translate(-22.65)"/><path class="cls-47" d="M96.72,70.47a4.32,4.32,0,0,1-1.64-.3,4,4,0,0,1-1.28-.86A3.82,3.82,0,0,1,93,68a5,5,0,0,1-.29-1.74V66.1A4.8,4.8,0,0,1,93,64.37a4,4,0,0,1,.8-1.36A3.51,3.51,0,0,1,95,62.13a3.93,3.93,0,0,1,1.59-.32,4.21,4.21,0,0,1,1.4.24,3.36,3.36,0,0,1,1.21.73,3.57,3.57,0,0,1,.84,1.3,5.44,5.44,0,0,1,.31,1.92v.44H94a3.4,3.4,0,0,0,.72,2.16,2.52,2.52,0,0,0,2,.75c1.31,0,2-.47,2.23-1.42h1.32a2.77,2.77,0,0,1-1.18,1.9A4.19,4.19,0,0,1,96.72,70.47ZM99,65.33a2.64,2.64,0,0,0-.73-1.84,2.44,2.44,0,0,0-1.67-.56,2.25,2.25,0,0,0-1.67.65,3,3,0,0,0-.83,1.75Z" transform="translate(-22.65)"/><path class="cls-47" d="M105.72,70.47a3.94,3.94,0,0,1-1.51-.28,3.42,3.42,0,0,1-1.2-.82,3.49,3.49,0,0,1-.78-1.31,5.06,5.06,0,0,1-.28-1.75v-.13a5,5,0,0,1,.29-1.76A4.26,4.26,0,0,1,103,63a3.73,3.73,0,0,1,1.24-.91,3.91,3.91,0,0,1,1.58-.32,3,3,0,0,1,1.71.44,3.54,3.54,0,0,1,1,1V58h1.33V70.33h-1.33V68.89a2.83,2.83,0,0,1-.48.59,3.77,3.77,0,0,1-1.5.85A3,3,0,0,1,105.72,70.47Zm.15-1.12a3.09,3.09,0,0,0,1.09-.19,2.37,2.37,0,0,0,.88-.58,2.82,2.82,0,0,0,.58-1,4.19,4.19,0,0,0,.21-1.39v-.13a3.36,3.36,0,0,0-.71-2.37,2.52,2.52,0,0,0-1.94-.77,2.43,2.43,0,0,0-2,.83,3.54,3.54,0,0,0-.71,2.36v.13a4.3,4.3,0,0,0,.2,1.37,2.93,2.93,0,0,0,.55,1,2.3,2.3,0,0,0,.81.57A2.46,2.46,0,0,0,105.87,69.35Z" transform="translate(-22.65)"/><path class="cls-47" d="M113.47,60.21a.87.87,0,1,1,.62-.25A.85.85,0,0,1,113.47,60.21ZM112.83,62h1.32v8.37h-1.32Z" transform="translate(-22.65)"/><path class="cls-47" d="M120.49,70.47a4.26,4.26,0,0,1-1.63-.3,3.9,3.9,0,0,1-1.28-.86,3.82,3.82,0,0,1-.84-1.34,4.81,4.81,0,0,1-.3-1.74V66.1a5,5,0,0,1,.29-1.73,3.85,3.85,0,0,1,.81-1.36,3.51,3.51,0,0,1,1.24-.88,3.91,3.91,0,0,1,1.58-.32,4.16,4.16,0,0,1,1.4.24,3.2,3.2,0,0,1,1.21.73,3.57,3.57,0,0,1,.84,1.3,5.22,5.22,0,0,1,.31,1.92v.44h-6.3a3.29,3.29,0,0,0,.72,2.16,2.5,2.5,0,0,0,2,.75c1.31,0,2-.47,2.22-1.42h1.33a2.77,2.77,0,0,1-1.18,1.9A4.2,4.2,0,0,1,120.49,70.47Zm2.27-5.14a2.59,2.59,0,0,0-.72-1.84,2.47,2.47,0,0,0-1.68-.56,2.27,2.27,0,0,0-1.67.65,3,3,0,0,0-.82,1.75Z" transform="translate(-22.65)"/><path class="cls-47" d="M126.35,62h1.32v1.33a2.73,2.73,0,0,1,1-1,3.16,3.16,0,0,1,1.72-.44,3.8,3.8,0,0,1,1.19.19,2.28,2.28,0,0,1,.93.59,2.7,2.7,0,0,1,.61,1,4.67,4.67,0,0,1,.22,1.55v5.14H132V65.07a2.31,2.31,0,0,0-.48-1.62,1.93,1.93,0,0,0-1.49-.52,2.68,2.68,0,0,0-.89.15,2.18,2.18,0,0,0-.74.43,2.13,2.13,0,0,0-.51.73,2.36,2.36,0,0,0-.2,1v5.1h-1.32Z" transform="translate(-22.65)"/></g></g></svg>