<svg xmlns="http://www.w3.org/2000/svg" viewBox="0 0 361.28 361.28"><defs><style>.cls-1{isolation:isolate;}.cls-2{fill:#eaf5f9;stroke:#fff;stroke-width:0.39px;}.cls-10,.cls-2,.cls-9{stroke-miterlimit:10;}.cls-3{fill:#d0e9f4;}.cls-4{fill:#fff;}.cls-5,.cls-6{fill:#b5d4da;}.cls-6{mix-blend-mode:multiply;}.cls-7{fill:#00385b;}.cls-10,.cls-8,.cls-9{fill:none;}.cls-10,.cls-9{stroke:#00385b;stroke-linecap:round;}.cls-9{stroke-width:4px;}.cls-10{stroke-width:1.09px;}.cls-11{fill:#3f678b;}</style></defs><title>UHr</title><g class="cls-1"><g id="Ebene_2" data-name="Ebene 2"><g id="Ebene_1-2" data-name="Ebene 1"><circle class="cls-2" cx="180.64" cy="180.64" r="180.44"/><circle class="cls-3" cx="180.64" cy="180.64" r="117.2"/><circle class="cls-4" cx="180.64" cy="180.64" r="72.16"/><path class="cls-5" d="M181.37,133.64a2,2,0,0,0,2-2V120.49a2,2,0,0,0-4,0v11.15A2,2,0,0,0,181.37,133.64Z"/><path class="cls-5" d="M181.37,228.36a2,2,0,0,0-2,2v11.15a2,2,0,0,0,4,0V230.36A2,2,0,0,0,181.37,228.36Z"/><path class="cls-5" d="M134,181a2,2,0,0,0-2-2H120.86a2,2,0,0,0,0,4H132A2,2,0,0,0,134,181Z"/><path class="cls-5" d="M241.87,179H230.72a2,2,0,0,0,0,4h11.15a2,2,0,0,0,0-4Z"/><path class="cls-5" d="M153.59,134a.55.55,0,0,0,.47.27.52.52,0,0,0,.27-.07.54.54,0,0,0,.2-.75l-2.95-5.11a.54.54,0,0,0-.74-.2.55.55,0,0,0-.2.75Z"/><path class="cls-5" d="M209.14,228a.54.54,0,0,0-.74-.2.56.56,0,0,0-.2.75l3,5.11a.55.55,0,0,0,.47.27.52.52,0,0,0,.27-.07.55.55,0,0,0,.2-.75Z"/><path class="cls-5" d="M133.8,207.83l-5.11,2.95a.54.54,0,0,0,.55.94l5.11-2.95a.54.54,0,0,0,.2-.74A.55.55,0,0,0,133.8,207.83Z"/><path class="cls-5" d="M228.66,154.24a.56.56,0,0,0,.27-.08l5.11-2.95a.54.54,0,0,0,.2-.74.55.55,0,0,0-.75-.2l-5.11,2.95a.55.55,0,0,0,.28,1Z"/><path class="cls-5" d="M134.35,153.22l-5.11-2.95a.55.55,0,0,0-.75.2.54.54,0,0,0,.2.74l5.11,2.95a.56.56,0,0,0,.27.08.55.55,0,0,0,.48-.28A.54.54,0,0,0,134.35,153.22Z"/><path class="cls-5" d="M234,210.78l-5.11-2.95a.54.54,0,0,0-.74.2.53.53,0,0,0,.19.74l5.11,2.95a.55.55,0,0,0,.28.07.54.54,0,0,0,.27-1Z"/><path class="cls-5" d="M154.33,227.81a.54.54,0,0,0-.74.2l-3,5.11a.55.55,0,0,0,.2.75.55.55,0,0,0,.74-.2l2.95-5.11A.55.55,0,0,0,154.33,227.81Z"/><path class="cls-5" d="M211.89,128.12a.54.54,0,0,0-.74.2l-3,5.11a.55.55,0,0,0,.2.75.52.52,0,0,0,.27.07.55.55,0,0,0,.47-.27l3-5.11A.55.55,0,0,0,211.89,128.12Z"/><path class="cls-6" d="M182.09,111.35a70.38,70.38,0,1,0,70.39,70.38A70.46,70.46,0,0,0,182.09,111.35Zm0,137.4a67,67,0,1,1,67-67A67.1,67.1,0,0,1,182.09,248.75Z"/><path class="cls-7" d="M180.64,257.94A77.3,77.3,0,1,1,235.3,235.3,76.79,76.79,0,0,1,180.64,257.94Zm0-144.32a67,67,0,1,0,67,67A67.09,67.09,0,0,0,180.64,113.62Z"/><circle class="cls-8" cx="180.64" cy="180.64" r="60.51"/><line class="cls-9" x1="180.64" y1="120.13" x2="180.64" y2="131.28"/><line class="cls-9" x1="180.64" y1="230" x2="180.64" y2="241.15"/><line class="cls-9" x1="120.13" y1="180.64" x2="131.28" y2="180.64"/><line class="cls-9" x1="230" y1="180.64" x2="241.15" y2="180.64"/><line class="cls-10" x1="150.38" y1="128.23" x2="153.33" y2="133.34"/><line class="cls-10" x1="207.94" y1="227.92" x2="210.89" y2="233.03"/><line class="cls-10" x1="128.24" y1="210.89" x2="133.35" y2="207.94"/><line class="cls-10" x1="227.93" y1="153.33" x2="233.04" y2="150.38"/><line class="cls-10" x1="128.24" y1="150.38" x2="133.35" y2="153.33"/><line class="cls-10" x1="227.93" y1="207.94" x2="233.04" y2="210.89"/><line class="cls-10" x1="150.38" y1="233.03" x2="153.33" y2="227.92"/><line class="cls-10" x1="207.94" y1="133.34" x2="210.89" y2="128.23"/><path class="cls-11" d="M180.64,247.66a67,67,0,1,1,0-134V103.33a77.31,77.31,0,0,0,0,154.61Z"/></g></g></g></svg>